<svg width="44" height="44" viewBox="0 0 44 44" fill="none" xmlns="http://www.w3.org/2000/svg">
<path d="M35.1593 39.7631C33.0235 41.3313 30.748 42.6629 28.2059 42.5532C26.1544 42.4646 24.3457 43.1245 22.4214 43.3486C17.1781 43.9591 11.9446 43.2576 8.54641 38.9705C5.84606 35.5637 2.4358 32.5315 1.00735 28.1624C-0.0801009 24.8363 -0.281867 21.5397 0.741666 18.1843C0.818637 17.932 0.859926 17.6338 1.02204 17.4478C2.55475 15.6895 2.72406 13.3697 3.59764 11.3467C5.80475 6.23541 9.47474 2.42251 15.1393 1.79752C18.2803 1.45097 21.3681 0.592799 24.5833 0.677051C28.2997 0.774437 31.5741 1.8862 34.4818 4.15496C34.897 4.47891 35.4045 4.78626 35.6383 5.22452C37.2596 8.26351 40.028 10.4361 41.7576 13.3792C43.829 16.9037 44.391 20.7039 43.647 24.7081C43.583 25.0528 43.5331 25.4297 43.3574 25.7194C41.7818 28.3171 41.0928 31.2828 39.8695 34.0205C38.8512 36.2996 37.1987 38.1519 35.1593 39.7631ZM40.9706 25.8839C41.584 26.0255 41.5834 26.0252 41.9023 25.2783C43.3685 21.8445 43.0977 18.4047 41.8047 15.0185C40.9978 12.905 39.7099 11.0917 37.917 9.7561C37.3587 9.94993 37.4899 10.6624 36.8748 10.6762C36.374 10.4123 36.237 9.87785 36.1009 9.38404C35.8796 8.58171 35.2968 8.22947 34.5703 8.11829C30.4991 7.49527 24.9862 10.8787 25.3991 15.6837C25.5149 17.0309 25.6855 17.2345 26.9833 17.0072C30.1097 16.4599 32.9214 15.3549 34.8467 12.6446C35.2768 12.0392 35.8698 11.9013 36.4491 12.3218C37.0407 12.7513 36.8259 13.3377 36.4869 13.8462C36.3176 14.1003 36.0995 14.3263 35.8815 14.5429C33.5744 16.8346 30.6474 17.6797 27.5409 18.0902C27.0265 18.1582 26.4768 18.076 26.0547 18.6092C26.349 19.8258 26.8811 20.949 27.7235 22.0793C30.0125 20.3978 32.5265 19.6968 35.2089 20.5763C37.8187 21.4321 39.8312 23.1013 40.9706 25.8839ZM15.9856 4.60063C15.6471 5.26604 15.2072 5.89967 14.9868 6.60216C13.7928 10.4067 14.8162 14.1179 18.0954 15.9056C19.0997 16.4531 19.6791 16.39 20.0779 15.2245C21.084 12.2844 21.6465 9.35256 20.2823 6.36712C19.9313 5.59898 20.0647 4.91582 20.8543 4.60978C21.6329 4.30798 21.9508 5.00036 22.1778 5.56724C22.5387 6.46806 22.7084 7.42126 22.7551 8.39552C22.8784 10.9687 22.1303 13.3513 21.1873 15.6949C21.0314 16.0822 20.6527 16.5937 21.1977 16.8625C22.2187 17.3661 23.3534 17.1842 24.439 17.098C24.9217 17.0597 24.9778 16.5837 24.878 16.155C24.6491 15.172 24.903 14.2229 25.1537 13.2999C25.9939 10.2072 29.3427 7.68404 32.6505 7.60319C33.4687 7.58319 34.2877 7.60021 35.1733 7.60021C33.439 2.82838 23.7446 -0.661732 19.2875 2.3384C19.2632 2.76907 19.9279 3.01468 19.5463 3.63201C18.4343 3.81818 16.9288 2.85258 15.9856 4.60063ZM14.9886 34.8016C17.4405 33.3645 18.6629 31.2579 18.6365 28.383C18.6266 27.2941 18.1812 26.8992 17.2006 27.1176C14.1591 27.795 11.2099 28.671 9.28292 31.4109C8.84933 32.0274 8.28576 32.3712 7.60838 31.9149C6.8543 31.4069 7.20293 30.7721 7.60725 30.1975C8.12228 29.4654 8.79897 28.9071 9.53369 28.4113C11.0898 27.3612 12.8246 26.7875 14.6377 26.3423C15.7264 26.075 16.9283 26.3881 17.9991 25.7047C17.5823 24.4229 17.2458 23.1678 16.2473 22.1148C13.8636 24.0106 11.2664 24.4384 8.48599 23.502C5.75306 22.5815 4.03413 20.5313 2.80722 17.9617C-0.297221 21.8357 1.14105 31.2243 6.25903 34.3964C6.62976 34.1794 6.51466 33.5274 7.08824 33.4655C7.51591 33.6073 7.6945 33.989 7.76316 34.3659C8.04144 35.8938 9.16972 36.1218 10.4189 36.131C11.9974 36.1428 13.4414 35.6305 14.9886 34.8016ZM9.19053 36.6533C8.52423 37.2694 9.2855 37.6126 9.52613 37.9193C11.7018 40.6915 14.6637 42.2219 18.07 42.7085C20.2961 43.0265 22.6179 43.1228 24.7125 42.0538C24.8489 41.4612 24.074 41.1928 24.3965 40.6383C24.7403 40.3349 25.1391 40.386 25.514 40.5234C26.7442 40.9745 27.4939 40.4134 28.1455 39.4213C29.2619 37.7217 29.545 35.8647 29.4738 33.8782C29.3865 31.4411 27.5444 28.7813 25.288 27.9447C24.724 27.7357 24.378 27.8211 24.1506 28.404C22.9545 31.4709 22.3133 34.5667 23.712 37.7451C24.0538 38.5218 24.011 39.1938 23.2032 39.4983C22.3751 39.8104 22.0593 39.1204 21.8006 38.4761C21.1207 36.7831 21.1775 35.0371 21.3943 33.2738C21.6433 31.2481 22.4573 29.3959 23.2657 27.4586C22.1156 26.9191 20.9543 26.9905 19.8461 26.8687C19.0964 26.7863 19.1252 27.3384 19.1646 27.9508C19.3352 30.5987 18.5611 32.867 16.419 34.5958C14.343 36.2713 11.9798 36.8371 9.19053 36.6533ZM27.423 23.8518C26.02 24.4427 25.6295 25.776 24.9143 26.9912C27.6059 28.3606 29.4863 30.1062 29.9862 33.1467C30.4616 36.0383 29.5912 38.4757 28.021 40.8276C33.5698 41.327 40.5311 35.0053 40.548 29.5748C40.1964 29.3027 39.654 29.7007 39.3536 29.2477C39.3066 28.8414 39.5194 28.5243 39.7679 28.3036C40.9269 27.2738 40.5762 26.2252 39.8979 25.1256C38.7191 23.2145 37.0706 21.8793 34.972 21.1219C32.8711 20.3636 30.9204 20.733 29.0779 21.9705C28.2491 22.5272 28.1973 23.029 28.8492 23.7654C30.9598 26.1498 33.2315 28.2364 36.6285 28.5148C37.3333 28.5726 37.8072 29.0071 37.7227 29.7365C37.6375 30.4724 37.0125 30.571 36.4072 30.4988C35.1727 30.3514 34.0056 29.9968 32.9439 29.3157C30.76 27.915 28.9805 26.1136 27.423 23.8518ZM14.1992 3.32519C8.30655 4.86708 3.75586 9.60503 3.3926 14.579C3.75249 14.9284 4.26392 14.4961 4.6543 14.8291C4.80471 15.483 4.31771 15.8683 3.96397 16.2843C3.56399 16.7547 3.38788 17.2085 3.56692 17.8463C4.84981 22.4164 10.786 24.7832 14.7829 22.3258C15.6819 21.7731 15.9744 21.2644 15.1513 20.3888C12.9873 18.0867 10.7684 15.9102 7.35174 15.6886C6.684 15.6453 6.29466 15.197 6.28433 14.5597C6.27181 13.787 6.85419 13.6891 7.48093 13.6832C8.43149 13.6742 9.29843 13.9516 10.1349 14.3717C12.4236 15.5213 14.2766 17.1702 15.7839 19.2317C16.0825 19.6401 16.2758 20.1761 16.9562 20.383C17.793 19.4346 18.6326 18.4696 19.0958 17.2281C12.6873 13.7936 12.8735 8.89494 15.8947 3.30307C15.2777 3.30307 14.8449 3.30307 14.1992 3.32519ZM17.8321 22.7745C18.1174 23.5579 18.3904 24.3461 18.6913 25.1235C19.0403 26.0253 23.3113 26.9266 24.0042 26.254C24.0355 26.2236 24.0594 26.1857 24.0888 26.1532C26.7837 23.1773 26.7644 23.1839 25.4857 19.4436C25.2245 18.6795 24.7975 18.3166 24.0245 18.1588C21.7122 17.6866 19.4517 17.2718 18.3073 20.14C18.2766 20.2167 18.2045 20.2879 18.1341 20.3361C17.225 20.9596 17.2251 21.7304 17.8321 22.7745Z" fill="#0A0A0A"/>
</svg>
