<svg width="24" height="24" viewBox="0 0 24 24" fill="none" xmlns="http://www.w3.org/2000/svg">
<g id="palette">
<path id="Icon" d="M12.0002 6.00002V6.03325M6.03313 12.0003H5.9999M16.2429 7.75757L16.2194 7.78107M7.78108 16.2194L7.75758 16.2429M7.78108 7.78069L7.75758 7.75719M11.9999 21.6C6.69797 21.6 2.3999 17.302 2.3999 12C2.3999 6.69809 6.69797 2.40002 11.9999 2.40002C17.3018 2.40002 21.5999 6.69809 21.5999 12C21.5999 13.6141 20.1085 14.688 18.4945 14.688H17.8679C17.5443 14.688 17.2252 14.7633 16.9359 14.908C15.9064 15.4228 15.4892 16.6746 16.0039 17.704C16.1486 17.9934 16.2239 18.3125 16.2239 18.636V18.8252C16.2239 19.9257 15.6063 20.968 14.5449 21.259C13.7344 21.4813 12.881 21.6 11.9999 21.6Z" stroke="#0A0A0A" stroke-width="2" stroke-linecap="round" stroke-linejoin="round"/>
</g>
</svg>
