<svg version="1.1" id="Layer_1" xmlns="http://www.w3.org/2000/svg" xmlns:xlink="http://www.w3.org/1999/xlink" x="0px" y="0px"
	 width="100%" viewBox="0 0 381 310" enable-background="new 0 0 381 310" xml:space="preserve">
<path fill="#111111" opacity="1.000000" stroke="none" 
	d="
M235.000000,311.000000 
	C156.666687,311.000000 78.833359,311.000000 1.000031,311.000000 
	C1.000021,207.666702 1.000021,104.333397 1.000010,1.000073 
	C127.999947,1.000049 254.999893,1.000049 381.999878,1.000024 
	C381.999939,104.333260 381.999939,207.666519 381.999969,310.999878 
	C333.166656,311.000000 284.333344,311.000000 235.000000,311.000000 
M292.909363,82.685287 
	C292.819611,82.653870 292.729889,82.622444 292.640137,82.591026 
	C292.731262,82.743080 292.822388,82.895126 293.162842,83.458015 
	C293.361755,83.718918 293.612274,83.913399 294.042358,84.655914 
	C294.655334,85.147903 295.268341,85.639885 295.956451,86.826454 
	C296.929016,87.920731 297.901611,89.014999 298.968445,90.784920 
	C299.566528,91.502838 300.164612,92.220764 300.762695,92.938683 
	C301.132812,92.525818 301.502960,92.112946 301.873077,91.700073 
	C300.950348,91.096069 300.027588,90.492065 299.037384,89.191872 
	C298.071625,88.086761 297.105896,86.981651 295.966370,85.273453 
	C295.324982,84.820679 294.683594,84.367912 293.794891,83.505180 
	C293.589050,83.252693 293.339172,83.056267 292.909363,82.685287 
M155.376114,225.768234 
	C155.368271,225.451248 155.360413,225.134277 155.352554,224.817291 
	C155.227219,225.205688 155.101868,225.594086 154.751892,226.096069 
	C154.751892,226.096069 154.745773,226.418274 154.745773,226.418274 
	C154.745773,226.418274 155.016846,226.022293 155.376114,225.768234 
M222.908432,199.681396 
	C222.817795,199.649979 222.727142,199.618561 222.636505,199.587158 
	C222.728836,199.739548 222.821182,199.891953 223.027802,200.585907 
	C223.338516,200.888489 223.649231,201.191071 223.959915,201.493652 
	C224.134293,201.292831 224.308670,201.092010 224.483063,200.891205 
	C224.002884,200.565948 223.522705,200.240677 222.908432,199.681396 
M187.998322,23.983519 
	C187.998322,23.983519 187.927902,24.016529 188.809845,23.642742 
	C192.898819,23.704603 196.987793,23.766464 201.909729,23.947613 
	C220.760773,25.911257 238.001831,32.031105 252.895523,43.995068 
	C260.040588,49.734642 266.271637,56.294262 269.041779,65.001495 
	C268.126038,65.430779 267.210266,65.860054 266.294525,66.289337 
	C267.229919,66.847031 268.165283,67.404724 269.829041,68.069099 
	C270.892517,69.976952 272.041901,71.842804 273.000183,73.802116 
	C274.591675,77.056114 276.060425,80.370163 277.887329,84.321815 
	C279.838318,80.125465 281.220337,77.206779 282.537231,74.258987 
	C282.722778,73.843567 282.739044,73.231750 282.582825,72.802071 
	C278.605804,61.864677 272.714966,52.271702 263.615234,44.730282 
	C245.467346,29.690237 224.664169,22.256830 200.247528,22.039349 
	C196.409958,22.104086 192.572372,22.168825 187.927612,22.180902 
	C187.348251,22.891518 186.768875,23.602133 186.550568,24.566088 
	C187.056747,24.361162 187.562927,24.156237 187.998322,23.983519 
M302.321350,202.066040 
	C301.932007,202.704208 301.542633,203.342361 301.153290,203.980515 
	C301.417633,204.121521 301.681976,204.262512 301.946320,204.403519 
	C302.317230,203.612381 302.688110,202.821259 303.484436,201.642624 
	C303.484436,200.935089 303.484436,200.227554 303.484436,199.520020 
	C303.244873,199.541031 303.005310,199.562042 302.765778,199.583054 
	C302.812897,200.360519 302.860016,201.137970 302.321350,202.066040 
M127.255562,162.856522 
	C126.356094,162.788864 125.456627,162.721207 124.557159,162.653549 
	C124.635735,163.098587 124.714302,163.543625 124.792877,163.988663 
	C125.899857,163.698273 127.006836,163.407883 128.631790,162.966995 
	C128.920364,162.655533 129.208954,162.344070 129.497543,162.032623 
	C129.300568,161.861328 129.103607,161.690048 128.906631,161.518753 
	C128.568710,161.977371 128.230774,162.435989 127.255562,162.856522 
M68.276253,104.094521 
	C67.822052,105.010567 67.367844,105.926613 66.913635,106.842659 
	C67.338234,107.004898 67.762825,107.167130 68.187416,107.329361 
	C68.480476,106.231071 68.773537,105.132782 69.425171,103.773270 
	C69.413116,103.438934 69.401070,103.104599 69.389023,102.770264 
	C69.226837,103.147697 69.064651,103.525131 68.276253,104.094521 
M146.054794,105.598343 
	C146.358536,105.895332 146.662292,106.192329 146.966034,106.489319 
	C147.136993,106.290573 147.307968,106.091827 147.478928,105.893074 
	C147.005356,105.576775 146.531799,105.260468 146.011734,104.278328 
	C145.544449,103.518494 145.077164,102.758652 144.609879,101.998817 
	C144.228958,102.326027 143.848038,102.653244 143.467117,102.980453 
	C144.288727,103.677216 145.110352,104.373978 146.054794,105.598343 
M69.495209,129.317596 
	C69.959770,130.462082 70.424339,131.606567 70.888901,132.751053 
	C71.289101,132.514603 71.689301,132.278137 72.089493,132.041687 
	C71.409111,131.036880 70.728729,130.032074 70.499390,128.523468 
	C70.223183,127.439400 69.946976,126.355331 69.377563,124.575951 
	C70.400002,122.415962 71.227585,120.133598 72.489655,118.124107 
	C74.478424,114.957565 76.759285,111.974480 78.916489,108.913719 
	C78.544769,108.544716 78.173050,108.175713 77.801338,107.806709 
	C74.090332,108.887077 69.431633,108.938538 66.885574,111.283653 
	C62.844135,115.006142 59.175873,119.849007 57.158001,124.935280 
	C45.468128,154.400940 49.926109,182.400803 66.309517,209.702972 
	C69.190598,213.494308 72.071678,217.285660 75.264496,221.700851 
	C76.486206,224.879211 77.740395,228.023315 82.061066,228.674438 
	C82.672676,229.358597 83.284279,230.042740 83.895889,230.726898 
	C84.197571,230.351700 84.499260,229.976517 84.800941,229.601318 
	C83.885048,229.050293 82.969154,228.499268 81.935822,227.272583 
	C79.664040,225.140610 77.392250,223.008636 75.037216,220.149872 
	C72.134819,216.098358 69.232422,212.046829 66.125290,207.255478 
	C65.710495,206.192245 65.336342,205.111038 64.874954,204.068436 
	C54.079559,179.674026 51.699402,155.064026 63.073246,130.146927 
	C64.111732,127.871857 65.633179,125.817245 67.642799,122.475594 
	C67.893494,124.647171 67.965706,125.272728 68.094574,126.513443 
	C68.678535,127.314911 69.262505,128.116379 69.495209,129.317596 
M228.252197,207.580231 
	C228.883041,208.493958 229.513870,209.407684 230.144714,210.321426 
	C230.425003,210.032455 230.705292,209.743484 230.985596,209.454529 
	C229.996948,208.630035 229.008316,207.805542 227.996155,206.308929 
	C227.541595,205.541550 227.087036,204.774170 226.632492,204.006790 
	C226.246887,204.343369 225.861298,204.679947 225.475693,205.016525 
	C226.312515,205.683838 227.149323,206.351135 228.252197,207.580231 
M216.776138,82.970016 
	C217.353867,82.294441 217.931595,81.618858 218.509323,80.943283 
	C218.137970,80.702957 217.766602,80.462624 217.395233,80.222282 
	C216.904053,81.132912 216.412888,82.043533 215.421753,83.224960 
	C214.930923,83.791023 214.440094,84.357086 213.272079,85.108040 
	C212.147781,87.370514 211.023468,89.632988 209.287216,92.040848 
	C208.620132,92.667320 207.953033,93.293793 207.285950,93.920273 
	C207.642548,94.224541 207.999130,94.528809 208.355728,94.833076 
	C208.938080,93.921661 209.520447,93.010254 210.658951,91.709778 
	C211.806946,89.506645 212.954941,87.303513 214.696594,84.945793 
	C215.174942,84.340393 215.653305,83.734985 216.776138,82.970016 
M108.089333,163.292374 
	C108.173851,163.327179 108.258362,163.361984 108.342880,163.396790 
	C108.250801,163.248688 108.158722,163.100601 107.889198,162.304718 
	C106.503487,161.716339 105.117767,161.127960 103.732048,160.539581 
	C103.591164,161.028427 103.450279,161.517288 103.309387,162.006134 
	C104.856857,162.360306 106.404320,162.714462 108.089333,163.292374 
M234.005035,236.020309 
	C234.005035,236.020309 234.090775,235.944992 234.612610,235.330017 
	C235.025421,230.975830 235.958786,226.538605 231.999390,222.775620 
	C231.999390,225.183746 231.999390,227.591873 231.999985,230.857056 
	C232.007309,232.571625 232.014648,234.286209 232.004150,236.677917 
	C232.152100,237.514359 232.300049,238.350784 232.448013,239.187225 
	C232.734039,239.186768 233.020081,239.186295 233.306122,239.185837 
	C233.510162,238.155365 233.714203,237.124893 234.005035,236.020309 
M149.374161,39.276459 
	C148.172867,40.996334 146.971573,42.716213 145.770294,44.436089 
	C146.374359,44.743469 146.978439,45.050850 147.582504,45.358231 
	C148.430252,43.282429 149.278000,41.206623 150.714676,38.979828 
	C151.167252,38.603363 151.619812,38.226898 152.986252,37.730358 
	C155.071075,37.786865 157.165619,37.735928 159.238632,37.923210 
	C163.050797,38.267624 166.850311,38.752224 171.508194,39.273945 
	C169.026154,35.253998 167.272079,32.370430 165.449554,29.530792 
	C165.277451,29.262646 164.682770,29.215208 164.271423,29.158499 
	C153.856659,27.722729 143.461731,27.168732 133.269409,30.497263 
	C111.266922,37.682686 94.473526,51.553993 81.273407,71.104065 
	C78.077858,76.959404 74.882317,82.814735 71.686775,88.670074 
	C72.206215,88.944412 72.725655,89.218750 73.245094,89.493088 
	C76.500671,83.664062 79.756248,77.835045 83.532494,71.589493 
	C90.676949,62.008186 99.371094,54.086079 109.552940,47.879795 
	C122.250099,40.140308 135.755707,35.023872 150.920258,36.769409 
	C150.596298,37.486431 150.272324,38.203453 149.374161,39.276459 
M222.459030,266.672272 
	C223.841797,264.444763 225.224564,262.217285 226.607330,259.989777 
	C226.189774,259.774048 225.772217,259.558319 225.354675,259.342590 
	C224.184647,261.683380 223.014633,264.024170 221.688828,266.961182 
	C221.332520,266.895172 220.976212,266.829132 220.414322,267.463104 
	C217.481735,270.272003 214.268356,270.303406 210.466858,269.207764 
	C207.242615,268.278503 203.721466,268.379333 200.331711,268.024323 
	C200.212936,268.538910 200.094177,269.053497 199.975418,269.568085 
	C201.589966,271.405029 203.343140,273.145721 204.728882,275.141510 
	C205.111221,275.692169 204.398422,277.003143 203.770340,278.174927 
	C203.713776,278.518982 203.657211,278.863037 203.600647,279.207092 
	C203.799530,279.015167 203.998413,278.823242 204.892471,278.287384 
	C206.858536,278.260773 208.824783,278.202942 210.790649,278.213318 
	C217.226181,278.247192 223.877380,279.394318 230.060028,278.168457 
	C258.268188,272.575531 278.007477,255.203201 292.657288,231.297989 
	C293.831299,229.382278 294.366730,227.075211 295.852600,224.823822 
	C296.970764,222.986603 298.088898,221.149368 299.207031,219.312149 
	C298.565369,218.965424 297.923706,218.618698 297.282043,218.271973 
	C296.178070,220.483200 295.074097,222.694443 293.739594,225.558029 
	C277.843628,254.173370 242.857376,275.274384 219.071793,270.460815 
	C219.570938,269.236206 220.058685,268.039520 221.203598,266.412598 
	C221.403671,266.580780 221.603745,266.748932 222.459030,266.672272 
M78.013985,143.648743 
	C78.334641,143.935654 78.655296,144.222549 78.975952,144.509460 
	C79.150902,144.309479 79.325851,144.109512 79.500809,143.909546 
	C79.039627,143.564178 78.578453,143.218811 78.039833,142.152863 
	C76.681549,139.982880 75.323257,137.812912 73.964973,135.642929 
	C73.381058,136.127090 72.797142,136.611252 72.213234,137.095428 
	C74.096367,139.104889 75.979507,141.114365 78.013985,143.648743 
M301.201050,182.796356 
	C300.636597,184.617264 300.445404,186.686722 299.431946,188.208618 
	C297.148438,191.637604 294.457886,194.795502 291.379852,198.779617 
	C299.291168,199.053299 304.924500,197.765564 308.332794,191.550262 
	C310.401672,187.777496 313.210999,184.311310 314.702881,180.337677 
	C324.840240,153.336853 320.673920,127.483574 307.807465,102.474121 
	C307.426086,101.732841 306.307831,101.370651 304.620117,100.196541 
	C312.660400,116.031227 315.790314,131.613785 315.139343,148.016678 
	C314.683289,159.507462 311.761414,170.297424 305.965363,180.240707 
	C305.437317,181.146576 303.978943,181.510178 302.961670,181.340271 
	C300.775299,173.075104 297.422455,165.586243 290.492828,160.697815 
	C294.002014,167.819519 297.525940,174.971161 301.201050,182.796356 
M177.106110,283.150909 
	C157.702484,283.876434 140.107437,278.259979 124.062813,267.645569 
	C114.687714,261.443481 106.751709,253.767334 101.949135,242.658432 
	C101.967094,242.171448 101.985054,241.684448 102.766998,241.152679 
	C103.147362,240.954193 103.527725,240.755707 103.908081,240.557220 
	C103.807793,240.435196 103.722801,240.224243 103.605011,240.203995 
	C99.285889,239.461243 98.902542,235.836014 97.723671,232.586441 
	C96.587509,229.454590 94.860580,226.537048 93.015305,222.749756 
	C91.114243,227.259689 89.739578,230.520844 87.871124,234.953415 
	C91.662773,241.116653 95.069786,248.906479 100.430374,254.968903 
	C120.972565,278.200714 147.873825,285.896881 178.838837,284.988037 
	C181.818314,284.653687 184.797775,284.319336 187.777252,283.985016 
	C187.737106,283.556091 187.696945,283.127167 187.656784,282.698242 
	C184.421265,282.894012 181.185730,283.089752 177.106110,283.150909 
M163.938354,118.372681 
	C163.741699,118.192345 163.545044,118.012009 163.348389,117.831665 
	C163.244583,118.254333 163.140778,118.677010 163.322144,119.757141 
	C165.495895,120.794052 167.669632,121.830956 170.601151,123.229324 
	C164.614609,131.421783 159.125183,138.933929 154.162811,145.724808 
	C145.341095,136.123032 137.628494,126.744919 128.873489,118.469673 
	C119.706497,109.805023 108.703590,103.921349 95.815002,102.505478 
	C92.405991,102.130981 89.027565,102.634064 89.170792,107.027534 
	C89.286705,110.583138 91.134880,112.910538 95.362236,113.183029 
	C120.472214,114.801575 135.142502,131.874176 149.843628,149.470276 
	C147.863205,151.332993 146.467224,152.646011 144.358505,154.064255 
	C141.138199,156.526062 136.365997,156.945084 134.143784,160.720718 
	C134.565979,161.252487 134.988174,161.784241 135.410370,162.316010 
	C138.620285,159.520660 141.830200,156.725327 145.785355,154.010452 
	C147.420517,153.423538 149.055679,152.836624 151.792938,151.854141 
	C155.611984,160.259506 159.505203,168.828079 163.394348,177.387726 
	C153.388916,179.070190 144.415787,179.996399 135.753357,182.164169 
	C120.490753,185.983597 106.645782,192.635239 96.604820,205.422546 
	C94.503700,208.098312 93.028946,211.102081 96.804581,213.511337 
	C100.114822,215.623657 102.988129,214.697601 105.399139,211.537094 
	C108.011215,208.112976 110.568588,204.529861 113.740646,201.671829 
	C123.910316,192.508865 136.459579,188.120270 149.484192,184.996353 
	C154.254837,183.852127 159.182938,183.364395 164.699097,182.470230 
	C165.072327,188.558945 165.390747,193.753479 165.709183,198.948013 
	C166.064133,198.938004 166.419098,198.927994 166.774063,198.917984 
	C166.774063,193.453384 166.774063,187.988800 166.774063,181.625061 
	C176.649887,182.687347 185.806763,183.672287 195.489944,184.713852 
	C194.610413,186.841812 194.182144,188.076447 193.607376,189.238647 
	C185.742004,205.142349 180.653046,221.785477 182.131165,239.686493 
	C182.652084,245.995285 184.904633,252.246857 187.079727,258.266876 
	C187.561691,259.600800 192.370697,261.001495 192.921875,260.375824 
	C194.601791,258.468750 196.747131,254.747620 195.930145,253.218353 
	C189.627502,241.420776 188.930603,229.060989 191.046631,216.303360 
	C192.730118,206.153473 195.182617,196.203613 200.259735,186.762939 
	C203.297134,187.936554 206.044144,188.997986 208.791153,190.059402 
	C208.972305,189.673416 209.153458,189.287430 209.334610,188.901428 
	C206.657471,187.374146 203.980347,185.846848 200.565628,183.898773 
	C206.154922,176.077957 211.692047,168.330124 217.098694,160.764862 
	C218.256500,161.282089 218.457108,161.305725 218.533051,161.415573 
	C219.572159,162.918442 220.601349,164.428314 221.619034,165.945801 
	C231.148407,180.155182 242.855240,192.142212 258.432953,199.542984 
	C264.148468,202.258377 270.689819,203.354996 276.962036,204.681641 
	C278.269531,204.958176 280.985443,203.279282 281.383759,201.987167 
	C281.908264,200.285828 281.330658,197.646408 280.205261,196.211716 
	C279.184509,194.910385 276.835419,194.213135 275.001892,194.053406 
	C250.352661,191.906158 235.628433,175.530655 221.343613,157.685730 
	C224.704224,154.860977 227.481812,152.526306 230.259399,150.191620 
	C230.025818,149.883514 229.792221,149.575424 229.558640,149.267334 
	C226.474731,151.240189 223.390839,153.213043 219.392212,155.771072 
	C215.392044,146.888489 211.563187,138.386307 207.847534,130.135483 
	C219.145630,127.962952 229.564301,126.632889 239.586884,123.867363 
	C253.098587,120.139091 265.100769,113.376091 274.076233,102.175209 
	C276.228638,99.489113 278.147888,96.503693 274.365021,93.559967 
	C271.457214,91.297157 268.203430,92.795921 265.165283,96.174217 
	C260.432312,101.437096 255.610291,106.890182 249.886917,110.933319 
	C239.397537,118.343292 227.107574,121.558914 214.495346,123.498924 
	C210.602890,124.097656 206.362747,126.150299 205.271393,120.031898 
	C204.686432,120.168694 204.387161,120.193108 204.381897,120.246559 
	C204.245224,121.630371 204.139145,123.017204 203.971085,125.109070 
	C194.589676,124.217705 185.325272,123.337448 175.309799,122.385834 
	C182.089050,108.831841 186.892532,95.945259 188.564087,82.105125 
	C189.855820,71.409630 189.670700,60.802906 185.059296,50.765743 
	C183.818909,48.065899 182.399734,44.982376 178.429214,46.498878 
	C174.951691,47.827084 174.031982,51.710636 175.605545,55.516930 
	C177.310272,59.640488 179.099655,63.844166 179.939697,68.189308 
	C182.916718,83.587776 179.471008,98.269028 174.146225,112.641754 
	C171.440994,119.943779 171.399719,119.928490 163.938354,118.372681 
M124.840012,240.338486 
	C118.560921,240.338486 112.281830,240.338486 106.002739,240.338486 
	C112.687225,243.827393 119.434891,243.078934 126.204689,241.188400 
	C125.979393,241.149719 125.744774,241.137619 125.532043,241.063049 
	C125.388733,241.012817 125.276337,240.874344 124.840012,240.338486 
M135.985443,77.276703 
	C136.132812,78.606033 136.280197,79.935364 136.427567,81.264694 
	C136.849045,81.242119 137.270523,81.219543 137.692001,81.196968 
	C138.111374,75.375145 138.530746,69.553322 138.950134,63.731499 
	C138.444885,63.695000 137.939651,63.658504 137.434418,63.622009 
	C136.950882,67.884270 136.467331,72.146538 135.985443,77.276703 
M206.016357,113.095108 
	C206.016357,111.461906 206.016357,109.828712 206.016357,107.914062 
	C201.956787,112.522575 201.956223,113.116196 205.880859,115.842979 
	C205.929764,115.120834 205.973541,114.474319 206.016357,113.095108 
M118.143417,165.012207 
	C119.010490,164.920532 119.877556,164.828857 121.328476,164.675461 
	C117.513321,163.639145 114.360077,162.782639 111.206841,161.926117 
	C111.081444,162.404526 110.956047,162.882919 110.830650,163.361328 
	C113.011490,163.911667 115.192322,164.462006 118.143417,165.012207 
M228.440002,253.045807 
	C228.000809,254.409668 227.561630,255.773529 227.122452,257.137390 
	C227.608795,257.298706 228.095154,257.459991 228.581512,257.621277 
	C229.496933,255.074417 230.412354,252.527542 231.327774,249.980682 
	C231.087219,249.825668 230.846664,249.670670 230.606094,249.515656 
	C229.981323,250.478363 229.356552,251.441071 228.440002,253.045807 
M135.048386,238.846451 
	C136.396301,238.179214 137.744217,237.511993 139.092148,236.844772 
	C138.658951,236.302399 138.225754,235.760040 137.792572,235.217667 
	C136.677078,236.352982 135.561584,237.488297 135.048386,238.846451 
M261.022552,66.767090 
	C262.076050,66.767090 263.129517,66.767090 264.183014,66.767090 
	C264.284485,66.333504 264.385956,65.899918 264.487427,65.466331 
	C263.194275,65.008583 261.901123,64.550827 260.607971,64.093071 
	C260.556091,64.859642 260.504242,65.626205 261.022552,66.767090 
M299.342102,215.553207 
	C299.873352,213.953995 300.404602,212.354767 300.935822,210.755554 
	C300.260925,210.655502 299.585999,210.555450 298.911072,210.455414 
	C298.911072,212.281387 298.911072,214.107376 299.342102,215.553207 
M138.784943,58.260983 
	C138.614059,59.211521 138.443176,60.162060 138.272293,61.112598 
	C138.644745,61.229221 139.017197,61.345848 139.389648,61.462471 
	C139.872879,60.111004 140.356125,58.759541 140.839355,57.408077 
	C140.218674,57.484016 139.597992,57.559959 138.784943,58.260983 
M301.864563,95.862900 
	C302.587097,96.784569 303.309662,97.706238 304.324036,99.000160 
	C304.295654,94.423126 304.211670,94.331139 301.864563,95.862900 
M162.825928,215.079712 
	C163.119354,213.953522 163.412781,212.827332 163.706207,211.701141 
	C163.047363,211.705185 162.388535,211.709213 161.729691,211.713242 
	C161.929337,212.963806 162.128983,214.214371 162.825928,215.079712 
M273.528503,148.541763 
	C273.268036,148.353577 273.019226,148.144119 272.739441,147.991241 
	C272.663879,147.949966 272.494598,148.080261 272.368347,148.131821 
	C273.552277,149.301804 274.736206,150.471786 275.920135,151.641769 
	C276.198059,151.230438 276.475983,150.819092 276.753906,150.407761 
	C275.850494,149.883896 274.947083,149.360031 273.528503,148.541763 
M180.214325,25.823238 
	C180.985474,25.482298 181.756638,25.141357 182.527786,24.800413 
	C182.130692,24.345610 181.733582,23.890806 181.336487,23.436016 
	C180.815308,24.104145 180.294128,24.772274 180.214325,25.823238 
M252.157181,64.381134 
	C251.534393,64.835510 250.911591,65.289886 250.288788,65.744255 
	C250.601700,66.064911 250.914627,66.385574 251.227539,66.706223 
	C251.692062,66.090378 252.156570,65.474533 252.157181,64.381134 
M142.670151,53.926514 
	C142.515076,53.080090 142.360016,52.233662 142.204941,51.387234 
	C141.666092,51.656887 141.127258,51.926537 140.588409,52.196186 
	C141.207413,52.950363 141.826416,53.704544 142.670151,53.926514 
M139.285492,88.297630 
	C138.604279,88.244156 137.923050,88.190674 137.241837,88.137192 
	C137.580948,88.767754 137.920044,89.398323 138.259155,90.028885 
	C138.727524,89.603508 139.195892,89.178123 139.285492,88.297630 
M91.098030,154.153412 
	C90.832634,154.165665 90.560387,154.149246 90.306580,154.209976 
	C90.241737,154.225510 90.160759,154.576599 90.213112,154.619370 
	C91.277534,155.488831 92.360298,156.335861 93.439392,157.187363 
	C93.638222,156.879837 93.837044,156.572296 94.035873,156.264771 
	C93.197220,155.688721 92.358566,155.112671 91.098030,154.153412 
M139.623398,96.186577 
	C140.196335,96.598885 140.769272,97.011200 141.342209,97.423508 
	C141.435913,96.859718 141.529602,96.295937 141.623306,95.732155 
	C140.879089,95.706001 140.134857,95.679848 139.623398,96.186577 
M234.430130,146.596848 
	C235.423431,146.596848 236.416718,146.596848 237.410019,146.596848 
	C237.365784,146.178772 237.321548,145.760696 237.277313,145.342606 
	C236.469528,145.621689 235.661743,145.900772 234.430130,146.596848 
M289.008911,77.698898 
	C288.489990,77.785164 287.971100,77.871422 287.452179,77.957687 
	C288.020142,78.781670 288.588104,79.605644 289.156097,80.429626 
	C289.416840,80.229675 289.677582,80.029724 289.938354,79.829773 
	C289.770630,79.261322 289.602905,78.692871 289.008911,77.698898 
M190.765976,283.811951 
	C191.058075,283.181030 191.350159,282.550140 191.642242,281.919220 
	C191.229858,281.860046 190.817490,281.800873 190.405106,281.741669 
	C190.332230,282.421112 190.259354,283.100525 190.765976,283.811951 
M165.735046,205.006790 
	C165.213303,205.227631 164.691544,205.448471 164.169800,205.669296 
	C164.521957,206.157074 164.874115,206.644852 165.226257,207.132645 
	C165.455063,206.613586 165.683853,206.094528 165.735046,205.006790 
M198.327301,279.142242 
	C198.039871,279.614838 197.752441,280.087433 197.464996,280.559998 
	C197.836136,280.767670 198.207260,280.975372 198.578400,281.183044 
	C198.671768,280.518738 198.765137,279.854401 198.327301,279.142242 
M264.267242,145.479416 
	C263.877899,144.919205 263.488525,144.358994 263.099152,143.798782 
	C262.883362,144.022400 262.667603,144.246017 262.451843,144.469635 
	C262.917542,144.916565 263.383240,145.363495 264.267242,145.479416 
M205.353729,101.670227 
	C205.630127,101.944481 205.906525,102.218742 206.182938,102.492996 
	C206.352661,101.996613 206.522385,101.500237 206.692108,101.003853 
	C206.312469,101.066658 205.932846,101.129463 205.353729,101.670227 
M69.973465,98.836250 
	C69.868011,99.342255 69.762558,99.848259 69.657104,100.354271 
	C69.927063,100.351463 70.429970,100.370110 70.432495,100.342674 
	C70.480385,99.822464 70.469215,99.296829 69.973465,98.836250 
M172.840683,25.455915 
	C172.821487,25.968266 172.779404,26.482357 172.818130,26.990290 
	C172.822052,27.041662 173.313522,27.055857 173.578751,27.087305 
	C173.504272,26.557201 173.429810,26.027096 172.840683,25.455915 
M244.541794,66.835190 
	C244.024002,66.815254 243.504410,66.771828 242.991119,66.810997 
	C242.938675,66.814995 242.924011,67.314262 242.891830,67.583702 
	C243.428024,67.507759 243.964218,67.431816 244.541794,66.835190 
M157.833313,115.710106 
	C157.343918,115.152115 156.854507,114.594124 156.365112,114.036140 
	C156.161621,114.243362 155.958130,114.450584 155.754623,114.657814 
	C156.348526,115.139786 156.942413,115.621765 157.833313,115.710106 
M149.822662,228.449463 
	C149.818451,228.805542 149.810608,229.161804 149.828598,229.516754 
	C149.829117,229.526749 150.105362,229.522781 150.253021,229.525314 
	C150.258652,229.168930 150.264282,228.812546 149.822662,228.449463 
M232.643433,244.299026 
	C232.988037,243.871597 233.337097,243.447433 233.661697,243.005310 
	C233.675217,242.986893 233.460220,242.800735 233.351669,242.692719 
	C233.005997,243.120407 232.660324,243.548096 232.643433,244.299026 
M195.765671,282.133057 
	C195.694138,281.711792 195.622604,281.290527 195.551071,280.869263 
	C195.323532,281.053711 194.879288,281.290009 194.908707,281.412933 
	C195.000549,281.796906 195.271423,282.138062 195.765671,282.133057 
M146.548462,231.823074 
	C146.189301,231.817780 145.830124,231.812500 145.470978,231.807205 
	C145.469330,231.956268 145.457153,232.234787 145.467545,232.235626 
	C145.825272,232.264725 146.185120,232.267563 146.548462,231.823074 
M211.948654,191.602234 
	C211.921753,191.008728 211.894852,190.415237 211.867950,189.821732 
	C211.615662,189.860306 211.363373,189.898880 211.111069,189.937439 
	C211.240753,190.449997 211.370422,190.962555 211.948654,191.602234 
M218.557083,194.816483 
	C218.196869,194.811829 217.836487,194.803864 217.477356,194.821350 
	C217.468170,194.821808 217.462265,195.231598 217.472137,195.232376 
	C217.830566,195.260834 218.191086,195.263351 218.557083,194.816483 
M141.311172,234.716537 
	C140.915298,234.918228 140.490494,235.083206 140.148224,235.352905 
	C140.080688,235.406113 140.330917,235.862610 140.434586,236.133102 
	C140.718262,235.814224 141.001953,235.495361 141.311172,234.716537 
M157.813995,220.444778 
	C157.809143,220.804230 157.804276,221.163696 157.799423,221.523148 
	C157.948563,221.524887 158.227264,221.537018 158.228073,221.526825 
	C158.256775,221.169434 158.259369,220.809952 157.813995,220.444778 
M300.486938,207.729248 
	C300.733246,207.988571 300.977295,208.250320 301.238586,208.493561 
	C301.245361,208.499863 301.440857,208.303467 301.548340,208.201599 
	C301.301758,207.942230 301.055145,207.682877 300.486938,207.729248 
M231.484497,246.728348 
	C231.731949,246.988785 231.977112,247.251678 232.239594,247.495941 
	C232.246414,247.502274 232.442719,247.304977 232.550644,247.202652 
	C232.302917,246.942184 232.055206,246.681717 231.484497,246.728348 
M152.444427,112.190155 
	C152.805206,112.194923 153.166000,112.199692 153.526779,112.204460 
	C153.528580,112.054733 153.540756,111.774879 153.530685,111.774078 
	C153.172211,111.745491 152.811676,111.743011 152.444427,112.190155 
M242.909653,143.798660 
	C242.714478,144.193222 242.519287,144.587784 242.324127,144.982346 
	C242.583511,145.054092 242.842911,145.125839 243.102280,145.197601 
	C243.187820,144.694489 243.273361,144.191391 242.909653,143.798660 
M240.194946,145.554138 
	C240.199982,145.195206 240.205002,144.836258 240.210037,144.477310 
	C240.061310,144.475830 239.783417,144.463852 239.782562,144.474396 
	C239.753586,144.830536 239.750992,145.188812 240.194946,145.554138 
M143.588028,99.997322 
	C143.090866,99.685013 142.593689,99.372704 142.096527,99.060394 
	C141.984512,99.277466 141.872513,99.494545 141.760513,99.711617 
	C142.267166,99.918098 142.773819,100.124580 143.588028,99.997322 
M220.814713,77.441895 
	C220.809860,77.803268 220.805008,78.164650 220.800156,78.526024 
	C220.949936,78.527733 221.229858,78.539864 221.230682,78.529655 
	C221.259476,78.170166 221.262039,77.808586 220.814713,77.441895 
M257.744263,144.166428 
	C257.153534,144.166428 256.562805,144.166428 255.972076,144.166428 
	C255.992432,144.403793 256.012817,144.641174 256.033173,144.878540 
	C256.698639,144.768112 257.364136,144.657684 257.744263,144.166428 
M71.820671,92.450775 
	C71.815971,92.806076 71.807976,93.161537 71.825089,93.515785 
	C71.825523,93.524872 72.229416,93.530853 72.230186,93.521179 
	C72.258324,93.167603 72.260941,92.811989 71.820671,92.450775 
M167.153870,28.776466 
	C167.528915,28.572245 167.926620,28.396591 168.256332,28.135178 
	C168.310150,28.092505 168.063766,27.671230 167.956131,27.424944 
	C167.677536,27.724960 167.398941,28.024977 167.153870,28.776466 
M96.303047,158.336639 
	C96.118523,157.812347 95.933998,157.288055 95.749481,156.763763 
	C95.527481,156.863968 95.305489,156.964172 95.083488,157.064377 
	C95.368164,157.578934 95.652832,158.093491 96.303047,158.336639 
M86.527489,151.281448 
	C86.275360,151.016266 86.023239,150.751083 85.771118,150.485916 
	C85.661667,150.590591 85.451065,150.780197 85.457359,150.787689 
	C85.692200,151.067413 85.947060,151.330307 86.527489,151.281448 
M282.127502,153.410782 
	C281.802429,153.349625 281.477386,153.288452 281.152313,153.227295 
	C281.281097,153.647964 281.409912,154.068634 281.538727,154.489288 
	C281.795105,154.272171 282.051483,154.055038 282.127502,153.410782 
M159.744659,218.003571 
	C159.992569,218.157318 160.240463,218.311066 160.488373,218.464798 
	C160.332413,218.217804 160.176437,217.970810 159.744659,218.003571 
M224.468964,76.133049 
	C224.539047,75.747551 224.609131,75.362053 224.679199,74.976555 
	C224.512039,75.270721 224.344879,75.564888 224.468964,76.133049 
M235.808411,69.108932 
	C235.593704,69.154053 235.379013,69.199165 235.164307,69.244286 
	C235.241348,69.518097 235.318375,69.791916 235.395416,70.065720 
	C235.559525,69.878761 235.723633,69.691803 235.808411,69.108932 
M207.100586,97.529274 
	C207.272049,97.712036 207.443512,97.894798 207.614960,98.077568 
	C207.688599,97.800392 207.762222,97.523224 207.835861,97.246056 
	C207.615601,97.207443 207.395355,97.168831 207.100586,97.529274 
M130.790390,239.912308 
	C130.650513,239.593246 130.510651,239.274170 130.370773,238.955109 
	C130.399582,239.347900 130.428391,239.740677 130.790390,239.912308 
M71.436119,95.680809 
	C71.225433,95.962524 71.014740,96.244247 70.804054,96.525970 
	C71.097137,96.344917 71.390228,96.163872 71.436119,95.680809 
M139.099564,92.188026 
	C139.145050,92.405518 139.190536,92.623016 139.236023,92.840508 
	C139.512024,92.762634 139.788010,92.684753 140.064011,92.606880 
	C139.875702,92.440201 139.687378,92.273514 139.099564,92.188026 
M138.187958,84.901016 
	C138.405319,84.855629 138.622665,84.810234 138.840027,84.764839 
	C138.761963,84.489006 138.683899,84.213181 138.605835,83.937340 
	C138.439423,84.125511 138.273010,84.313675 138.187958,84.901016 
M201.809616,279.096008 
	C201.594070,279.141266 201.378510,279.186493 201.162964,279.231720 
	C201.240280,279.506897 201.317581,279.782043 201.394882,280.057220 
	C201.559677,279.869507 201.724472,279.681763 201.809616,279.096008 
M159.189255,116.909981 
	C159.405594,116.864532 159.621948,116.819084 159.838287,116.773636 
	C159.760696,116.496925 159.683105,116.220215 159.605515,115.943497 
	C159.440186,116.132278 159.274857,116.321060 159.189255,116.909981 
M246.516312,144.900360 
	C246.699646,144.728378 246.882965,144.556412 247.066299,144.384430 
	C246.787857,144.310837 246.509430,144.237244 246.231003,144.163666 
	C246.192413,144.384399 246.153824,144.605148 246.516312,144.900360 
M166.619675,202.362198 
	C166.504410,202.138443 166.389160,201.914673 166.273895,201.690918 
	C166.072754,201.887283 165.871613,202.083649 165.670471,202.279999 
	C165.891205,202.401489 166.111923,202.522964 166.619675,202.362198 
M266.187195,145.902206 
	C266.405060,145.856720 266.622955,145.811249 266.840820,145.765762 
	C266.762573,145.489365 266.684296,145.212982 266.606049,144.936569 
	C266.439209,145.125107 266.272400,145.313644 266.187195,145.902206 
M268.188904,146.890381 
	C268.405457,146.844788 268.622040,146.799194 268.838593,146.753601 
	C268.760895,146.476868 268.683167,146.200150 268.605438,145.923431 
	C268.440033,146.112488 268.274628,146.301529 268.188904,146.890381 
M215.318176,193.435562 
	C215.037201,193.225464 214.756226,193.015366 214.475250,192.805267 
	C214.655838,193.097534 214.836426,193.389786 215.318176,193.435562 
M232.792374,148.918350 
	C232.650085,148.596603 232.507812,148.274841 232.365524,147.953094 
	C232.395264,148.349060 232.425018,148.745010 232.792374,148.918350 
M278.186798,151.902084 
	C278.405151,151.856506 278.623535,151.810913 278.841888,151.765335 
	C278.763367,151.488190 278.684845,151.211044 278.606323,150.933899 
	C278.439209,151.122971 278.272095,151.312027 278.186798,151.902084 
M285.197571,156.074448 
	C285.344116,156.402634 285.490692,156.730820 285.637268,157.058990 
	C285.605438,156.655090 285.573639,156.251190 285.197571,156.074448 
M142.853973,49.283649 
	C142.944275,49.283276 143.034592,49.282902 142.853973,49.283649 
M143.299454,233.844955 
	C143.377777,233.796951 143.456100,233.748947 143.299454,233.844955 
M150.719009,108.852287 
	C150.599640,108.961998 150.480255,109.071709 150.360886,109.181419 
	C150.480865,109.163239 150.600861,109.145058 150.719009,108.852287 
M71.840416,134.707886 
	C71.921249,134.563828 72.002083,134.419769 72.082916,134.275711 
	C71.951721,134.338120 71.820526,134.400528 71.840416,134.707886 
M232.704788,216.158920 
	C232.624466,216.208420 232.544128,216.257919 232.704788,216.158920 
M231.275482,213.151062 
	C231.396881,213.039108 231.518280,212.927139 231.639679,212.815201 
	C231.517929,212.834045 231.396179,212.852890 231.275482,213.151062 
M84.562447,148.515060 
	C84.562447,148.515060 84.478027,148.560455 84.562447,148.515060 
M240.486603,68.567764 
	C240.486603,68.567764 240.438263,68.479263 240.486603,68.567764 
M230.485626,72.570053 
	C230.485626,72.570053 230.435272,72.478981 230.485626,72.570053 
z"/>
<path fill="#F6F6F6" opacity="1.000000" stroke="none" 
	d="
M145.071243,153.959030 
	C146.467224,152.646011 147.863205,151.332993 149.843628,149.470276 
	C135.142502,131.874176 120.472214,114.801575 95.362236,113.183029 
	C91.134880,112.910538 89.286705,110.583138 89.170792,107.027534 
	C89.027565,102.634064 92.405991,102.130981 95.815002,102.505478 
	C108.703590,103.921349 119.706497,109.805023 128.873489,118.469673 
	C137.628494,126.744919 145.341095,136.123032 154.162811,145.724808 
	C159.125183,138.933929 164.614609,131.421783 170.601151,123.229324 
	C167.669632,121.830956 165.495895,120.794052 163.423233,119.367218 
	C163.683594,118.925438 163.842865,118.873581 164.002136,118.821716 
	C171.399719,119.928490 171.440994,119.943779 174.146225,112.641754 
	C179.471008,98.269028 182.916718,83.587776 179.939697,68.189308 
	C179.099655,63.844166 177.310272,59.640488 175.605545,55.516930 
	C174.031982,51.710636 174.951691,47.827084 178.429214,46.498878 
	C182.399734,44.982376 183.818909,48.065899 185.059296,50.765743 
	C189.670700,60.802906 189.855820,71.409630 188.564087,82.105125 
	C186.892532,95.945259 182.089050,108.831841 175.309799,122.385834 
	C185.325272,123.337448 194.589676,124.217705 203.971085,125.109070 
	C204.139145,123.017204 204.245224,121.630371 204.381897,120.246559 
	C204.387161,120.193108 204.686432,120.168694 205.271393,120.031898 
	C206.362747,126.150299 210.602890,124.097656 214.495346,123.498924 
	C227.107574,121.558914 239.397537,118.343292 249.886917,110.933319 
	C255.610291,106.890182 260.432312,101.437096 265.165283,96.174217 
	C268.203430,92.795921 271.457214,91.297157 274.365021,93.559967 
	C278.147888,96.503693 276.228638,99.489113 274.076233,102.175209 
	C265.100769,113.376091 253.098587,120.139091 239.586884,123.867363 
	C229.564301,126.632889 219.145630,127.962952 207.847534,130.135483 
	C211.563187,138.386307 215.392044,146.888489 219.392212,155.771072 
	C223.390839,153.213043 226.474731,151.240189 229.558640,149.267334 
	C229.792221,149.575424 230.025818,149.883514 230.259399,150.191620 
	C227.481812,152.526306 224.704224,154.860977 221.343613,157.685730 
	C235.628433,175.530655 250.352661,191.906158 275.001892,194.053406 
	C276.835419,194.213135 279.184509,194.910385 280.205261,196.211716 
	C281.330658,197.646408 281.908264,200.285828 281.383759,201.987167 
	C280.985443,203.279282 278.269531,204.958176 276.962036,204.681641 
	C270.689819,203.354996 264.148468,202.258377 258.432953,199.542984 
	C242.855240,192.142212 231.148407,180.155182 221.619034,165.945801 
	C220.601349,164.428314 219.572159,162.918442 218.533051,161.415573 
	C218.457108,161.305725 218.256500,161.282089 217.098694,160.764862 
	C211.692047,168.330124 206.154922,176.077957 200.565628,183.898773 
	C203.980347,185.846848 206.657471,187.374146 209.334610,188.901428 
	C209.153458,189.287430 208.972305,189.673416 208.791153,190.059402 
	C206.044144,188.997986 203.297134,187.936554 200.259735,186.762939 
	C195.182617,196.203613 192.730118,206.153473 191.046631,216.303360 
	C188.930603,229.060989 189.627502,241.420776 195.930145,253.218353 
	C196.747131,254.747620 194.601791,258.468750 192.921875,260.375824 
	C192.370697,261.001495 187.561691,259.600800 187.079727,258.266876 
	C184.904633,252.246857 182.652084,245.995285 182.131165,239.686493 
	C180.653046,221.785477 185.742004,205.142349 193.607376,189.238647 
	C194.182144,188.076447 194.610413,186.841812 195.489944,184.713852 
	C185.806763,183.672287 176.649887,182.687347 166.774063,181.625061 
	C166.774063,187.988800 166.774063,193.453384 166.774063,198.917984 
	C166.419098,198.927994 166.064133,198.938004 165.709183,198.948013 
	C165.390747,193.753479 165.072327,188.558945 164.699097,182.470230 
	C159.182938,183.364395 154.254837,183.852127 149.484192,184.996353 
	C136.459579,188.120270 123.910316,192.508865 113.740646,201.671829 
	C110.568588,204.529861 108.011215,208.112976 105.399139,211.537094 
	C102.988129,214.697601 100.114822,215.623657 96.804581,213.511337 
	C93.028946,211.102081 94.503700,208.098312 96.604820,205.422546 
	C106.645782,192.635239 120.490753,185.983597 135.753357,182.164169 
	C144.415787,179.996399 153.388916,179.070190 163.394348,177.387726 
	C159.505203,168.828079 155.611984,160.259506 151.792938,151.854141 
	C149.055679,152.836624 147.420517,153.423538 145.396393,154.003357 
	C145.007416,153.996262 145.071243,153.959030 145.071243,153.959030 
M197.335907,182.088303 
	C203.582108,174.139893 209.828308,166.191483 216.090164,158.223145 
	C212.525040,148.916367 208.764130,139.098557 205.088501,129.503326 
	C194.859436,127.918785 184.559891,126.323326 173.902267,124.672394 
	C170.943039,128.636139 167.696777,133.234146 164.181671,137.616562 
	C161.170731,141.370377 155.918457,144.542953 155.218994,148.588379 
	C154.534607,152.546768 158.350540,157.284073 160.195190,161.677750 
	C160.387726,162.136307 160.647842,162.569504 160.809158,163.037689 
	C162.523804,168.014526 162.844803,174.722778 166.313965,177.495361 
	C169.851456,180.322586 176.496155,179.174820 181.750549,179.966049 
	C186.788193,180.724655 191.787445,181.738205 197.335907,182.088303 
z"/>
<path fill="#F4F4F4" opacity="1.000000" stroke="none" 
	d="
M204.188110,277.965271 
	C204.398422,277.003143 205.111221,275.692169 204.728882,275.141510 
	C203.343140,273.145721 201.589966,271.405029 199.975418,269.568085 
	C200.094177,269.053497 200.212936,268.538910 200.331711,268.024323 
	C203.721466,268.379333 207.242615,268.278503 210.466858,269.207764 
	C214.268356,270.303406 217.481735,270.272003 220.525314,267.159729 
	C220.636307,266.856384 220.546432,266.842834 220.546432,266.842834 
	C220.058685,268.039520 219.570938,269.236206 219.071793,270.460815 
	C242.857376,275.274384 277.843628,254.173370 294.163452,225.203644 
	C294.791168,224.882812 294.995026,224.916397 295.198883,224.949997 
	C294.366730,227.075211 293.831299,229.382278 292.657288,231.297989 
	C278.007477,255.203201 258.268188,272.575531 230.060028,278.168457 
	C223.877380,279.394318 217.226181,278.247192 210.790649,278.213318 
	C208.824783,278.202942 206.858536,278.260773 204.674149,278.291016 
	C204.455826,278.294678 204.188126,277.965271 204.188110,277.965271 
z"/>
<path fill="#F4F4F4" opacity="1.000000" stroke="none" 
	d="
M101.861000,243.384766 
	C106.751709,253.767334 114.687714,261.443481 124.062813,267.645569 
	C140.107437,278.259979 157.702484,283.876434 177.505646,283.476593 
	C177.926834,284.147247 177.948486,284.492249 177.970154,284.837219 
	C147.873825,285.896881 120.972565,278.200714 100.430374,254.968903 
	C95.069786,248.906479 91.662773,241.116653 87.871124,234.953415 
	C89.739578,230.520844 91.114243,227.259689 93.015305,222.749756 
	C94.860580,226.537048 96.587509,229.454590 97.723671,232.586441 
	C98.902542,235.836014 99.285889,239.461243 103.605011,240.203995 
	C103.722801,240.224243 103.807793,240.435196 103.908089,240.557220 
	C103.527725,240.755707 103.147362,240.954193 102.044266,241.126343 
	C101.501350,241.861588 101.681175,242.623169 101.861000,243.384766 
z"/>
<path fill="#F5F5F5" opacity="1.000000" stroke="none" 
	d="
M269.783417,64.996506 
	C266.271637,56.294262 260.040588,49.734642 252.895523,43.995068 
	C238.001831,32.031105 220.760773,25.911257 201.535858,23.638807 
	C201.151886,23.001047 201.141800,22.672091 201.131714,22.343136 
	C224.664169,22.256830 245.467346,29.690237 263.615234,44.730282 
	C272.714966,52.271702 278.605804,61.864677 282.582825,72.802071 
	C282.739044,73.231750 282.722778,73.843567 282.537231,74.258987 
	C281.220337,77.206779 279.838318,80.125465 277.887329,84.321815 
	C276.060425,80.370163 274.591675,77.056114 273.000183,73.802116 
	C272.041901,71.842804 270.892517,69.976952 269.411224,67.692108 
	C269.256744,66.542244 269.520081,65.769371 269.783417,64.996506 
z"/>
<path fill="#F5F5F5" opacity="1.000000" stroke="none" 
	d="
M66.021103,209.061661 
	C49.926109,182.400803 45.468128,154.400940 57.158001,124.935280 
	C59.175873,119.849007 62.844135,115.006142 66.885574,111.283653 
	C69.431633,108.938538 74.090332,108.887077 77.801338,107.806709 
	C78.173050,108.175713 78.544769,108.544716 78.916489,108.913719 
	C76.759285,111.974480 74.478424,114.957565 72.489655,118.124107 
	C71.227585,120.133598 70.400002,122.415962 69.282074,125.109070 
	C68.803696,125.727562 68.420807,125.812920 68.037918,125.898277 
	C67.965706,125.272728 67.893494,124.647171 67.642799,122.475594 
	C65.633179,125.817245 64.111732,127.871857 63.073246,130.146927 
	C51.699402,155.064026 54.079559,179.674026 64.874954,204.068436 
	C65.336342,205.111038 65.710495,206.192245 66.142639,207.889725 
	C66.113693,208.703201 66.067398,208.882431 66.021103,209.061661 
z"/>
<path fill="#F4F4F4" opacity="1.000000" stroke="none" 
	d="
M302.952576,182.125595 
	C303.978943,181.510178 305.437317,181.146576 305.965363,180.240707 
	C311.761414,170.297424 314.683289,159.507462 315.139343,148.016678 
	C315.790314,131.613785 312.660400,116.031227 304.620117,100.196541 
	C306.307831,101.370651 307.426086,101.732841 307.807465,102.474121 
	C320.673920,127.483574 324.840240,153.336853 314.702881,180.337677 
	C313.210999,184.311310 310.401672,187.777496 308.332794,191.550262 
	C304.924500,197.765564 299.291168,199.053299 291.379852,198.779617 
	C294.457886,194.795502 297.148438,191.637604 299.431946,188.208618 
	C300.445404,186.686722 300.636597,184.617264 301.441345,182.409988 
	C302.105316,182.057617 302.528931,182.091614 302.952576,182.125595 
z"/>
<path fill="#F4F4F4" opacity="1.000000" stroke="none" 
	d="
M81.866859,70.754135 
	C94.473526,51.553993 111.266922,37.682686 133.269409,30.497263 
	C143.461731,27.168732 153.856659,27.722729 164.271423,29.158499 
	C164.682770,29.215208 165.277451,29.262646 165.449554,29.530792 
	C167.272079,32.370430 169.026154,35.253998 171.508194,39.273945 
	C166.850311,38.752224 163.050797,38.267624 159.238632,37.923210 
	C157.165619,37.735928 155.071075,37.786865 152.622528,37.462997 
	C151.838135,36.857471 151.417435,36.519306 150.996750,36.181145 
	C135.755707,35.023872 122.250099,40.140308 109.552940,47.879795 
	C99.371094,54.086079 90.676949,62.008186 83.021889,71.651215 
	C82.296471,71.393333 82.081665,71.073738 81.866859,70.754135 
z"/>
<path fill="#141414" opacity="1.000000" stroke="none" 
	d="
M302.957123,181.732941 
	C302.528931,182.091614 302.105316,182.057617 301.365784,182.073212 
	C297.525940,174.971161 294.002014,167.819519 290.492828,160.697815 
	C297.422455,165.586243 300.775299,173.075104 302.957123,181.732941 
z"/>
<path fill="#D9D9D9" opacity="1.000000" stroke="none" 
	d="
M81.570129,70.929100 
	C82.081665,71.073738 82.296471,71.393333 82.761551,71.859482 
	C79.756248,77.835045 76.500671,83.664062 73.245094,89.493088 
	C72.725655,89.218750 72.206215,88.944412 71.686775,88.670074 
	C74.882317,82.814735 78.077858,76.959404 81.570129,70.929100 
z"/>
<path fill="#BDBDBD" opacity="1.000000" stroke="none" 
	d="
M124.995056,240.556915 
	C125.276337,240.874344 125.388733,241.012817 125.532043,241.063049 
	C125.744774,241.137619 125.979393,241.149719 126.204689,241.188400 
	C119.434891,243.078934 112.687225,243.827393 106.002739,240.338486 
	C112.281830,240.338486 118.560921,240.338486 124.995056,240.556915 
z"/>
<path fill="#141414" opacity="1.000000" stroke="none" 
	d="
M135.984619,76.842751 
	C136.467331,72.146538 136.950882,67.884270 137.434418,63.622009 
	C137.939651,63.658504 138.444885,63.695000 138.950134,63.731499 
	C138.530746,69.553322 138.111374,75.375145 137.692001,81.196968 
	C137.270523,81.219543 136.849045,81.242119 136.427567,81.264694 
	C136.280197,79.935364 136.132812,78.606033 135.984619,76.842751 
z"/>
<path fill="#131313" opacity="1.000000" stroke="none" 
	d="
M66.165314,209.382324 
	C66.067398,208.882431 66.113693,208.703201 66.245010,208.259644 
	C69.232422,212.046829 72.134819,216.098358 75.035156,220.561874 
	C75.033089,220.973877 74.952766,221.076996 74.952766,221.076996 
	C72.071678,217.285660 69.190598,213.494308 66.165314,209.382324 
z"/>
<path fill="#141414" opacity="1.000000" stroke="none" 
	d="
M145.023773,153.963135 
	C141.830200,156.725327 138.620285,159.520660 135.410370,162.316010 
	C134.988174,161.784241 134.565979,161.252487 134.143784,160.720718 
	C136.365997,156.945084 141.138199,156.526062 144.714874,154.011642 
	C145.071243,153.959030 145.007416,153.996262 145.023773,153.963135 
z"/>
<path fill="#131313" opacity="1.000000" stroke="none" 
	d="
M231.999390,230.000000 
	C231.999390,227.591873 231.999390,225.183746 231.999390,222.775620 
	C235.958786,226.538605 235.025421,230.975830 234.322556,235.235870 
	C233.354797,233.427811 232.677094,231.713898 231.999390,230.000000 
z"/>
<path fill="#ADADAD" opacity="1.000000" stroke="none" 
	d="
M200.689621,22.191242 
	C201.141800,22.672091 201.151886,23.001047 201.119370,23.579163 
	C196.987793,23.766464 192.898819,23.704603 188.649384,23.619307 
	C188.570877,23.141768 188.652847,22.687666 188.734802,22.233562 
	C192.572372,22.168825 196.409958,22.104086 200.689621,22.191242 
z"/>
<path fill="#131313" opacity="1.000000" stroke="none" 
	d="
M75.076782,220.925262 
	C77.392250,223.008636 79.664040,225.140610 81.969696,227.634827 
	C82.003563,227.997055 81.954689,228.046707 81.954689,228.046707 
	C77.740395,228.023315 76.486206,224.879211 75.108627,221.388916 
	C74.952766,221.076996 75.033089,220.973877 75.076782,220.925262 
z"/>
<path fill="#141414" opacity="1.000000" stroke="none" 
	d="
M206.016846,113.461456 
	C205.973541,114.474319 205.929764,115.120834 205.880859,115.842979 
	C201.956223,113.116196 201.956787,112.522575 206.016357,107.914062 
	C206.016357,109.828712 206.016357,111.461906 206.016846,113.461456 
z"/>
<path fill="#141414" opacity="1.000000" stroke="none" 
	d="
M77.862648,143.123825 
	C75.979507,141.114365 74.096367,139.104889 72.213234,137.095428 
	C72.797142,136.611252 73.381058,136.127090 73.964973,135.642929 
	C75.323257,137.812912 76.681549,139.982880 78.015778,142.576630 
	C77.991714,143.000412 77.862648,143.123825 77.862648,143.123825 
z"/>
<path fill="#131313" opacity="1.000000" stroke="none" 
	d="
M295.525757,224.886902 
	C294.995026,224.916397 294.791168,224.882812 294.278748,224.877472 
	C295.074097,222.694443 296.178070,220.483200 297.282043,218.271973 
	C297.923706,218.618698 298.565369,218.965424 299.207031,219.312149 
	C298.088898,221.149368 296.970764,222.986603 295.525757,224.886902 
z"/>
<path fill="#D3D3D3" opacity="1.000000" stroke="none" 
	d="
M178.404480,284.912628 
	C177.948486,284.492249 177.926834,284.147247 177.927689,283.543884 
	C181.185730,283.089752 184.421265,282.894012 187.656784,282.698242 
	C187.696945,283.127167 187.737106,283.556091 187.777252,283.985016 
	C184.797775,284.319336 181.818314,284.653687 178.404480,284.912628 
z"/>
<path fill="#141414" opacity="1.000000" stroke="none" 
	d="
M117.758286,165.012268 
	C115.192322,164.462006 113.011490,163.911667 110.830650,163.361328 
	C110.956047,162.882919 111.081444,162.404526 111.206841,161.926117 
	C114.360077,162.782639 117.513321,163.639145 121.328476,164.675461 
	C119.877556,164.828857 119.010490,164.920532 117.758286,165.012268 
z"/>
<path fill="#131313" opacity="1.000000" stroke="none" 
	d="
M228.585892,252.724792 
	C229.356552,251.441071 229.981323,250.478363 230.606094,249.515656 
	C230.846664,249.670670 231.087219,249.825668 231.327774,249.980682 
	C230.412354,252.527542 229.496933,255.074417 228.581512,257.621277 
	C228.095154,257.459991 227.608795,257.298706 227.122452,257.137390 
	C227.561630,255.773529 228.000809,254.409668 228.585892,252.724792 
z"/>
<path fill="#141414" opacity="1.000000" stroke="none" 
	d="
M214.102936,85.100388 
	C212.954941,87.303513 211.806946,89.506645 210.329651,91.853783 
	C210.000351,91.997787 209.899170,91.895462 209.899170,91.895462 
	C211.023468,89.632988 212.147781,87.370514 213.647232,85.061508 
	C214.022385,85.014977 214.102936,85.100388 214.102936,85.100388 
z"/>
<path fill="#131313" opacity="1.000000" stroke="none" 
	d="
M134.747223,238.735046 
	C135.561584,237.488297 136.677078,236.352982 137.792572,235.217667 
	C138.225754,235.760040 138.658951,236.302399 139.092148,236.844772 
	C137.744217,237.511993 136.396301,238.179214 134.747223,238.735046 
z"/>
<path fill="#131313" opacity="1.000000" stroke="none" 
	d="
M221.844604,266.364960 
	C223.014633,264.024170 224.184647,261.683380 225.354675,259.342590 
	C225.772217,259.558319 226.189774,259.774048 226.607330,259.989777 
	C225.224564,262.217285 223.841797,264.444763 222.029327,266.648346 
	C221.599640,266.624420 221.844620,266.364960 221.844604,266.364960 
z"/>
<path fill="#141414" opacity="1.000000" stroke="none" 
	d="
M260.737457,66.579933 
	C260.504242,65.626205 260.556091,64.859642 260.607971,64.093071 
	C261.901123,64.550827 263.194275,65.008583 264.487427,65.466331 
	C264.385956,65.899918 264.284485,66.333504 264.183014,66.767090 
	C263.129517,66.767090 262.076050,66.767090 260.737457,66.579933 
z"/>
<path fill="#141414" opacity="1.000000" stroke="none" 
	d="
M150.125732,39.130821 
	C149.278000,41.206623 148.430252,43.282429 147.582504,45.358231 
	C146.978439,45.050850 146.374359,44.743469 145.770294,44.436089 
	C146.971573,42.716213 148.172867,40.996334 149.703949,39.152489 
	C150.033737,39.028515 150.125748,39.130825 150.125732,39.130821 
z"/>
<path fill="#131313" opacity="1.000000" stroke="none" 
	d="
M299.126587,215.743286 
	C298.911072,214.107376 298.911072,212.281387 298.911072,210.455414 
	C299.585999,210.555450 300.260925,210.655502 300.935822,210.755554 
	C300.404602,212.354767 299.873352,213.953995 299.126587,215.743286 
z"/>
<path fill="#141414" opacity="1.000000" stroke="none" 
	d="
M138.881134,57.948441 
	C139.597992,57.559959 140.218674,57.484016 140.839355,57.408073 
	C140.356125,58.759541 139.872879,60.111004 139.389648,61.462471 
	C139.017197,61.345848 138.644745,61.229221 138.272293,61.112598 
	C138.443176,60.162060 138.614059,59.211521 138.881134,57.948441 
z"/>
<path fill="#141414" opacity="1.000000" stroke="none" 
	d="
M301.690979,95.594170 
	C304.211670,94.331139 304.295654,94.423126 304.324036,99.000160 
	C303.309662,97.706238 302.587097,96.784569 301.690979,95.594170 
z"/>
<path fill="#131313" opacity="1.000000" stroke="none" 
	d="
M231.999695,230.428528 
	C232.677094,231.713898 233.354797,233.427811 234.061646,235.543350 
	C234.090775,235.944992 234.005035,236.020309 233.646759,236.027832 
	C232.866318,236.023819 232.444138,236.012299 232.021973,236.000778 
	C232.014648,234.286209 232.007309,232.571625 231.999695,230.428528 
z"/>
<path fill="#131313" opacity="1.000000" stroke="none" 
	d="
M162.577286,215.272324 
	C162.128983,214.214371 161.929337,212.963806 161.729691,211.713242 
	C162.388535,211.709213 163.047363,211.705185 163.706207,211.701141 
	C163.412781,212.827332 163.119354,213.953522 162.577286,215.272324 
z"/>
<path fill="#141414" opacity="1.000000" stroke="none" 
	d="
M107.951790,163.068619 
	C106.404320,162.714462 104.856857,162.360306 103.309387,162.006134 
	C103.450279,161.517288 103.591164,161.028427 103.732048,160.539581 
	C105.117767,161.127960 106.503487,161.716339 107.947029,162.655487 
	C108.004860,163.006256 107.951790,163.068619 107.951790,163.068619 
z"/>
<path fill="#141414" opacity="1.000000" stroke="none" 
	d="
M273.786072,148.688965 
	C274.947083,149.360031 275.850494,149.883896 276.753906,150.407761 
	C276.475983,150.819092 276.198059,151.230438 275.920135,151.641769 
	C274.736206,150.471786 273.552277,149.301804 272.368347,148.131805 
	C272.494598,148.080261 272.663879,147.949966 272.739441,147.991241 
	C273.019226,148.144119 273.268036,148.353577 273.786072,148.688965 
z"/>
<path fill="#141414" opacity="1.000000" stroke="none" 
	d="
M269.412598,64.999001 
	C269.520081,65.769371 269.256744,66.542244 269.047058,67.638763 
	C268.165283,67.404724 267.229919,66.847031 266.294525,66.289337 
	C267.210266,65.860054 268.126038,65.430779 269.412598,64.999001 
z"/>
<path fill="#141414" opacity="1.000000" stroke="none" 
	d="
M298.874176,90.109268 
	C297.901611,89.014999 296.929016,87.920731 295.982544,86.414093 
	C296.008606,86.001732 296.140137,85.876541 296.140137,85.876541 
	C297.105896,86.981651 298.071625,88.086761 299.014709,89.596573 
	C298.992004,90.001266 298.874176,90.109268 298.874176,90.109268 
z"/>
<path fill="#131313" opacity="1.000000" stroke="none" 
	d="
M179.993637,25.631821 
	C180.294128,24.772274 180.815308,24.104145 181.336487,23.436008 
	C181.733582,23.890806 182.130692,24.345610 182.527786,24.800415 
	C181.756638,25.141357 180.985474,25.482298 179.993637,25.631821 
z"/>
<path fill="#141414" opacity="1.000000" stroke="none" 
	d="
M252.389130,64.619911 
	C252.156570,65.474533 251.692062,66.090378 251.227539,66.706223 
	C250.914627,66.385574 250.601700,66.064911 250.288788,65.744263 
	C250.911591,65.289886 251.534393,64.835510 252.389130,64.619911 
z"/>
<path fill="#141414" opacity="1.000000" stroke="none" 
	d="
M142.557785,54.192619 
	C141.826416,53.704544 141.207413,52.950363 140.588409,52.196186 
	C141.127258,51.926537 141.666092,51.656887 142.204941,51.387234 
	C142.360016,52.233662 142.515076,53.080090 142.557785,54.192619 
z"/>
<path fill="#141414" opacity="1.000000" stroke="none" 
	d="
M139.474884,88.525185 
	C139.195892,89.178123 138.727524,89.603508 138.259155,90.028885 
	C137.920044,89.398323 137.580948,88.767754 137.241837,88.137192 
	C137.923050,88.190674 138.604279,88.244156 139.474884,88.525185 
z"/>
<path fill="#141414" opacity="1.000000" stroke="none" 
	d="
M91.308975,154.345016 
	C92.358566,155.112671 93.197220,155.688721 94.035873,156.264771 
	C93.837044,156.572296 93.638222,156.879837 93.439392,157.187363 
	C92.360298,156.335861 91.277534,155.488831 90.213112,154.619370 
	C90.160759,154.576599 90.241737,154.225510 90.306580,154.209976 
	C90.560387,154.149246 90.832634,154.165665 91.308975,154.345016 
z"/>
<path fill="#141414" opacity="1.000000" stroke="none" 
	d="
M299.048431,89.944664 
	C300.027588,90.492065 300.950348,91.096069 301.873077,91.700073 
	C301.502960,92.112946 301.132812,92.525818 300.762695,92.938683 
	C300.164612,92.220764 299.566528,91.502838 298.921326,90.447098 
	C298.874176,90.109268 298.992004,90.001266 299.048431,89.944664 
z"/>
<path fill="#141414" opacity="1.000000" stroke="none" 
	d="
M139.507019,95.920135 
	C140.134857,95.679848 140.879089,95.706001 141.623306,95.732147 
	C141.529602,96.295937 141.435913,96.859718 141.342209,97.423508 
	C140.769272,97.011200 140.196335,96.598885 139.507019,95.920135 
z"/>
<path fill="#141414" opacity="1.000000" stroke="none" 
	d="
M234.642044,146.388351 
	C235.661743,145.900772 236.469528,145.621689 237.277313,145.342606 
	C237.321548,145.760696 237.365784,146.178772 237.410019,146.596848 
	C236.416718,146.596848 235.423431,146.596848 234.642044,146.388351 
z"/>
<path fill="#141414" opacity="1.000000" stroke="none" 
	d="
M215.921722,82.954163 
	C216.412888,82.043533 216.904053,81.132912 217.395233,80.222290 
	C217.766602,80.462624 218.137970,80.702957 218.509323,80.943283 
	C217.931595,81.618858 217.353867,82.294441 216.403351,83.003708 
	C216.030548,83.037399 215.921722,82.954170 215.921722,82.954163 
z"/>
<path fill="#141414" opacity="1.000000" stroke="none" 
	d="
M289.222046,77.911659 
	C289.602905,78.692871 289.770630,79.261322 289.938354,79.829773 
	C289.677582,80.029724 289.416840,80.229675 289.156097,80.429626 
	C288.588104,79.605644 288.020142,78.781670 287.452179,77.957687 
	C287.971100,77.871422 288.489990,77.785164 289.222046,77.911659 
z"/>
<path fill="#131313" opacity="1.000000" stroke="none" 
	d="
M190.476227,283.795959 
	C190.259354,283.100525 190.332230,282.421112 190.405106,281.741669 
	C190.817490,281.800873 191.229858,281.860046 191.642242,281.919220 
	C191.350159,282.550140 191.058075,283.181030 190.476227,283.795959 
z"/>
<path fill="#131313" opacity="1.000000" stroke="none" 
	d="
M165.823853,205.291138 
	C165.683853,206.094528 165.455063,206.613586 165.226257,207.132645 
	C164.874115,206.644852 164.521957,206.157074 164.169800,205.669296 
	C164.691544,205.448471 165.213303,205.227631 165.823853,205.291138 
z"/>
<path fill="#131313" opacity="1.000000" stroke="none" 
	d="
M227.986145,207.018448 
	C227.149323,206.351135 226.312515,205.683838 225.475693,205.016525 
	C225.861298,204.679947 226.246887,204.343369 226.632492,204.006790 
	C227.087036,204.774170 227.541595,205.541550 227.998779,206.653809 
	C228.001404,206.998703 227.986145,207.018448 227.986145,207.018448 
z"/>
<path fill="#141414" opacity="1.000000" stroke="none" 
	d="
M210.051575,92.048317 
	C209.520447,93.010254 208.938080,93.921661 208.355728,94.833076 
	C207.999130,94.528809 207.642548,94.224541 207.285950,93.920273 
	C207.953033,93.293793 208.620132,92.667320 209.593201,91.968155 
	C209.899170,91.895462 210.000351,91.997787 210.051575,92.048317 
z"/>
<path fill="#141414" opacity="1.000000" stroke="none" 
	d="
M70.048340,129.027283 
	C70.728729,130.032074 71.409111,131.036880 72.089493,132.041687 
	C71.689301,132.278137 71.289101,132.514603 70.888901,132.751053 
	C70.424339,131.606567 69.959770,130.462082 69.722748,129.144165 
	C69.950294,128.970718 70.048340,129.027283 70.048340,129.027283 
z"/>
<path fill="#131313" opacity="1.000000" stroke="none" 
	d="
M82.028412,227.972656 
	C82.969154,228.499268 83.885048,229.050293 84.800941,229.601318 
	C84.499260,229.976517 84.197571,230.351700 83.895889,230.726898 
	C83.284279,230.042740 82.672676,229.358597 82.007874,228.360565 
	C81.954689,228.046707 82.003563,227.997055 82.028412,227.972656 
z"/>
<path fill="#131313" opacity="1.000000" stroke="none" 
	d="
M232.013062,236.339355 
	C232.444138,236.012299 232.866318,236.023819 233.603363,236.064880 
	C233.714203,237.124893 233.510162,238.155365 233.306122,239.185837 
	C233.020081,239.186295 232.734039,239.186768 232.448013,239.187225 
	C232.300049,238.350784 232.152100,237.514359 232.013062,236.339355 
z"/>
<path fill="#141414" opacity="1.000000" stroke="none" 
	d="
M145.931961,105.070740 
	C145.110352,104.373978 144.288727,103.677216 143.467117,102.980453 
	C143.848038,102.653244 144.228958,102.326027 144.609879,101.998817 
	C145.077164,102.758652 145.544449,103.518494 146.003052,104.642540 
	C145.994385,105.006752 145.931961,105.070740 145.931961,105.070740 
z"/>
<path fill="#141414" opacity="1.000000" stroke="none" 
	d="
M69.066597,104.034492 
	C68.773537,105.132782 68.480476,106.231071 68.187416,107.329361 
	C67.762825,107.167130 67.338234,107.004898 66.913635,106.842659 
	C67.367844,105.926613 67.822052,105.010567 68.628593,104.033760 
	C68.980934,103.973000 69.066597,104.034492 69.066597,104.034492 
z"/>
<path fill="#141414" opacity="1.000000" stroke="none" 
	d="
M128.113815,163.117477 
	C127.006836,163.407883 125.899857,163.698273 124.792877,163.988663 
	C124.714302,163.543625 124.635735,163.098587 124.557159,162.653549 
	C125.456627,162.721207 126.356094,162.788864 127.629562,162.931183 
	C128.003555,163.005829 128.113815,163.117477 128.113815,163.117477 
z"/>
<path fill="#131313" opacity="1.000000" stroke="none" 
	d="
M198.592911,279.166168 
	C198.765137,279.854401 198.671768,280.518738 198.578400,281.183044 
	C198.207260,280.975372 197.836136,280.767670 197.464996,280.559998 
	C197.752441,280.087433 198.039871,279.614838 198.592911,279.166168 
z"/>
<path fill="#141414" opacity="1.000000" stroke="none" 
	d="
M68.066246,126.205856 
	C68.420807,125.812920 68.803696,125.727562 69.428680,125.456726 
	C69.946976,126.355331 70.223183,127.439400 70.273865,128.775375 
	C70.048340,129.027283 69.950294,128.970718 69.898376,128.944275 
	C69.262505,128.116379 68.678535,127.314911 68.066246,126.205856 
z"/>
<path fill="#131313" opacity="1.000000" stroke="none" 
	d="
M228.010544,206.989883 
	C229.008316,207.805542 229.996948,208.630035 230.985596,209.454529 
	C230.705292,209.743484 230.425003,210.032455 230.144714,210.321426 
	C229.513870,209.407684 228.883041,208.493958 228.119171,207.299347 
	C227.986145,207.018448 228.001404,206.998703 228.010544,206.989883 
z"/>
<path fill="#141414" opacity="1.000000" stroke="none" 
	d="
M264.058105,145.644928 
	C263.383240,145.363495 262.917542,144.916565 262.451843,144.469635 
	C262.667603,144.246017 262.883362,144.022400 263.099152,143.798782 
	C263.488525,144.358994 263.877899,144.919205 264.058105,145.644928 
z"/>
<path fill="#141414" opacity="1.000000" stroke="none" 
	d="
M205.453461,101.431252 
	C205.932846,101.129463 206.312469,101.066658 206.692108,101.003853 
	C206.522385,101.500237 206.352661,101.996613 206.182938,102.492996 
	C205.906525,102.218742 205.630127,101.944481 205.453461,101.431252 
z"/>
<path fill="#141414" opacity="1.000000" stroke="none" 
	d="
M70.221893,98.804283 
	C70.469215,99.296829 70.480385,99.822464 70.432495,100.342674 
	C70.429970,100.370110 69.927063,100.351463 69.657104,100.354263 
	C69.762558,99.848259 69.868011,99.342255 70.221893,98.804283 
z"/>
<path fill="#131313" opacity="1.000000" stroke="none" 
	d="
M303.059021,202.030121 
	C302.688110,202.821259 302.317230,203.612381 301.946320,204.403519 
	C301.681976,204.262512 301.417633,204.121521 301.153290,203.980515 
	C301.542633,203.342361 301.932007,202.704208 302.651001,202.021057 
	C302.980621,201.976059 303.059021,202.030121 303.059021,202.030121 
z"/>
<path fill="#131313" opacity="1.000000" stroke="none" 
	d="
M173.098007,25.476454 
	C173.429810,26.027096 173.504272,26.557201 173.578751,27.087303 
	C173.313522,27.055857 172.822052,27.041662 172.818130,26.990290 
	C172.779404,26.482357 172.821487,25.968266 173.098007,25.476454 
z"/>
<path fill="#141414" opacity="1.000000" stroke="none" 
	d="
M244.521103,67.095535 
	C243.964218,67.431816 243.428024,67.507759 242.891830,67.583710 
	C242.924011,67.314262 242.938675,66.814995 242.991119,66.810997 
	C243.504410,66.771828 244.024002,66.815254 244.521103,67.095535 
z"/>
<path fill="#141414" opacity="1.000000" stroke="none" 
	d="
M157.684814,115.906921 
	C156.942413,115.621765 156.348526,115.139786 155.754623,114.657814 
	C155.958130,114.450584 156.161621,114.243362 156.365112,114.036140 
	C156.854507,114.594124 157.343918,115.152115 157.684814,115.906921 
z"/>
<path fill="#131313" opacity="1.000000" stroke="none" 
	d="
M150.046295,228.452820 
	C150.264282,228.812546 150.258652,229.168930 150.253021,229.525314 
	C150.105362,229.522781 149.829117,229.526749 149.828598,229.516754 
	C149.810608,229.161804 149.818451,228.805542 150.046295,228.452820 
z"/>
<path fill="#141414" opacity="1.000000" stroke="none" 
	d="
M127.948212,162.950226 
	C128.230774,162.435989 128.568710,161.977371 128.906631,161.518753 
	C129.103607,161.690048 129.300568,161.861328 129.497543,162.032623 
	C129.208954,162.344070 128.920364,162.655533 128.372803,163.042236 
	C128.113815,163.117477 128.003555,163.005829 127.948212,162.950226 
z"/>
<path fill="#131313" opacity="1.000000" stroke="none" 
	d="
M232.479034,244.137405 
	C232.660324,243.548096 233.005997,243.120407 233.351685,242.692719 
	C233.460220,242.800735 233.675217,242.986893 233.661697,243.005310 
	C233.337097,243.447433 232.988037,243.871597 232.479034,244.137405 
z"/>
<path fill="#131313" opacity="1.000000" stroke="none" 
	d="
M195.619293,282.314423 
	C195.271423,282.138062 195.000549,281.796906 194.908707,281.412933 
	C194.879288,281.290009 195.323532,281.053711 195.551071,280.869263 
	C195.622604,281.290527 195.694138,281.711792 195.619293,282.314423 
z"/>
<path fill="#131313" opacity="1.000000" stroke="none" 
	d="
M188.331207,22.207233 
	C188.652847,22.687666 188.570877,23.141768 188.208405,23.806200 
	C187.927902,24.016529 187.998322,23.983519 187.731873,24.078873 
	C187.040115,24.220404 186.614807,24.266579 186.189514,24.312750 
	C186.768875,23.602133 187.348251,22.891518 188.331207,22.207233 
z"/>
<path fill="#131313" opacity="1.000000" stroke="none" 
	d="
M146.546570,232.048615 
	C146.185120,232.267563 145.825272,232.264725 145.467545,232.235626 
	C145.457153,232.234787 145.469330,231.956268 145.470978,231.807220 
	C145.830124,231.812500 146.189301,231.817780 146.546570,232.048615 
z"/>
<path fill="#131313" opacity="1.000000" stroke="none" 
	d="
M211.724380,191.538666 
	C211.370422,190.962555 211.240753,190.449997 211.111069,189.937439 
	C211.363373,189.898880 211.615662,189.860306 211.867950,189.821732 
	C211.894852,190.415237 211.921753,191.008728 211.724380,191.538666 
z"/>
<path fill="#131313" opacity="1.000000" stroke="none" 
	d="
M218.554199,195.042969 
	C218.191086,195.263351 217.830566,195.260834 217.472137,195.232376 
	C217.462265,195.231598 217.468170,194.821808 217.477356,194.821350 
	C217.836487,194.803864 218.196869,194.811829 218.554199,195.042969 
z"/>
<path fill="#131313" opacity="1.000000" stroke="none" 
	d="
M141.298401,234.946503 
	C141.001953,235.495361 140.718262,235.814224 140.434601,236.133118 
	C140.330917,235.862610 140.080688,235.406113 140.148224,235.352905 
	C140.490494,235.083206 140.915298,234.918228 141.298401,234.946503 
z"/>
<path fill="#131313" opacity="1.000000" stroke="none" 
	d="
M302.943878,201.945740 
	C302.860016,201.137970 302.812897,200.360519 302.765778,199.583054 
	C303.005310,199.562042 303.244873,199.541031 303.484436,199.520020 
	C303.484436,200.227554 303.484436,200.935089 303.271729,201.836365 
	C303.059021,202.030121 302.980621,201.976059 302.943878,201.945740 
z"/>
<path fill="#131313" opacity="1.000000" stroke="none" 
	d="
M223.042526,199.915421 
	C223.522705,200.240677 224.002884,200.565948 224.483063,200.891205 
	C224.308670,201.092010 224.134293,201.292831 223.959930,201.493652 
	C223.649231,201.191071 223.338516,200.888489 223.006943,200.286926 
	C222.986084,199.987961 223.042526,199.915421 223.042526,199.915421 
z"/>
<path fill="#131313" opacity="1.000000" stroke="none" 
	d="
M158.039825,220.447769 
	C158.259369,220.809952 158.256775,221.169434 158.228073,221.526825 
	C158.227264,221.537018 157.948563,221.524887 157.799423,221.523148 
	C157.804276,221.163696 157.809143,220.804230 158.039825,220.447769 
z"/>
<path fill="#131313" opacity="1.000000" stroke="none" 
	d="
M300.647736,207.576385 
	C301.055145,207.682877 301.301758,207.942230 301.548340,208.201599 
	C301.440857,208.303467 301.245361,208.499863 301.238586,208.493561 
	C300.977295,208.250320 300.733246,207.988571 300.647736,207.576385 
z"/>
<path fill="#131313" opacity="1.000000" stroke="none" 
	d="
M231.645996,246.574799 
	C232.055206,246.681717 232.302917,246.942184 232.550644,247.202652 
	C232.442719,247.304977 232.246414,247.502274 232.239594,247.495941 
	C231.977112,247.251678 231.731949,246.988785 231.645996,246.574799 
z"/>
<path fill="#141414" opacity="1.000000" stroke="none" 
	d="
M152.447922,111.963516 
	C152.811676,111.743011 153.172211,111.745491 153.530685,111.774078 
	C153.540756,111.774879 153.528580,112.054733 153.526779,112.204460 
	C153.166000,112.199692 152.805206,112.194923 152.447922,111.963516 
z"/>
<path fill="#141414" opacity="1.000000" stroke="none" 
	d="
M78.054497,142.936920 
	C78.578453,143.218811 79.039627,143.564178 79.500809,143.909546 
	C79.325851,144.109512 79.150902,144.309479 78.975952,144.509460 
	C78.655296,144.222549 78.334641,143.935654 77.938316,143.386292 
	C77.862648,143.123825 77.991714,143.000412 78.054497,142.936920 
z"/>
<path fill="#141414" opacity="1.000000" stroke="none" 
	d="
M243.134277,143.743469 
	C243.273361,144.191391 243.187820,144.694489 243.102295,145.197601 
	C242.842911,145.125839 242.583511,145.054092 242.324127,144.982330 
	C242.519287,144.587784 242.714478,144.193222 243.134277,143.743469 
z"/>
<path fill="#141414" opacity="1.000000" stroke="none" 
	d="
M239.969757,145.550461 
	C239.750992,145.188812 239.753586,144.830536 239.782562,144.474396 
	C239.783417,144.463852 240.061310,144.475830 240.210037,144.477325 
	C240.205002,144.836258 240.199982,145.195206 239.969757,145.550461 
z"/>
<path fill="#141414" opacity="1.000000" stroke="none" 
	d="
M143.434250,100.164192 
	C142.773819,100.124580 142.267166,99.918098 141.760513,99.711617 
	C141.872513,99.494545 141.984512,99.277466 142.096527,99.060394 
	C142.593689,99.372704 143.090866,99.685013 143.434250,100.164192 
z"/>
<path fill="#141414" opacity="1.000000" stroke="none" 
	d="
M221.041519,77.444595 
	C221.262039,77.808586 221.259476,78.170166 221.230682,78.529655 
	C221.229858,78.539864 220.949936,78.527733 220.800156,78.526024 
	C220.805008,78.164650 220.809860,77.803268 221.041519,77.444595 
z"/>
<path fill="#141414" opacity="1.000000" stroke="none" 
	d="
M257.886932,144.356842 
	C257.364136,144.657684 256.698639,144.768112 256.033173,144.878540 
	C256.012817,144.641174 255.992432,144.403793 255.972076,144.166428 
	C256.562805,144.166428 257.153534,144.166428 257.886932,144.356842 
z"/>
<path fill="#141414" opacity="1.000000" stroke="none" 
	d="
M146.026306,104.975456 
	C146.531799,105.260468 147.005356,105.576775 147.478928,105.893074 
	C147.307968,106.091827 147.136993,106.290573 146.966034,106.489319 
	C146.662292,106.192329 146.358536,105.895332 145.993378,105.334541 
	C145.931961,105.070740 145.994385,105.006752 146.026306,104.975456 
z"/>
<path fill="#141414" opacity="1.000000" stroke="none" 
	d="
M150.958496,36.475273 
	C151.417435,36.519306 151.838135,36.857471 152.165604,37.523033 
	C151.619812,38.226898 151.167252,38.603363 150.420212,39.055328 
	C150.125748,39.130825 150.033737,39.028515 149.991058,38.974495 
	C150.272324,38.203453 150.596298,37.486431 150.958496,36.475273 
z"/>
<path fill="#141414" opacity="1.000000" stroke="none" 
	d="
M72.043869,92.453720 
	C72.260941,92.811989 72.258324,93.167603 72.230186,93.521179 
	C72.229416,93.530853 71.825523,93.524872 71.825089,93.515785 
	C71.807976,93.161537 71.815971,92.806076 72.043869,92.453720 
z"/>
<path fill="#141414" opacity="1.000000" stroke="none" 
	d="
M294.042206,83.915138 
	C294.683594,84.367912 295.324982,84.820679 296.053253,85.574997 
	C296.140137,85.876541 296.008606,86.001732 295.944946,86.066803 
	C295.268341,85.639885 294.655334,85.147903 294.014618,84.321571 
	C293.986877,83.987228 294.042206,83.915138 294.042206,83.915138 
z"/>
<path fill="#131313" opacity="1.000000" stroke="none" 
	d="
M167.137115,28.550730 
	C167.398941,28.024977 167.677536,27.724960 167.956131,27.424946 
	C168.063766,27.671230 168.310150,28.092505 168.256332,28.135178 
	C167.926620,28.396591 167.528915,28.572245 167.137115,28.550730 
z"/>
<path fill="#141414" opacity="1.000000" stroke="none" 
	d="
M96.120277,158.472351 
	C95.652832,158.093491 95.368164,157.578934 95.083488,157.064377 
	C95.305489,156.964172 95.527481,156.863968 95.749481,156.763763 
	C95.933998,157.288055 96.118523,157.812347 96.120277,158.472351 
z"/>
<path fill="#141414" opacity="1.000000" stroke="none" 
	d="
M86.363358,151.438477 
	C85.947060,151.330307 85.692200,151.067413 85.457359,150.787689 
	C85.451065,150.780197 85.661667,150.590591 85.771118,150.485901 
	C86.023239,150.751083 86.275360,151.016266 86.363358,151.438477 
z"/>
<path fill="#141414" opacity="1.000000" stroke="none" 
	d="
M282.217682,153.624344 
	C282.051483,154.055038 281.795105,154.272171 281.538727,154.489288 
	C281.409912,154.068634 281.281097,153.647964 281.152313,153.227295 
	C281.477386,153.288452 281.802429,153.349625 282.217682,153.624344 
z"/>
<path fill="#131313" opacity="1.000000" stroke="none" 
	d="
M159.882568,217.863693 
	C160.176437,217.970810 160.332413,218.217804 160.488373,218.464798 
	C160.240463,218.311066 159.992569,218.157318 159.882568,217.863693 
z"/>
<path fill="#141414" opacity="1.000000" stroke="none" 
	d="
M224.323334,75.996048 
	C224.344879,75.564888 224.512039,75.270721 224.679199,74.976555 
	C224.609131,75.362053 224.539047,75.747551 224.323334,75.996048 
z"/>
<path fill="#141414" opacity="1.000000" stroke="none" 
	d="
M235.848083,69.306885 
	C235.723633,69.691803 235.559525,69.878761 235.395416,70.065720 
	C235.318375,69.791916 235.241348,69.518097 235.164307,69.244286 
	C235.379013,69.199165 235.593704,69.154053 235.848083,69.306885 
z"/>
<path fill="#141414" opacity="1.000000" stroke="none" 
	d="
M207.137848,97.329742 
	C207.395355,97.168831 207.615601,97.207443 207.835846,97.246056 
	C207.762222,97.523224 207.688599,97.800392 207.614960,98.077568 
	C207.443512,97.894798 207.272049,97.712036 207.137848,97.329742 
z"/>
<path fill="#131313" opacity="1.000000" stroke="none" 
	d="
M130.623779,240.022888 
	C130.428391,239.740677 130.399582,239.347900 130.370773,238.955109 
	C130.510651,239.274170 130.650513,239.593246 130.623779,240.022888 
z"/>
<path fill="#141414" opacity="1.000000" stroke="none" 
	d="
M71.559723,95.831818 
	C71.390228,96.163872 71.097137,96.344917 70.804047,96.525970 
	C71.014740,96.244247 71.225433,95.962524 71.559723,95.831818 
z"/>
<path fill="#141414" opacity="1.000000" stroke="none" 
	d="
M139.299316,92.147430 
	C139.687378,92.273514 139.875702,92.440201 140.064011,92.606880 
	C139.788010,92.684753 139.512024,92.762634 139.236023,92.840508 
	C139.190536,92.623016 139.145050,92.405518 139.299316,92.147430 
z"/>
<path fill="#131313" opacity="1.000000" stroke="none" 
	d="
M138.147278,84.701431 
	C138.273010,84.313675 138.439423,84.125511 138.605835,83.937347 
	C138.683899,84.213181 138.761963,84.489006 138.840027,84.764839 
	C138.622665,84.810234 138.405319,84.855629 138.147278,84.701431 
z"/>
<path fill="#141414" opacity="1.000000" stroke="none" 
	d="
M213.985825,84.969070 
	C214.440094,84.357086 214.930923,83.791023 215.671738,83.089569 
	C215.921722,82.954170 216.030548,83.037399 216.081100,83.083496 
	C215.653305,83.734985 215.174942,84.340393 214.399765,85.023087 
	C214.102936,85.100388 214.022385,85.014977 213.985825,84.969070 
z"/>
<path fill="#131313" opacity="1.000000" stroke="none" 
	d="
M201.849426,279.295013 
	C201.724472,279.681763 201.559677,279.869507 201.394882,280.057220 
	C201.317581,279.782043 201.240280,279.506897 201.162964,279.231720 
	C201.378510,279.186493 201.594070,279.141266 201.849426,279.295013 
z"/>
<path fill="#141414" opacity="1.000000" stroke="none" 
	d="
M159.149384,116.709915 
	C159.274857,116.321060 159.440186,116.132278 159.605515,115.943497 
	C159.683105,116.220215 159.760696,116.496925 159.838287,116.773636 
	C159.621948,116.819084 159.405594,116.864532 159.149384,116.709915 
z"/>
<path fill="#141414" opacity="1.000000" stroke="none" 
	d="
M246.315765,144.863129 
	C246.153824,144.605148 246.192413,144.384399 246.230988,144.163666 
	C246.509430,144.237244 246.787857,144.310837 247.066299,144.384430 
	C246.882965,144.556412 246.699646,144.728378 246.315765,144.863129 
z"/>
<path fill="#131313" opacity="1.000000" stroke="none" 
	d="
M166.476166,202.503326 
	C166.111923,202.522964 165.891205,202.401489 165.670471,202.279999 
	C165.871613,202.083649 166.072754,201.887283 166.273895,201.690918 
	C166.389160,201.914673 166.504410,202.138443 166.476166,202.503326 
z"/>
<path fill="#141414" opacity="1.000000" stroke="none" 
	d="
M266.146393,145.702194 
	C266.272400,145.313644 266.439209,145.125107 266.606049,144.936584 
	C266.684296,145.212982 266.762573,145.489365 266.840820,145.765762 
	C266.622955,145.811249 266.405060,145.856720 266.146393,145.702194 
z"/>
<path fill="#141414" opacity="1.000000" stroke="none" 
	d="
M268.149048,146.690491 
	C268.274628,146.301529 268.440033,146.112488 268.605438,145.923431 
	C268.683167,146.200150 268.760895,146.476868 268.838593,146.753601 
	C268.622040,146.799194 268.405457,146.844788 268.149048,146.690491 
z"/>
<path fill="#131313" opacity="1.000000" stroke="none" 
	d="
M215.167603,193.558807 
	C214.836426,193.389786 214.655838,193.097534 214.475250,192.805267 
	C214.756226,193.015366 215.037201,193.225464 215.167603,193.558807 
z"/>
<path fill="#141414" opacity="1.000000" stroke="none" 
	d="
M232.623566,149.029663 
	C232.425018,148.745010 232.395264,148.349060 232.365540,147.953094 
	C232.507812,148.274841 232.650085,148.596603 232.623566,149.029663 
z"/>
<path fill="#141414" opacity="1.000000" stroke="none" 
	d="
M278.145874,151.701599 
	C278.272095,151.312027 278.439209,151.122971 278.606323,150.933899 
	C278.684845,151.211044 278.763367,151.488190 278.841888,151.765335 
	C278.623535,151.810913 278.405151,151.856506 278.145874,151.701599 
z"/>
<path fill="#141414" opacity="1.000000" stroke="none" 
	d="
M285.369690,155.960876 
	C285.573639,156.251190 285.605438,156.655090 285.637268,157.058990 
	C285.490692,156.730820 285.344116,156.402634 285.369690,155.960876 
z"/>
<path fill="#131313" opacity="1.000000" stroke="none" 
	d="
M203.979233,278.070099 
	C204.188126,277.965271 204.455826,278.294678 204.326569,278.463013 
	C203.998413,278.823242 203.799530,279.015167 203.600647,279.207092 
	C203.657211,278.863037 203.713776,278.518982 203.979233,278.070099 
z"/>
<path fill="#ADADAD" opacity="1.000000" stroke="none" 
	d="
M186.370041,24.439421 
	C186.614807,24.266579 187.040115,24.220404 187.767258,24.062769 
	C187.562927,24.156237 187.056747,24.361162 186.370041,24.439421 
z"/>
<path fill="#141414" opacity="1.000000" stroke="none" 
	d="
M142.989441,49.283089 
	C143.034592,49.282902 142.944275,49.283276 142.989441,49.283089 
z"/>
<path fill="#131313" opacity="1.000000" stroke="none" 
	d="
M101.905067,243.021606 
	C101.681175,242.623169 101.501350,241.861588 101.662270,241.148727 
	C101.985054,241.684448 101.967094,242.171448 101.905067,243.021606 
z"/>
<path fill="#131313" opacity="1.000000" stroke="none" 
	d="
M143.416931,233.772949 
	C143.456100,233.748947 143.377777,233.796951 143.416931,233.772949 
z"/>
<path fill="#131313" opacity="1.000000" stroke="none" 
	d="
M154.976517,225.982483 
	C155.101868,225.594086 155.227219,225.205688 155.352554,224.817291 
	C155.360413,225.134277 155.368271,225.451248 155.187592,225.884140 
	C154.999084,226.000046 154.976517,225.982483 154.976517,225.982483 
z"/>
<path fill="#141414" opacity="1.000000" stroke="none" 
	d="
M68.941696,103.937782 
	C69.064651,103.525131 69.226837,103.147697 69.389023,102.770264 
	C69.401070,103.104599 69.413116,103.438934 69.245880,103.903885 
	C69.066597,104.034492 68.980934,103.973000 68.941696,103.937782 
z"/>
<path fill="#141414" opacity="1.000000" stroke="none" 
	d="
M150.719925,108.989578 
	C150.600861,109.145058 150.480865,109.163239 150.360886,109.181419 
	C150.480255,109.071709 150.599640,108.961998 150.719925,108.989578 
z"/>
<path fill="#141414" opacity="1.000000" stroke="none" 
	d="
M71.764877,134.585419 
	C71.820526,134.400528 71.951721,134.338120 72.082916,134.275711 
	C72.002083,134.419769 71.921249,134.563828 71.764877,134.585419 
z"/>
<path fill="#141414" opacity="1.000000" stroke="none" 
	d="
M163.970245,118.597198 
	C163.842865,118.873581 163.683594,118.925438 163.280640,119.038483 
	C163.140778,118.677010 163.244583,118.254333 163.348389,117.831665 
	C163.545044,118.012009 163.741699,118.192345 163.970245,118.597198 
z"/>
<path fill="#131313" opacity="1.000000" stroke="none" 
	d="
M232.584290,216.233170 
	C232.544128,216.257919 232.624466,216.208420 232.584290,216.233170 
z"/>
<path fill="#131313" opacity="1.000000" stroke="none" 
	d="
M231.274963,213.011398 
	C231.396179,212.852890 231.517929,212.834045 231.639679,212.815186 
	C231.518280,212.927139 231.396881,213.039108 231.274963,213.011398 
z"/>
<path fill="#141414" opacity="1.000000" stroke="none" 
	d="
M108.035751,162.979370 
	C108.158722,163.100601 108.250801,163.248688 108.342880,163.396790 
	C108.258362,163.361984 108.173851,163.327179 108.020561,163.180496 
	C107.951790,163.068619 108.004860,163.006256 108.035751,162.979370 
z"/>
<path fill="#141414" opacity="1.000000" stroke="none" 
	d="
M293.045227,82.915894 
	C293.339172,83.056267 293.589050,83.252693 293.918549,83.710159 
	C294.042206,83.915138 293.986877,83.987228 293.950623,84.014343 
	C293.612274,83.913399 293.361755,83.718918 293.074890,83.223587 
	C292.986969,82.989159 293.045227,82.915894 293.045227,82.915894 
z"/>
<path fill="#141414" opacity="1.000000" stroke="none" 
	d="
M84.520233,148.537750 
	C84.478027,148.560455 84.562447,148.515060 84.520233,148.537750 
z"/>
<path fill="#131313" opacity="1.000000" stroke="none" 
	d="
M222.949799,200.016144 
	C222.821182,199.891953 222.728836,199.739548 222.636505,199.587158 
	C222.727142,199.618561 222.817795,199.649979 222.975479,199.798401 
	C223.042526,199.915421 222.986084,199.987961 222.949799,200.016144 
z"/>
<path fill="#F4F4F4" opacity="1.000000" stroke="none" 
	d="
M221.766724,266.663086 
	C221.844620,266.364960 221.599640,266.624420 221.701721,266.770752 
	C221.603745,266.748932 221.403671,266.580780 220.875015,266.627716 
	C220.546432,266.842834 220.636307,266.856384 220.628113,266.809753 
	C220.976212,266.829132 221.332520,266.895172 221.766724,266.663086 
z"/>
<path fill="#141414" opacity="1.000000" stroke="none" 
	d="
M240.462433,68.523514 
	C240.438263,68.479263 240.486603,68.567764 240.462433,68.523514 
z"/>
<path fill="#141414" opacity="1.000000" stroke="none" 
	d="
M230.460449,72.524521 
	C230.435272,72.478981 230.485626,72.570053 230.460449,72.524521 
z"/>
<path fill="#141414" opacity="1.000000" stroke="none" 
	d="
M292.950256,83.018166 
	C292.822388,82.895126 292.731262,82.743080 292.640137,82.591019 
	C292.729889,82.622444 292.819611,82.653870 292.977295,82.800591 
	C293.045227,82.915894 292.986969,82.989159 292.950256,83.018166 
z"/>
<path fill="#131313" opacity="1.000000" stroke="none" 
	d="
M155.007965,226.011169 
	C155.016846,226.022293 154.745773,226.418274 154.745773,226.418274 
	C154.745773,226.418274 154.751892,226.096069 154.864197,226.039276 
	C154.976517,225.982483 154.999084,226.000046 155.007965,226.011169 
z"/>
<path fill="#131313" opacity="1.000000" stroke="none" 
	d="
M197.069733,182.363998 
	C191.787445,181.738205 186.788193,180.724655 181.750549,179.966049 
	C176.496155,179.174820 169.851456,180.322586 166.313965,177.495361 
	C162.844803,174.722778 162.523804,168.014526 160.809158,163.037689 
	C160.647842,162.569504 160.387726,162.136307 160.195190,161.677750 
	C158.350540,157.284073 154.534607,152.546768 155.218994,148.588379 
	C155.918457,144.542953 161.170731,141.370377 164.181671,137.616562 
	C167.696777,133.234146 170.943039,128.636139 173.902267,124.672394 
	C184.559891,126.323326 194.859436,127.918785 205.088501,129.503326 
	C208.764130,139.098557 212.525040,148.916367 216.090164,158.223145 
	C209.828308,166.191483 203.582108,174.139893 197.069733,182.363998 
z"/>
</svg>