<svg version="1.1" id="Layer_1" xmlns="http://www.w3.org/2000/svg" xmlns:xlink="http://www.w3.org/1999/xlink" x="0px" y="0px"
	 width="100%" viewBox="0 0 1458 604" enable-background="new 0 0 1458 604" xml:space="preserve">
<path fill="#111111" opacity="1.000000" stroke="none" 
	d="
M1001.000000,605.000000 
	C667.373657,605.000000 334.247284,605.000000 1.060468,605.000000 
	C1.060468,403.731354 1.060468,202.462692 1.060468,1.097010 
	C486.876495,1.097010 972.752991,1.097010 1458.814697,1.097010 
	C1458.814697,202.333191 1458.814697,403.666595 1458.814697,605.000000 
	C1306.462402,605.000000 1153.981201,605.000000 1001.000000,605.000000 
M371.941956,215.084152 
	C371.941956,215.084152 372.120117,215.135162 372.120117,215.135162 
	C372.120117,215.135162 371.957611,215.150772 371.746887,215.110413 
	C371.746887,215.110413 371.987366,214.878540 371.987366,214.878540 
	C371.987366,214.878540 372.093414,215.234970 371.941956,215.084152 
M160.998398,361.101593 
	C161.382507,360.986176 161.766617,360.870728 162.513046,360.855957 
	C162.580261,361.107880 162.647461,361.359833 162.714676,361.611755 
	C162.497925,361.367371 162.281189,361.123016 162.036087,360.359955 
	C161.734497,360.196930 161.432892,360.033905 160.792358,359.210297 
	C160.440231,359.239197 160.088089,359.268097 159.735962,359.297028 
	C159.982742,359.742126 160.229538,360.187195 160.998398,361.101593 
M160.697281,280.035553 
	C160.854919,280.227692 161.044083,280.380890 161.545227,280.915497 
	C161.815384,281.115387 162.085526,281.315277 162.779388,282.059448 
	C164.139786,283.140289 165.500183,284.221130 166.860580,285.301941 
	C167.124786,284.939514 167.388992,284.577057 167.653198,284.214630 
	C166.179291,283.067017 164.705399,281.919373 163.060364,280.291168 
	C162.771271,280.129669 162.482193,279.968170 162.032578,279.322754 
	C161.747375,279.156555 161.462189,278.990356 161.024094,278.337097 
	C160.741165,278.166443 160.458237,277.995819 159.929001,277.164459 
	C158.756317,275.936523 157.583649,274.708557 156.410965,273.480621 
	C156.135056,273.778320 155.859131,274.076019 155.583221,274.373718 
	C156.879990,275.789886 158.176758,277.206085 159.755875,279.044434 
	C160.002274,279.272736 160.248672,279.501068 160.697281,280.035553 
M234.390198,357.766357 
	C234.380264,357.437561 234.370331,357.108734 234.360413,356.779938 
	C234.232574,357.180817 234.104736,357.581726 233.738251,358.099152 
	C233.831085,358.073395 233.923904,358.047668 234.390198,357.766357 
M170.152237,287.730286 
	C170.760483,287.806335 171.368744,287.882416 172.080536,288.591125 
	C173.002304,289.348694 173.924072,290.106232 174.845840,290.863770 
	C175.088699,290.400757 175.331543,289.937714 175.574402,289.474670 
	C174.368591,288.975891 173.162781,288.477142 171.949387,287.398163 
	C171.481140,287.072815 171.012894,286.747467 170.036850,285.913696 
	C169.294388,285.602966 168.551926,285.292236 167.809464,284.981506 
	C167.697464,285.209595 167.585480,285.437683 167.473480,285.665771 
	C168.254807,286.177002 169.036148,286.688263 170.152237,287.730286 
M300.294189,208.865524 
	C300.067810,209.240433 299.841431,209.615341 299.615051,209.990250 
	C300.258270,209.822693 300.901520,209.655136 302.116608,209.085587 
	C302.016937,208.717194 301.917267,208.348816 301.817596,207.980423 
	C301.470612,208.244598 301.123657,208.508789 300.294189,208.865524 
M367.988953,211.533646 
	C368.127472,211.773697 368.265991,212.013748 368.404480,212.253799 
	C368.289581,211.824310 368.174683,211.394821 367.953979,210.421921 
	C367.651062,210.112625 367.348175,209.803345 367.045258,209.494049 
	C366.862946,209.689835 366.680664,209.885620 366.498352,210.081406 
	C366.966400,210.419907 367.434448,210.758408 367.988953,211.533646 
M147.271576,236.089920 
	C146.813736,237.017746 146.355896,237.945587 145.898041,238.873413 
	C146.326126,239.035919 146.754196,239.198425 147.182266,239.360947 
	C147.476730,238.252350 147.771210,237.143753 148.435623,235.771011 
	C148.422043,235.426880 148.408478,235.082733 148.394882,234.738602 
	C148.231766,235.127655 148.068649,235.516724 147.271576,236.089920 
M298.912048,329.729156 
	C299.188324,329.906464 299.464569,330.083771 300.019653,330.876556 
	C303.454987,335.854126 306.890350,340.831726 310.325684,345.809296 
	C310.784363,345.490326 311.243011,345.171326 311.701660,344.852325 
	C307.959290,339.631989 304.216949,334.411652 300.275909,328.901337 
	C300.119293,328.720123 299.930176,328.584076 299.361664,328.024261 
	C298.541473,327.518219 297.721313,327.012146 296.901123,326.506104 
	C296.728485,326.733246 296.555817,326.960358 296.383179,327.187500 
	C297.168945,327.876678 297.954712,328.565887 298.912048,329.729156 
M228.995758,173.374237 
	C229.988968,172.245361 230.982178,171.116486 232.847153,169.636169 
	C234.601837,169.712189 236.365387,169.702209 238.109406,169.881805 
	C241.944626,170.276749 245.769989,170.767471 251.078186,171.393524 
	C247.943863,167.212631 245.844284,164.411987 243.623764,161.450043 
	C227.584839,157.983566 211.680710,160.504883 196.828369,169.004898 
	C182.179092,177.388657 169.862930,188.319214 160.268127,203.101318 
	C154.340744,212.326584 149.683197,222.079651 147.137421,233.866699 
	C152.422348,223.260742 157.219086,213.634491 162.534119,203.589249 
	C172.580673,190.060928 185.398773,179.717178 200.932770,173.585388 
	C209.247589,170.303253 218.602783,169.619583 227.528564,167.981766 
	C228.392288,167.823273 229.540070,169.212723 230.003036,170.081665 
	C229.262039,170.982773 228.521042,171.883865 227.139755,173.144058 
	C227.136963,173.517059 227.134186,173.890045 227.131393,174.263046 
	C227.581375,174.098480 228.031342,173.933899 228.995758,173.374237 
M285.180298,231.100494 
	C284.412506,232.708420 283.644745,234.316360 282.876953,235.924286 
	C283.402863,236.106750 283.928741,236.289230 284.454651,236.471695 
	C284.985443,234.655594 285.516235,232.839478 286.496918,230.636337 
	C286.496918,229.903824 286.496918,229.171326 286.496918,228.438812 
	C286.168640,228.460129 285.840332,228.481430 285.512054,228.502747 
	C285.617065,229.299179 285.722076,230.095596 285.180298,231.100494 
M242.219299,343.081146 
	C241.139664,345.381317 240.060028,347.681458 238.326385,350.106262 
	C237.581741,351.083130 236.837097,352.060028 236.092438,353.036896 
	C236.583221,353.295532 237.073990,353.554169 237.564774,353.812805 
	C238.049820,352.548462 238.534866,351.284088 239.704605,349.883362 
	C240.823532,347.598358 241.942459,345.313354 243.432678,342.768188 
	C243.421860,342.423920 243.411041,342.079651 243.400223,341.735382 
	C243.229340,342.120056 243.058456,342.504761 242.219299,343.081146 
M294.264221,215.249573 
	C291.519043,218.674042 288.773865,222.098511 286.028687,225.522980 
	C286.606445,225.936722 287.184204,226.350464 287.761963,226.764191 
	C290.215118,222.890305 292.668243,219.016418 295.767792,214.973633 
	C296.357574,214.301102 296.947357,213.628586 297.537140,212.956055 
	C297.171906,212.704437 296.806702,212.452835 296.441467,212.201233 
	C295.910645,213.093536 295.379822,213.985840 294.264221,215.249573 
M340.802948,277.065857 
	C341.597961,277.005310 342.392975,276.944794 343.187958,276.884247 
	C343.193024,276.615509 343.198090,276.346771 343.203156,276.078003 
	C342.149170,275.846100 341.095215,275.614197 339.148682,275.063477 
	C333.514069,275.142303 327.879456,275.221161 322.244843,275.299988 
	C322.270447,275.824554 322.296051,276.349121 322.321655,276.873688 
	C328.220703,276.873688 334.119751,276.873688 340.802948,277.065857 
M223.046585,234.960007 
	C223.916061,236.193222 224.785538,237.426437 225.654999,238.659668 
	C226.011993,238.362152 226.368988,238.064651 226.725967,237.767136 
	C225.603256,236.544144 224.480545,235.321167 223.322052,233.320084 
	C221.120392,227.950729 218.918716,222.581375 216.717056,217.212036 
	C216.915283,223.619995 218.507324,229.508453 223.046585,234.960007 
M202.140228,372.284790 
	C196.075867,372.264313 190.011505,372.243835 183.205994,372.012054 
	C179.957657,371.848877 178.358566,370.123596 177.387024,366.992889 
	C176.161926,363.045074 174.249252,359.310577 172.168686,354.384125 
	C170.115616,359.259003 168.742172,362.520142 166.876602,366.949829 
	C170.666611,373.114136 174.069427,380.904663 179.428635,386.965210 
	C199.972214,410.197144 226.870529,417.903778 257.831757,416.980255 
	C260.820618,416.669159 263.809479,416.358063 266.798340,416.046967 
	C266.777252,415.564026 266.756195,415.081085 266.735107,414.598145 
	C263.474762,414.829681 260.214417,415.061249 256.109955,415.152557 
	C236.552536,415.866028 218.838043,410.188232 202.713455,399.402954 
	C193.522125,393.255157 185.750595,385.661835 180.929169,374.749573 
	C180.953766,374.232208 180.978363,373.714874 181.756622,373.164948 
	C182.489975,373.334412 183.223328,373.503876 184.614075,374.015900 
	C190.735641,373.963806 196.857224,373.911682 203.759155,373.940918 
	C209.240311,372.029388 214.721451,370.117859 220.202606,368.206360 
	C220.042847,367.796143 219.883072,367.385925 219.723312,366.975739 
	C214.136230,368.745178 208.549164,370.514648 202.140228,372.284790 
M216.562027,195.328537 
	C216.557190,195.982742 216.552353,196.636948 216.547501,197.291153 
	C217.032608,196.629623 217.517715,195.968109 218.481888,194.721100 
	C221.180023,188.005676 223.878143,181.290253 227.059067,173.373199 
	C221.429764,180.433029 218.573608,187.399612 216.562027,195.328537 
M310.114227,204.210068 
	C317.025665,201.837906 323.937103,199.465759 331.404480,196.902786 
	C322.845734,197.395401 315.444458,199.414185 308.171875,203.982056 
	C308.203369,204.335129 308.234863,204.688217 308.266357,205.041290 
	C308.646881,204.829895 309.027405,204.618500 310.114227,204.210068 
M158.084671,358.440247 
	C158.120972,357.896820 158.157272,357.353424 157.949493,356.183228 
	C153.670410,350.397644 149.391342,344.612061 144.958786,338.129059 
	C136.187683,321.411804 133.060776,303.439148 135.421310,284.968903 
	C136.551712,276.123901 140.731064,267.650238 143.765259,259.091980 
	C144.114258,258.107605 145.982010,257.661652 147.104263,257.728546 
	C148.849503,263.542175 151.003738,269.121429 155.824020,273.159210 
	C153.304214,267.757233 150.784393,262.355225 148.299805,256.230957 
	C149.430679,254.101883 150.429031,251.888077 151.723404,249.863541 
	C153.681000,246.801682 155.844818,243.871674 157.921005,240.885635 
	C157.574402,240.475739 157.227798,240.065826 156.881195,239.655930 
	C153.071396,240.878708 147.904907,240.963272 145.728989,243.556808 
	C140.921783,249.286728 136.202393,255.825256 133.954865,262.837677 
	C125.273094,289.925201 130.038223,315.646332 144.220474,340.629181 
	C148.683716,346.390900 153.146942,352.152649 158.084671,358.440247 
M311.901947,378.096069 
	C312.210815,377.043762 312.519684,375.991486 312.828522,374.939178 
	C312.343414,374.787720 311.858276,374.636261 311.373169,374.484802 
	C310.922150,375.675171 310.471130,376.865509 309.881317,378.768982 
	C305.905914,386.147552 301.930511,393.526154 297.153900,400.931122 
	C294.676636,401.002228 292.187286,401.259491 289.725037,401.099487 
	C286.266235,400.874725 282.827576,400.339996 279.380310,399.937805 
	C279.214935,400.446899 279.049530,400.955994 278.884155,401.465088 
	C280.875244,403.776581 282.866333,406.088074 284.849823,408.390747 
	C284.196930,408.960419 283.645050,409.441925 282.693604,410.176086 
	C282.690613,410.508118 282.687622,410.840118 282.684631,411.172150 
	C282.811493,410.747284 282.938354,410.322449 283.948730,409.955048 
	C289.558380,410.335907 295.234161,411.464844 300.766907,410.975739 
	C335.553986,407.900116 358.211792,387.677185 374.715942,357.817535 
	C379.168732,348.688538 382.196381,339.154480 383.259735,328.391022 
	C387.228210,321.747192 392.541351,315.550262 394.924438,308.379517 
	C403.670959,282.061523 399.116211,256.938477 385.773834,232.359955 
	C382.324310,226.672302 379.233185,220.683563 373.470490,217.008774 
	C377.279968,222.730286 381.089417,228.451797 384.998322,234.889069 
	C391.393341,248.113281 394.324768,262.106964 394.257629,276.756866 
	C394.199493,289.434784 391.332855,301.400970 384.878845,312.378693 
	C384.372314,313.240234 382.847809,313.503326 381.834839,313.295532 
	C376.573944,295.749908 357.024750,277.102844 342.585693,277.220184 
	C361.371613,284.335938 374.471191,295.696167 380.668854,314.795868 
	C379.808319,316.762054 379.203339,318.898376 378.031952,320.657562 
	C375.854187,323.928131 373.346130,326.978729 370.975555,330.120880 
	C371.279999,330.442291 371.584442,330.763702 371.888885,331.085114 
	C374.942871,330.652313 377.996826,330.219513 381.174255,330.648651 
	C378.478882,339.443665 375.783508,348.238708 372.725861,357.614838 
	C366.078735,369.988983 356.747192,380.008911 345.362457,388.069580 
	C332.388885,397.255188 318.210419,403.310028 301.957245,403.045746 
	C300.661102,403.024658 299.385468,401.743256 298.764404,400.936737 
	C305.690460,395.091766 309.021698,387.176636 311.901947,378.096069 
M347.846283,198.151886 
	C350.834900,203.970688 353.823547,209.789505 356.997345,215.968826 
	C358.771454,212.296234 360.113098,209.518936 361.742493,207.043610 
	C361.915863,207.022247 362.089203,207.000885 362.262573,206.979538 
	C362.039886,206.837311 361.817169,206.695084 361.750336,205.863007 
	C347.403229,168.693558 317.399628,156.241806 279.860321,154.656845 
	C280.249207,155.048508 280.638123,155.440186 281.836884,155.997147 
	C285.910919,156.690079 290.039917,157.153748 294.049774,158.114456 
	C314.584442,163.034302 332.462860,172.339462 344.912964,190.062775 
	C346.380432,192.151794 346.498138,195.188980 346.653412,197.947479 
	C346.300446,198.362518 345.947449,198.777573 345.594452,199.192627 
	C345.826691,199.340851 346.058960,199.489090 346.291229,199.637329 
	C346.598450,199.010941 346.905701,198.384552 347.846283,198.151886 
M242.319351,251.756058 
	C244.492935,252.793304 246.666534,253.830551 249.598389,255.229645 
	C243.613190,263.420959 238.124557,270.932617 233.163010,277.722961 
	C224.341614,268.121582 216.629272,258.744781 207.875488,250.469620 
	C198.709320,241.804626 187.705902,235.923294 174.819702,234.503342 
	C171.414047,234.128052 168.032120,234.625381 168.169922,239.020142 
	C168.281448,242.576828 170.126572,244.911118 174.352570,245.182480 
	C199.465561,246.795029 214.128418,263.869019 228.969528,281.621002 
	C227.263977,283.127441 226.154068,284.107758 224.379227,285.258331 
	C219.255737,288.257507 214.132248,291.256714 208.043823,294.820770 
	C215.467758,293.136108 221.209076,290.463165 226.778046,285.840332 
	C227.703873,285.200195 228.629700,284.560059 230.517868,283.254486 
	C234.602997,292.242249 238.502121,300.820801 242.395508,309.386688 
	C232.413788,311.065247 223.450119,311.994812 214.793823,314.155670 
	C199.542847,317.962708 185.706482,324.599152 175.658218,337.357941 
	C173.578110,339.999115 171.974380,342.969910 175.729446,345.456085 
	C179.016281,347.632233 182.183594,346.993805 184.269806,343.576569 
	C189.966568,334.245209 198.388107,328.227875 208.110519,323.866608 
	C219.201996,318.891266 230.703812,315.397247 243.919052,314.887054 
	C243.919052,322.550507 243.919052,329.789795 243.496826,337.395386 
	C243.716263,338.008972 243.935699,338.622589 244.155151,339.236176 
	C244.434326,338.483887 244.713501,337.731567 245.065216,336.155273 
	C245.541595,328.944153 246.017960,321.733063 246.550537,313.671356 
	C255.734940,314.680878 264.862244,315.684143 273.763763,316.662598 
	C273.900085,317.825500 273.984253,318.017822 273.928619,318.152283 
	C273.485931,319.222595 273.060211,320.303345 272.549133,321.341400 
	C264.713989,337.255463 259.635223,353.893768 261.134583,371.801727 
	C261.649933,377.956879 263.845093,384.029144 265.755493,389.984436 
	C266.660614,392.805939 269.688965,394.503906 272.099976,392.351379 
	C273.882782,390.759674 275.723572,386.668945 274.888733,385.116516 
	C268.452484,373.147949 267.933319,360.572815 270.129639,347.692535 
	C271.826111,337.743408 274.202911,327.924591 279.264954,318.803925 
	C282.333923,319.949799 285.052795,320.964966 287.771667,321.980133 
	C287.944000,321.584442 288.116364,321.188751 288.288727,320.793060 
	C285.657684,319.335175 283.026672,317.877319 279.578033,315.966400 
	C285.126923,308.185638 290.718933,300.344360 296.731750,291.913025 
	C307.540924,309.428436 320.157837,323.218628 337.609802,331.680481 
	C342.884277,334.237885 348.888641,335.407135 354.662933,336.770752 
	C357.898102,337.534729 360.779449,336.452026 360.935150,332.383698 
	C361.080780,328.578796 358.894958,326.579773 355.290466,326.068634 
	C353.155731,325.765930 350.951935,325.872284 348.846191,325.455811 
	C327.196808,321.174683 313.406219,306.355255 300.386261,289.683899 
	C303.500305,287.067261 306.231476,284.772369 308.962616,282.477478 
	C308.769287,282.172272 308.575928,281.867035 308.382599,281.561829 
	C305.307129,283.432800 302.231659,285.303772 298.310455,287.689240 
	C294.327393,278.757446 290.539673,270.263672 286.925476,262.159088 
	C298.315063,259.953979 308.764038,258.630676 318.795105,255.817307 
	C332.280273,252.035172 344.287506,245.272003 353.208984,234.010040 
	C355.403992,231.239227 357.030823,228.221710 353.204895,225.426865 
	C350.418701,223.391556 347.151917,224.909760 344.331207,227.929703 
	C339.163086,233.462830 334.056335,239.370316 327.868958,243.565735 
	C316.391785,251.348007 302.991791,254.318771 289.357025,256.173309 
	C286.178314,256.605652 285.180145,255.521347 284.994781,252.586304 
	C284.720673,248.247025 284.197510,243.923477 283.780396,239.593231 
	C283.577179,239.616653 283.373993,239.640076 283.170776,239.663498 
	C283.170776,245.257660 283.170776,250.851822 283.170776,257.129120 
	C273.587158,256.216858 264.319641,255.334656 254.313538,254.382172 
	C261.094818,240.824966 265.894836,227.937317 267.566620,214.098343 
	C268.858490,203.404144 268.672394,192.796936 264.058655,182.761047 
	C262.817566,180.061340 261.396240,176.979919 257.426697,178.498627 
	C253.949677,179.828903 253.030655,183.711212 254.604187,187.517181 
	C256.308929,191.640472 258.098480,195.843857 258.938477,200.188751 
	C261.915283,215.586304 258.470154,230.266815 253.145828,244.638824 
	C250.439392,251.944290 250.398239,251.929047 242.941559,250.359634 
	C242.743027,250.171906 242.544510,249.984177 242.345993,249.796448 
	C242.242676,250.230194 242.139374,250.663956 242.319351,251.756058 
M507.264587,313.201782 
	C512.866821,318.590576 517.819580,324.958435 524.192139,329.186157 
	C543.971375,342.308228 565.952087,343.647064 588.489441,338.539062 
	C611.238220,333.383209 627.062317,319.552917 635.730225,298.009277 
	C643.533386,278.614990 644.391907,258.431030 640.036011,238.139130 
	C635.554688,217.262802 624.246338,201.263229 604.402222,192.284836 
	C583.412964,182.788361 561.735168,182.786331 540.044189,189.301651 
	C521.455322,194.885193 507.570831,206.889069 500.625366,224.881470 
	C489.075897,254.800629 489.709900,284.432434 507.264587,313.201782 
M1063.487793,267.499481 
	C1063.383911,272.659760 1063.757202,277.887848 1063.036377,282.960449 
	C1062.371338,287.641937 1061.379639,292.648743 1059.053589,296.653809 
	C1051.649902,309.402283 1039.244873,309.741852 1026.557495,308.247589 
	C1014.510376,306.828796 1007.604797,300.275482 1005.557190,288.365997 
	C1004.885742,284.460236 1004.874756,280.410492 1004.866882,276.425964 
	C1004.812195,248.777481 1004.838013,221.128860 1004.838013,193.480270 
	C1004.838013,191.735031 1004.838074,189.989807 1004.838074,188.395691 
	C991.824951,188.395691 979.545105,188.395691 967.021484,188.395691 
	C966.948120,189.740082 966.833252,190.866608 966.832886,191.993164 
	C966.823608,220.974213 966.769409,249.955475 966.879883,278.936096 
	C966.899475,284.076599 967.208679,289.284027 968.077515,294.341400 
	C971.675598,315.285431 983.114563,329.871033 1003.618713,336.606323 
	C1021.986877,342.639893 1040.616333,342.549835 1059.240112,337.987061 
	C1076.354370,333.794128 1088.482422,323.678589 1095.166382,307.110718 
	C1099.248047,296.992981 1100.147583,286.474060 1100.162109,275.779327 
	C1100.199585,248.130814 1100.178101,220.482193 1100.165405,192.833618 
	C1100.164795,191.392517 1100.028809,189.951462 1099.950562,188.407196 
	C1087.700317,188.407196 1075.798584,188.407196 1063.487915,188.407196 
	C1063.487915,214.600037 1063.487915,240.549835 1063.487793,267.499481 
M796.529541,296.470612 
	C796.411499,296.041077 796.386108,295.292786 796.162170,295.227692 
	C784.926697,291.961639 773.674255,288.753998 762.387207,285.529541 
	C759.519470,299.281952 754.943359,304.926910 744.146057,307.998230 
	C741.294922,308.809235 738.263794,309.029083 735.299866,309.395477 
	C719.239624,311.380859 706.514771,303.397766 702.073303,288.022034 
	C697.014709,270.509674 697.331482,252.820389 702.059265,235.301102 
	C704.391235,226.659729 710.381836,220.257294 718.947266,218.504395 
	C726.564697,216.945526 734.822266,217.032898 742.582336,218.043900 
	C751.470215,219.201874 755.928711,225.153824 756.925964,234.138016 
	C757.208130,236.679947 757.263794,239.247025 757.431580,241.934433 
	C770.138062,239.128571 782.403992,236.419998 794.579041,233.731491 
	C795.811584,215.054626 786.356750,199.110245 769.368896,192.014664 
	C747.784790,182.999252 725.658386,182.611176 703.456787,189.532883 
	C683.058411,195.892395 669.487732,209.663589 663.245178,229.903473 
	C656.506592,251.751282 656.575562,273.915222 663.669373,295.762665 
	C669.509338,313.748627 680.697815,327.325684 698.490540,334.598602 
	C718.642883,342.835968 739.431091,343.556580 760.094910,337.265045 
	C779.846680,331.251190 792.030823,317.607666 796.529541,296.470612 
M853.232910,235.022095 
	C856.716736,225.255203 863.473267,218.991516 873.743896,217.526245 
	C879.604553,216.690155 885.757690,216.554077 891.614563,217.335892 
	C902.272888,218.758667 907.030457,224.372665 908.238831,235.311234 
	C908.470825,237.411484 908.558716,239.527634 908.733093,241.909210 
	C921.244202,239.134583 933.477051,236.421677 945.849426,233.677811 
	C946.769592,216.777161 940.642395,203.475098 926.203308,195.201447 
	C904.125244,182.550613 880.466248,182.406998 856.573059,188.978546 
	C834.756348,194.978973 820.846985,209.536804 814.115967,230.882462 
	C807.570801,251.638794 807.981995,272.703186 813.992737,293.388580 
	C820.174622,314.663116 833.641846,329.988434 855.201904,336.720795 
	C875.079712,342.927887 895.231812,343.331360 914.990112,335.958405 
	C933.767456,328.951569 944.014954,314.742188 948.036926,295.212067 
	C936.380676,291.954681 924.987244,288.770752 913.266602,285.495361 
	C912.412781,298.394104 905.445312,305.502197 893.938171,308.452911 
	C890.740723,309.272797 887.339111,309.748138 884.047546,309.672028 
	C868.868469,309.320709 858.025085,304.389465 853.330322,288.009247 
	C848.384888,270.754578 848.229736,253.225693 853.232910,235.022095 
M1198.558228,292.044617 
	C1209.241821,290.297821 1219.141724,286.829651 1227.454712,279.521515 
	C1240.137085,268.372131 1242.891846,253.593460 1242.716431,237.841797 
	C1242.594360,226.874802 1240.743530,216.233932 1233.745972,207.257309 
	C1224.245972,195.070511 1210.848511,189.955734 1196.211060,189.188797 
	C1175.443481,188.100708 1154.601318,188.435165 1133.791016,188.165955 
	C1132.349487,188.147293 1130.907471,188.163513 1129.502441,188.163513 
	C1129.502441,238.389069 1129.502441,288.098999 1129.502441,337.661377 
	C1142.256470,337.661377 1154.669067,337.661377 1167.454834,337.661377 
	C1167.454834,322.892761 1167.454834,308.465027 1167.454834,294.511688 
	C1177.813354,293.705170 1187.754272,292.931152 1198.558228,292.044617 
M1263.481201,336.044556 
	C1264.199463,336.698944 1264.912109,337.916382 1265.636841,337.923676 
	C1277.437500,338.042328 1289.239868,338.007751 1301.262573,338.007751 
	C1301.262573,287.936340 1301.262573,238.205811 1301.262573,188.448273 
	C1288.598389,188.448273 1276.203003,188.448273 1263.472168,188.448273 
	C1263.472168,237.535202 1263.472168,286.325409 1263.481201,336.044556 
M935.326538,382.233734 
	C933.183716,379.078308 931.040955,375.922913 928.265137,371.835266 
	C928.265137,378.360077 928.265137,383.460236 928.265137,388.560394 
	C928.651001,388.574310 929.036865,388.588257 929.422791,388.602203 
	C929.592407,385.478577 929.762024,382.354950 929.994995,378.065430 
	C932.852051,382.296021 935.060730,385.566498 937.982361,389.892639 
	C937.982361,383.310211 937.982361,378.201141 937.982361,373.092072 
	C937.660583,373.079712 937.338806,373.067383 937.017090,373.055023 
	C936.759155,376.090546 936.501221,379.126099 935.326538,382.233734 
M613.774597,380.352448 
	C613.886780,378.532562 614.761353,375.693481 613.960388,375.094208 
	C611.985291,373.616608 609.241150,373.167084 606.534546,372.207977 
	C606.534546,378.380798 606.534546,383.407532 606.534546,388.434265 
	C606.897522,388.447357 607.260498,388.460449 607.623413,388.473572 
	C607.835815,386.435089 608.048218,384.396606 608.316956,381.817169 
	C610.254578,384.531555 611.748962,386.624939 613.243286,388.718323 
	C613.622620,388.464325 614.001953,388.210327 614.381287,387.956360 
	C613.620361,386.585236 612.592285,385.284882 612.203003,383.815338 
	C611.984131,382.989319 612.820496,381.883789 613.774597,380.352448 
M899.595520,384.714935 
	C901.957642,385.769562 904.319763,386.824158 907.099304,388.065155 
	C904.965637,382.969025 902.815125,377.832703 900.664612,372.696381 
	C900.210815,372.703613 899.757019,372.710876 899.303223,372.718109 
	C897.117188,377.864288 894.931091,383.010468 892.230103,389.368805 
	C895.366211,387.133667 897.061462,385.925446 899.595520,384.714935 
M669.500732,388.914734 
	C675.523682,388.611328 678.725708,385.416443 678.313904,380.121277 
	C677.869995,374.412628 674.059509,372.306763 665.652527,373.380920 
	C665.652527,377.614563 665.470642,381.913574 665.789429,386.175110 
	C665.862671,387.154114 667.656067,388.004456 669.500732,388.914734 
M635.812683,378.714661 
	C635.812683,381.990631 635.812683,385.266632 635.812683,389.030304 
	C639.026306,388.865051 641.669800,388.729126 644.313293,388.593201 
	C644.292908,388.126465 644.272522,387.659729 644.252136,387.192963 
	C642.191956,387.020782 640.131775,386.848572 638.055054,386.674988 
	C638.055054,384.934143 638.055054,383.500549 638.055054,382.089844 
	C639.984253,381.714081 641.702026,381.379517 643.419861,381.044922 
	C643.377441,380.712555 643.335022,380.380188 643.292603,380.047852 
	C641.566895,379.823822 639.841187,379.599823 637.808167,379.335907 
	C637.942017,377.743683 638.057129,376.374878 638.150513,375.264160 
	C640.589783,374.934113 642.483337,374.677887 644.376953,374.421661 
	C644.327454,374.021759 644.277954,373.621857 644.228516,373.221954 
	C641.518616,373.221954 638.808777,373.221954 635.812195,373.221954 
	C635.812195,374.847870 635.812195,376.329254 635.812683,378.714661 
M1070.967651,382.811066 
	C1072.606323,384.729919 1074.245117,386.648804 1075.883789,388.567688 
	C1076.158081,388.363495 1076.432495,388.159271 1076.706787,387.955048 
	C1075.804810,386.117828 1074.902832,384.280579 1074.000854,382.443359 
	C1075.768188,380.217560 1077.576782,376.982910 1076.637939,375.556213 
	C1075.395752,373.668701 1072.003296,373.196259 1069.013672,371.887360 
	C1069.013672,378.426758 1069.013672,383.523163 1069.013672,388.619568 
	C1069.343018,388.631927 1069.672363,388.644287 1070.001709,388.656647 
	C1070.164551,386.934631 1070.327393,385.212646 1070.967651,382.811066 
M1042.723633,379.706757 
	C1041.944458,378.352966 1041.165283,376.999176 1040.156860,375.247070 
	C1043.373291,374.944489 1045.332153,374.760223 1047.291016,374.575928 
	C1047.251953,374.165863 1047.212891,373.755768 1047.173950,373.345673 
	C1044.458252,373.345673 1041.742554,373.345673 1038.999023,373.345673 
	C1038.999023,378.570984 1038.999023,383.519196 1038.999023,388.987091 
	C1041.914673,388.854889 1044.594971,388.733368 1047.275269,388.611847 
	C1047.263306,388.142212 1047.251221,387.672607 1047.239136,387.203003 
	C1045.208496,387.027893 1043.177856,386.852814 1040.815918,386.649139 
	C1040.916138,384.909332 1041.003784,383.386444 1041.084717,381.980560 
	C1043.200684,381.654053 1044.812866,381.405273 1046.425171,381.156464 
	C1046.400513,380.803741 1046.375977,380.451019 1046.351318,380.098297 
	C1045.416504,379.970978 1044.481567,379.843628 1042.723633,379.706757 
M1008.964844,384.152252 
	C1009.070923,385.608551 1009.177002,387.064850 1009.283081,388.521118 
	C1009.718079,388.507874 1010.153076,388.494598 1010.588074,388.481354 
	C1010.795654,386.477905 1011.003296,384.474487 1011.235229,382.236725 
	C1014.580750,381.770050 1018.720825,381.309753 1017.747009,376.544098 
	C1016.798340,371.901550 1012.812500,372.825897 1008.964600,373.234070 
	C1008.964600,376.697418 1008.964600,379.965881 1008.964844,384.152252 
M576.748352,373.239655 
	C575.597717,378.406097 575.907227,383.487518 576.566772,388.548584 
	C576.999084,388.534363 577.431458,388.520142 577.863831,388.505951 
	C578.029907,386.405975 578.196045,384.306000 578.367798,382.135620 
	C581.819824,381.950897 585.180847,381.531342 585.070190,377.198853 
	C584.986145,373.908905 582.698303,372.714905 579.587280,372.912231 
	C578.925415,372.954193 578.259766,372.938354 576.748352,373.239655 
M836.953796,386.790131 
	C837.571960,387.085785 838.190125,387.381439 838.808289,387.677124 
	C838.910400,385.888519 839.012512,384.099915 839.125366,382.122467 
	C842.700500,381.927124 846.473083,381.179993 845.755127,376.826172 
	C844.930359,371.825134 840.820679,372.788818 836.948181,373.264526 
	C836.948181,377.704987 836.948181,381.812561 836.953796,386.790131 
M1127.314697,386.058655 
	C1128.704834,389.493958 1131.857178,390.072510 1136.425293,387.313721 
	C1133.799683,387.020721 1131.651123,386.780945 1129.280518,386.516388 
	C1129.427490,384.866180 1129.552490,383.462921 1129.668091,382.165771 
	C1131.724731,381.766174 1133.407227,381.439240 1135.089844,381.112305 
	C1132.706299,379.136261 1127.569580,381.012878 1129.907104,375.362061 
	C1131.965332,375.031250 1134.023560,374.700409 1136.081909,374.369568 
	C1136.029297,373.992889 1135.976685,373.616180 1135.924072,373.239502 
	C1133.251831,373.239502 1130.579590,373.239502 1127.308228,373.239502 
	C1127.308228,377.266693 1127.308228,381.205872 1127.314697,386.058655 
M1166.022705,375.022827 
	C1167.426025,375.550995 1168.829346,376.079163 1170.232666,376.607300 
	C1168.229980,372.572418 1164.962891,372.259186 1161.575684,373.617920 
	C1158.145630,374.993866 1156.474121,377.858307 1156.903198,381.609558 
	C1157.382080,385.795837 1159.984253,388.105713 1164.024902,388.784668 
	C1166.950317,389.276215 1169.116455,388.215424 1170.203735,386.544647 
	C1166.740967,386.006653 1163.390991,386.038177 1160.617065,384.789642 
	C1159.470825,384.273712 1158.555908,380.399475 1159.322754,379.142853 
	C1160.481079,377.244354 1163.203979,376.300476 1166.022705,375.022827 
M725.485657,375.912109 
	C722.835144,380.887299 723.596313,385.362915 727.480164,387.639252 
	C731.554260,390.027100 735.016052,389.217896 737.583191,384.748413 
	C733.119629,386.891876 728.407898,388.680359 726.353882,383.159576 
	C723.696167,376.016388 729.903625,375.240448 735.106934,374.161072 
	C734.763672,373.565002 734.420349,372.968933 734.077026,372.372864 
	C731.371765,373.359497 728.666443,374.346161 725.485657,375.912109 
M1098.148193,383.192322 
	C1098.295410,385.019775 1098.442627,386.847198 1098.589844,388.674652 
	C1098.999634,388.667969 1099.409546,388.661316 1099.819458,388.654633 
	C1100.032593,386.481201 1100.245728,384.307770 1100.448975,382.234894 
	C1102.509399,381.935730 1104.251343,381.682831 1105.993164,381.429932 
	C1105.950195,381.045929 1105.907227,380.661926 1105.864258,380.277924 
	C1103.996948,380.037994 1102.129639,379.798035 1100.130127,379.541138 
	C1100.218750,377.965881 1100.296997,376.576050 1100.369629,375.284790 
	C1102.893188,374.939514 1104.946411,374.658569 1106.999634,374.377625 
	C1106.942993,373.982910 1106.886230,373.588196 1106.829590,373.193481 
	C1104.112793,373.193481 1101.396118,373.193481 1098.148560,373.193481 
	C1098.148560,376.405853 1098.148560,379.348877 1098.148193,383.192322 
M866.736694,376.128479 
	C866.736694,380.261841 866.736694,384.395203 866.736694,389.137390 
	C869.478088,388.853546 871.664490,388.627197 873.850891,388.400848 
	C873.823669,388.020264 873.796448,387.639709 873.769226,387.259125 
	C872.215393,387.044220 870.661560,386.829285 868.352905,386.509979 
	C868.352905,381.951324 868.352905,377.487976 868.352905,373.024658 
	C867.979492,373.027893 867.606140,373.031158 867.232727,373.034393 
	C867.068481,373.776794 866.904297,374.519165 866.736694,376.128479 
M314.009766,364.380005 
	C313.676758,360.783203 313.343719,357.186371 313.010712,353.589569 
	C312.454010,353.657104 311.897339,353.724640 311.340637,353.792175 
	C311.340637,359.881317 311.340637,365.970428 311.340637,372.059570 
	C311.838989,372.140778 312.337341,372.221985 312.835693,372.303162 
	C313.227051,369.966370 313.618408,367.629547 314.009766,364.380005 
M758.218201,374.247650 
	C759.401855,374.625519 760.585571,375.003387 762.257996,375.537292 
	C762.257996,379.804718 762.257996,384.123047 762.257996,388.441376 
	C762.659607,388.453705 763.061157,388.466003 763.462769,388.478333 
	C763.462769,384.191193 763.462769,379.904083 763.462769,375.707184 
	C765.317017,375.034210 766.548706,374.587219 767.780396,374.140228 
	C767.730225,373.741547 767.680054,373.342896 767.629883,372.944214 
	C764.482300,373.082123 761.334656,373.220062 758.218201,374.247650 
M1197.349365,375.162506 
	C1198.538208,374.836700 1199.727051,374.510895 1200.915894,374.185120 
	C1200.821045,373.908997 1200.726196,373.632904 1200.631226,373.356781 
	C1197.499634,373.356781 1194.367920,373.356781 1191.236206,373.356781 
	C1191.194824,373.643036 1191.153564,373.929321 1191.112183,374.215576 
	C1192.356445,374.619659 1193.600830,375.023743 1195.377441,375.600677 
	C1195.377441,379.864563 1195.377441,384.149536 1195.377441,388.434479 
	C1195.927612,388.432434 1196.477783,388.430389 1197.027954,388.428314 
	C1197.027954,384.282318 1197.027954,380.136292 1197.349365,375.162506 
M257.577484,156.070450 
	C256.100159,156.513275 254.622849,156.956100 253.145523,157.398926 
	C253.225113,157.741241 253.304688,158.083572 253.384277,158.425888 
	C259.459656,157.509460 265.535034,156.593033 271.610413,155.676620 
	C271.546661,155.200073 271.482941,154.723526 271.419220,154.246979 
	C267.084351,154.813660 262.749481,155.380325 257.577484,156.070450 
M700.041992,377.722626 
	C700.041992,381.302704 700.041992,384.882782 700.041992,388.462860 
	C700.525208,388.440216 701.008362,388.417542 701.491577,388.394867 
	C701.491577,383.343109 701.491577,378.291321 701.491577,373.239563 
	C701.157166,373.226562 700.822693,373.213593 700.488281,373.200592 
	C700.339539,374.402069 700.190735,375.603546 700.041992,377.722626 
M215.586700,213.221069 
	C218.415512,209.422089 216.791534,205.624481 216.481796,201.826462 
	C216.037735,201.823547 215.593658,201.820633 215.149582,201.817719 
	C215.149582,205.402939 215.149582,208.988159 215.586700,213.221069 
M225.184494,362.752899 
	C224.115997,363.684937 223.047501,364.616974 221.978989,365.549011 
	C222.221771,365.835815 222.464539,366.122650 222.707306,366.409485 
	C225.079269,364.708649 227.451218,363.007812 229.823181,361.306976 
	C229.596512,360.944122 229.369843,360.581268 229.143173,360.218414 
	C227.990723,360.905457 226.838257,361.592529 225.184494,362.752899 
M197.912369,297.008881 
	C198.552597,296.942657 199.192810,296.876404 200.405045,296.750946 
	C196.595673,295.687225 193.396118,294.793762 190.196564,293.900299 
	C190.075439,294.469025 189.954315,295.037720 189.833191,295.606415 
	C192.271942,296.074402 194.710693,296.542389 197.912369,297.008881 
M341.986328,196.218201 
	C340.921509,196.218201 339.856659,196.218201 338.791840,196.218201 
	C338.682526,196.651184 338.573212,197.084183 338.463898,197.517166 
	C339.777313,197.982010 341.090759,198.446838 342.404205,198.911682 
	C342.456146,198.140244 342.508118,197.368820 341.986328,196.218201 
M272.388794,155.567520 
	C274.460632,155.567520 276.532471,155.567520 278.604279,155.567520 
	C278.594604,155.091339 278.584900,154.615158 278.575226,154.138977 
	C276.502045,154.261078 274.428894,154.383179 272.388794,155.567520 
M235.679688,246.124329 
	C235.519562,246.150894 235.335403,246.137558 235.206131,246.215378 
	C235.080322,246.291122 234.922562,246.567886 234.928802,246.572998 
	C235.948242,247.406616 236.981216,248.223694 238.013657,249.041412 
	C238.220123,248.751114 238.426605,248.460815 238.633087,248.170517 
	C237.823471,247.530838 237.013855,246.891174 235.679688,246.124329 
M277.430328,413.264404 
	C277.453339,412.726044 277.491364,412.186951 277.463623,411.651215 
	C277.461884,411.617523 276.946289,411.610474 276.669739,411.591064 
	C276.755493,412.113770 276.841248,412.636444 277.430328,413.264404 
M310.953766,279.660187 
	C310.612915,280.031281 310.272064,280.402374 309.931213,280.773499 
	C310.470337,280.926239 311.009491,281.078979 311.548615,281.231720 
	C311.517792,280.708679 311.487000,280.185669 310.953766,279.660187 
M203.723373,295.535522 
	C203.993759,295.278564 204.266693,295.023987 204.520279,294.751404 
	C204.526825,294.744385 204.321732,294.540466 204.215363,294.428345 
	C203.944839,294.685883 203.674332,294.943390 203.723373,295.535522 
M270.577271,413.811615 
	C270.207611,413.807281 269.837769,413.799530 269.469269,413.817932 
	C269.459869,413.818420 269.454254,414.238739 269.464386,414.239563 
	C269.832306,414.268402 270.202301,414.270630 270.577271,413.811615 
M303.185455,206.834778 
	C303.354736,207.211899 303.524017,207.589035 303.693268,207.966171 
	C304.164337,207.441345 304.635406,206.916504 305.106445,206.391663 
	C304.680786,206.368530 304.255127,206.345398 303.185455,206.834778 
M274.864258,413.203217 
	C274.476990,413.417297 274.064941,413.600769 273.726257,413.874908 
	C273.668182,413.921936 273.922852,414.355377 274.033051,414.610321 
	C274.321533,414.297821 274.610016,413.985321 274.864258,413.203217 
M232.192245,244.582245 
	C232.196625,244.208923 232.200989,243.835587 232.205368,243.462265 
	C232.050644,243.460632 231.761459,243.448456 231.760620,243.458908 
	C231.731445,243.830276 231.729294,244.203766 232.192245,244.582245 
M291.318298,322.875122 
	C291.031281,322.528076 290.744293,322.181000 290.457245,321.833954 
	C290.338013,322.110535 290.060638,322.577942 290.125885,322.631989 
	C290.483917,322.928711 290.925842,323.124146 291.318298,322.875122 
M246.099655,160.525070 
	C246.271973,160.714859 246.444290,160.904648 246.616608,161.094421 
	C246.690567,160.807373 246.764542,160.520325 246.838501,160.233276 
	C246.616074,160.193359 246.393661,160.153442 246.099655,160.525070 
M736.317078,374.984833 
	C736.585144,375.174164 736.853271,375.363464 737.121399,375.552765 
	C736.929932,375.270569 736.738464,374.988373 736.317078,374.984833 
M280.530823,410.821686 
	C280.459290,411.226227 280.387756,411.630798 280.316284,412.035339 
	C280.488129,411.727142 280.660004,411.418945 280.530823,410.821686 
M315.200989,278.071869 
	C315.345123,278.403473 315.489227,278.735046 315.633362,279.066650 
	C315.603180,278.656708 315.572968,278.246796 315.200989,278.071869 
M294.284088,325.050293 
	C293.974152,325.079681 293.664185,325.109039 293.354248,325.138397 
	C293.685028,325.241638 294.015839,325.344879 294.284088,325.050293 
M313.902893,279.478485 
	C313.729492,279.288269 313.556122,279.098053 313.382751,278.907837 
	C313.308350,279.195740 313.233948,279.483643 313.159546,279.771515 
	C313.383148,279.811523 313.606781,279.851501 313.902893,279.478485 
M249.180313,159.911682 
	C249.402664,159.864410 249.625015,159.817139 249.847366,159.769852 
	C249.767624,159.482132 249.687897,159.194427 249.608154,158.906708 
	C249.438736,159.103424 249.269302,159.300140 249.180313,159.911682 
M229.713745,241.165115 
	C229.630722,241.217239 229.547714,241.269363 229.713745,241.165115 
M311.522583,347.667419 
	C311.595734,347.735352 311.668884,347.803253 311.522583,347.667419 
M317.515259,278.425842 
	C317.515259,278.425842 317.569244,278.521545 317.515259,278.425842 
M318.513763,276.432648 
	C318.513763,276.432648 318.562073,276.521118 318.513763,276.432648 
M306.500000,205.999985 
	C306.633331,205.799988 306.766663,205.599991 306.899994,205.399994 
	C306.600006,205.433334 306.299988,205.466660 306.500000,205.999985 
M252.485764,159.568680 
	C252.485764,159.568680 252.435867,159.477631 252.485764,159.568680 
z"/>
<path fill="#FDFDFD" opacity="1.000000" stroke="none" 
	d="
M507.083069,312.892212 
	C489.709900,284.432434 489.075897,254.800629 500.625366,224.881470 
	C507.570831,206.889069 521.455322,194.885193 540.044189,189.301651 
	C561.735168,182.786331 583.412964,182.788361 604.402222,192.284836 
	C624.246338,201.263229 635.554688,217.262802 640.036011,238.139130 
	C644.391907,258.431030 643.533386,278.614990 635.730225,298.009277 
	C627.062317,319.552917 611.238220,333.383209 588.489441,338.539062 
	C565.952087,343.647064 543.971375,342.308228 524.192139,329.186157 
	C517.819580,324.958435 512.866821,318.590576 507.083069,312.892212 
M534.242920,249.975662 
	C532.750610,261.645660 533.212708,273.224030 535.977783,284.675049 
	C539.778564,300.415161 550.508545,309.458405 567.133850,309.629456 
	C581.609558,309.778320 593.258057,304.853210 598.928467,286.879547 
	C603.789612,271.470978 603.639832,255.634216 599.510498,240.068390 
	C593.757629,218.382477 567.586792,209.032959 548.922791,221.758469 
	C539.333008,228.296997 536.042847,238.284027 534.242920,249.975662 
z"/>
<path fill="#FDFDFD" opacity="1.000000" stroke="none" 
	d="
M1063.487793,266.999573 
	C1063.487915,240.549835 1063.487915,214.600037 1063.487915,188.407196 
	C1075.798584,188.407196 1087.700317,188.407196 1099.950562,188.407196 
	C1100.028809,189.951462 1100.164795,191.392517 1100.165405,192.833618 
	C1100.178101,220.482193 1100.199585,248.130814 1100.162109,275.779327 
	C1100.147583,286.474060 1099.248047,296.992981 1095.166382,307.110718 
	C1088.482422,323.678589 1076.354370,333.794128 1059.240112,337.987061 
	C1040.616333,342.549835 1021.986877,342.639893 1003.618713,336.606323 
	C983.114563,329.871033 971.675598,315.285431 968.077515,294.341400 
	C967.208679,289.284027 966.899475,284.076599 966.879883,278.936096 
	C966.769409,249.955475 966.823608,220.974213 966.832886,191.993164 
	C966.833252,190.866608 966.948120,189.740082 967.021484,188.395691 
	C979.545105,188.395691 991.824951,188.395691 1004.838074,188.395691 
	C1004.838074,189.989807 1004.838013,191.735031 1004.838013,193.480270 
	C1004.838013,221.128860 1004.812195,248.777481 1004.866882,276.425964 
	C1004.874756,280.410492 1004.885742,284.460236 1005.557190,288.365997 
	C1007.604797,300.275482 1014.510376,306.828796 1026.557495,308.247589 
	C1039.244873,309.741852 1051.649902,309.402283 1059.053589,296.653809 
	C1061.379639,292.648743 1062.371338,287.641937 1063.036377,282.960449 
	C1063.757202,277.887848 1063.383911,272.659760 1063.487793,266.999573 
z"/>
<path fill="#FDFDFD" opacity="1.000000" stroke="none" 
	d="
M796.416138,296.838226 
	C792.030823,317.607666 779.846680,331.251190 760.094910,337.265045 
	C739.431091,343.556580 718.642883,342.835968 698.490540,334.598602 
	C680.697815,327.325684 669.509338,313.748627 663.669373,295.762665 
	C656.575562,273.915222 656.506592,251.751282 663.245178,229.903473 
	C669.487732,209.663589 683.058411,195.892395 703.456787,189.532883 
	C725.658386,182.611176 747.784790,182.999252 769.368896,192.014664 
	C786.356750,199.110245 795.811584,215.054626 794.579041,233.731491 
	C782.403992,236.419998 770.138062,239.128571 757.431580,241.934433 
	C757.263794,239.247025 757.208130,236.679947 756.925964,234.138016 
	C755.928711,225.153824 751.470215,219.201874 742.582336,218.043900 
	C734.822266,217.032898 726.564697,216.945526 718.947266,218.504395 
	C710.381836,220.257294 704.391235,226.659729 702.059265,235.301102 
	C697.331482,252.820389 697.014709,270.509674 702.073303,288.022034 
	C706.514771,303.397766 719.239624,311.380859 735.299866,309.395477 
	C738.263794,309.029083 741.294922,308.809235 744.146057,307.998230 
	C754.943359,304.926910 759.519470,299.281952 762.387207,285.529541 
	C773.674255,288.753998 784.926697,291.961639 796.162170,295.227692 
	C796.386108,295.292786 796.411499,296.041077 796.416138,296.838226 
z"/>
<path fill="#FDFDFD" opacity="1.000000" stroke="none" 
	d="
M853.137573,235.407654 
	C848.229736,253.225693 848.384888,270.754578 853.330322,288.009247 
	C858.025085,304.389465 868.868469,309.320709 884.047546,309.672028 
	C887.339111,309.748138 890.740723,309.272797 893.938171,308.452911 
	C905.445312,305.502197 912.412781,298.394104 913.266602,285.495361 
	C924.987244,288.770752 936.380676,291.954681 948.036926,295.212067 
	C944.014954,314.742188 933.767456,328.951569 914.990112,335.958405 
	C895.231812,343.331360 875.079712,342.927887 855.201904,336.720795 
	C833.641846,329.988434 820.174622,314.663116 813.992737,293.388580 
	C807.981995,272.703186 807.570801,251.638794 814.115967,230.882462 
	C820.846985,209.536804 834.756348,194.978973 856.573059,188.978546 
	C880.466248,182.406998 904.125244,182.550613 926.203308,195.201447 
	C940.642395,203.475098 946.769592,216.777161 945.849426,233.677811 
	C933.477051,236.421677 921.244202,239.134583 908.733093,241.909210 
	C908.558716,239.527634 908.470825,237.411484 908.238831,235.311234 
	C907.030457,224.372665 902.272888,218.758667 891.614563,217.335892 
	C885.757690,216.554077 879.604553,216.690155 873.743896,217.526245 
	C863.473267,218.991516 856.716736,225.255203 853.137573,235.407654 
z"/>
<path fill="#FDFDFD" opacity="1.000000" stroke="none" 
	d="
M1198.126709,292.100891 
	C1187.754272,292.931152 1177.813354,293.705170 1167.454834,294.511688 
	C1167.454834,308.465027 1167.454834,322.892761 1167.454834,337.661377 
	C1154.669067,337.661377 1142.256470,337.661377 1129.502441,337.661377 
	C1129.502441,288.098999 1129.502441,238.389069 1129.502441,188.163513 
	C1130.907471,188.163513 1132.349487,188.147293 1133.791016,188.165955 
	C1154.601318,188.435165 1175.443481,188.100708 1196.211060,189.188797 
	C1210.848511,189.955734 1224.245972,195.070511 1233.745972,207.257309 
	C1240.743530,216.233932 1242.594360,226.874802 1242.716431,237.841797 
	C1242.891846,253.593460 1240.137085,268.372131 1227.454712,279.521515 
	C1219.141724,286.829651 1209.241821,290.297821 1198.126709,292.100891 
M1188.369751,220.919205 
	C1181.459473,220.490784 1174.549072,220.062347 1167.425537,219.620697 
	C1167.425537,234.014603 1167.425537,247.571609 1167.425537,261.086731 
	C1173.487671,261.086731 1179.300903,261.362793 1185.078857,261.027374 
	C1195.996460,260.393585 1201.921509,255.069077 1202.829102,245.109131 
	C1203.964844,232.646484 1200.981934,223.389420 1188.369751,220.919205 
z"/>
<path fill="#F9F9F9" opacity="1.000000" stroke="none" 
	d="
M1263.476685,335.580078 
	C1263.472168,286.325409 1263.472168,237.535202 1263.472168,188.448273 
	C1276.203003,188.448273 1288.598389,188.448273 1301.262573,188.448273 
	C1301.262573,238.205811 1301.262573,287.936340 1301.262573,338.007751 
	C1289.239868,338.007751 1277.437500,338.042328 1265.636841,337.923676 
	C1264.912109,337.916382 1264.199463,336.698944 1263.476685,335.580078 
z"/>
<path fill="#F6F6F6" opacity="1.000000" stroke="none" 
	d="
M225.044128,285.088043 
	C226.154068,284.107758 227.263977,283.127441 228.969528,281.621002 
	C214.128418,263.869019 199.465561,246.795029 174.352570,245.182480 
	C170.126572,244.911118 168.281448,242.576828 168.169922,239.020142 
	C168.032120,234.625381 171.414047,234.128052 174.819702,234.503342 
	C187.705902,235.923294 198.709320,241.804626 207.875488,250.469620 
	C216.629272,258.744781 224.341614,268.121582 233.163010,277.722961 
	C238.124557,270.932617 243.613190,263.420959 249.598389,255.229645 
	C246.666534,253.830551 244.492935,252.793304 242.421524,251.365692 
	C242.683090,250.923599 242.842484,250.871872 243.001877,250.820129 
	C250.398239,251.929047 250.439392,251.944290 253.145828,244.638824 
	C258.470154,230.266815 261.915283,215.586304 258.938477,200.188751 
	C258.098480,195.843857 256.308929,191.640472 254.604187,187.517181 
	C253.030655,183.711212 253.949677,179.828903 257.426697,178.498627 
	C261.396240,176.979919 262.817566,180.061340 264.058655,182.761047 
	C268.672394,192.796936 268.858490,203.404144 267.566620,214.098343 
	C265.894836,227.937317 261.094818,240.824966 254.313538,254.382172 
	C264.319641,255.334656 273.587158,256.216858 283.170776,257.129120 
	C283.170776,250.851822 283.170776,245.257660 283.170776,239.663498 
	C283.373993,239.640076 283.577179,239.616653 283.780396,239.593231 
	C284.197510,243.923477 284.720673,248.247025 284.994781,252.586304 
	C285.180145,255.521347 286.178314,256.605652 289.357025,256.173309 
	C302.991791,254.318771 316.391785,251.348007 327.868958,243.565735 
	C334.056335,239.370316 339.163086,233.462830 344.331207,227.929703 
	C347.151917,224.909760 350.418701,223.391556 353.204895,225.426865 
	C357.030823,228.221710 355.403992,231.239227 353.208984,234.010040 
	C344.287506,245.272003 332.280273,252.035172 318.795105,255.817307 
	C308.764038,258.630676 298.315063,259.953979 286.925476,262.159088 
	C290.539673,270.263672 294.327393,278.757446 298.310455,287.689240 
	C302.231659,285.303772 305.307129,283.432800 308.382599,281.561829 
	C308.575928,281.867035 308.769287,282.172272 308.962616,282.477478 
	C306.231476,284.772369 303.500305,287.067261 300.386261,289.683899 
	C313.406219,306.355255 327.196808,321.174683 348.846191,325.455811 
	C350.951935,325.872284 353.155731,325.765930 355.290466,326.068634 
	C358.894958,326.579773 361.080780,328.578796 360.935150,332.383698 
	C360.779449,336.452026 357.898102,337.534729 354.662933,336.770752 
	C348.888641,335.407135 342.884277,334.237885 337.609802,331.680481 
	C320.157837,323.218628 307.540924,309.428436 296.731750,291.913025 
	C290.718933,300.344360 285.126923,308.185638 279.578033,315.966400 
	C283.026672,317.877319 285.657684,319.335175 288.288727,320.793060 
	C288.116364,321.188751 287.944000,321.584442 287.771667,321.980133 
	C285.052795,320.964966 282.333923,319.949799 279.264954,318.803925 
	C274.202911,327.924591 271.826111,337.743408 270.129639,347.692535 
	C267.933319,360.572815 268.452484,373.147949 274.888733,385.116516 
	C275.723572,386.668945 273.882782,390.759674 272.099976,392.351379 
	C269.688965,394.503906 266.660614,392.805939 265.755493,389.984436 
	C263.845093,384.029144 261.649933,377.956879 261.134583,371.801727 
	C259.635223,353.893768 264.713989,337.255463 272.549133,321.341400 
	C273.060211,320.303345 273.485931,319.222595 273.928619,318.152283 
	C273.984253,318.017822 273.900085,317.825500 273.763763,316.662598 
	C264.862244,315.684143 255.734940,314.680878 246.550537,313.671356 
	C246.017960,321.733063 245.541595,328.944153 244.762939,336.631348 
	C244.280121,337.081299 244.099579,337.055176 243.919052,337.029083 
	C243.919052,329.789795 243.919052,322.550507 243.919052,314.887054 
	C230.703812,315.397247 219.201996,318.891266 208.110519,323.866608 
	C198.388107,328.227875 189.966568,334.245209 184.269806,343.576569 
	C182.183594,346.993805 179.016281,347.632233 175.729446,345.456085 
	C171.974380,342.969910 173.578110,339.999115 175.658218,337.357941 
	C185.706482,324.599152 199.542847,317.962708 214.793823,314.155670 
	C223.450119,311.994812 232.413788,311.065247 242.395508,309.386688 
	C238.502121,300.820801 234.602997,292.242249 230.517868,283.254486 
	C228.629700,284.560059 227.703873,285.200195 226.239105,285.849762 
	C225.481491,285.602142 225.262802,285.345062 225.044128,285.088043 
M294.007690,286.776001 
	C290.666931,278.344788 287.326202,269.913605 284.001038,261.521729 
	C273.911774,259.932465 263.468567,258.287445 252.865479,256.617249 
	C250.080856,260.419373 247.183517,264.676361 243.970139,268.679657 
	C240.648987,272.817230 237.020767,276.708313 233.894226,280.286774 
	C237.183777,289.269592 240.540405,297.907776 243.447159,306.694794 
	C244.318604,309.329163 245.426071,310.320709 248.113861,310.664520 
	C256.011444,311.674622 263.926025,312.733887 271.708191,314.371552 
	C274.692474,314.999573 276.124481,314.467682 277.906555,312.168213 
	C283.088196,305.482117 288.673950,299.108734 293.835083,292.407745 
	C294.686218,291.302643 294.195160,289.163757 294.007690,286.776001 
z"/>
<path fill="#F4F4F4" opacity="1.000000" stroke="none" 
	d="
M180.839966,375.522217 
	C185.750595,385.661835 193.522125,393.255157 202.713455,399.402954 
	C218.838043,410.188232 236.552536,415.866028 256.509766,415.478760 
	C256.930481,416.147003 256.951385,416.489014 256.972290,416.831024 
	C226.870529,417.903778 199.972214,410.197144 179.428635,386.965210 
	C174.069427,380.904663 170.666611,373.114136 166.876602,366.949829 
	C168.742172,362.520142 170.115616,359.259003 172.168686,354.384125 
	C174.249252,359.310577 176.161926,363.045074 177.387024,366.992889 
	C178.358566,370.123596 179.957657,371.848877 183.538971,372.480469 
	C183.900192,373.190369 183.928452,373.431854 183.956696,373.673340 
	C183.223328,373.503876 182.489975,373.334412 181.029190,373.139221 
	C180.481155,373.916382 180.660553,374.719299 180.839966,375.522217 
z"/>
<path fill="#F5F5F5" opacity="1.000000" stroke="none" 
	d="
M374.145172,358.227234 
	C358.211792,387.677185 335.553986,407.900116 300.766907,410.975739 
	C295.234161,411.464844 289.558380,410.335907 283.478760,409.971130 
	C283.008759,409.987183 283.093201,409.923462 283.093201,409.923462 
	C283.645050,409.441925 284.196930,408.960419 284.849823,408.390747 
	C282.866333,406.088074 280.875244,403.776581 278.884155,401.465088 
	C279.049530,400.955994 279.214935,400.446899 279.380310,399.937805 
	C282.827576,400.339996 286.266235,400.874725 289.725037,401.099487 
	C292.187286,401.259491 294.676636,401.002228 297.560333,400.984619 
	C297.966766,401.038116 298.100281,401.047577 298.100281,401.047577 
	C299.385468,401.743256 300.661102,403.024658 301.957245,403.045746 
	C318.210419,403.310028 332.388885,397.255188 345.362457,388.069580 
	C356.747192,380.008911 366.078735,369.988983 373.143433,357.460388 
	C373.755707,357.613007 373.950439,357.920135 374.145172,358.227234 
z"/>
<path fill="#F4F4F4" opacity="1.000000" stroke="none" 
	d="
M361.454712,206.741653 
	C360.113098,209.518936 358.771454,212.296234 356.997345,215.968826 
	C353.823547,209.789505 350.834900,203.970688 347.446838,198.052673 
	C347.047394,197.953445 347.241547,197.786621 347.241547,197.786621 
	C346.498138,195.188980 346.380432,192.151794 344.912964,190.062775 
	C332.462860,172.339462 314.584442,163.034302 294.049774,158.114456 
	C290.039917,157.153748 285.910919,156.690079 281.380188,155.561676 
	C280.824371,154.910126 280.725250,154.694046 280.626160,154.477982 
	C317.399628,156.241806 347.403229,168.693558 361.657288,206.269806 
	C361.564270,206.676620 361.454712,206.741653 361.454712,206.741653 
z"/>
<path fill="#F5F5F5" opacity="1.000000" stroke="none" 
	d="
M147.145599,256.966095 
	C145.982010,257.661652 144.114258,258.107605 143.765259,259.091980 
	C140.731064,267.650238 136.551712,276.123901 135.421310,284.968903 
	C133.060776,303.439148 136.187683,321.411804 144.907547,338.698242 
	C144.611557,339.492462 144.366806,339.717499 144.122055,339.942505 
	C130.038223,315.646332 125.273094,289.925201 133.954865,262.837677 
	C136.202393,255.825256 140.921783,249.286728 145.728989,243.556808 
	C147.904907,240.963272 153.071396,240.878708 156.881195,239.655930 
	C157.227798,240.065826 157.574402,240.475739 157.921005,240.885635 
	C155.844818,243.871674 153.681000,246.801682 151.723404,249.863541 
	C150.429031,251.888077 149.430679,254.101883 148.002228,256.575623 
	C147.518280,256.935577 147.331940,256.950836 147.145599,256.966095 
z"/>
<path fill="#F4F4F4" opacity="1.000000" stroke="none" 
	d="
M385.877045,233.051971 
	C399.116211,256.938477 403.670959,282.061523 394.924438,308.379517 
	C392.541351,315.550262 387.228210,321.747192 382.822144,328.716400 
	C381.940002,329.290100 381.495392,329.538391 381.050812,329.786713 
	C377.996826,330.219513 374.942871,330.652313 371.888885,331.085114 
	C371.584442,330.763702 371.279999,330.442291 370.975555,330.120880 
	C373.346130,326.978729 375.854187,323.928131 378.031952,320.657562 
	C379.203339,318.898376 379.808319,316.762054 380.913879,314.463440 
	C381.371399,314.102203 381.583893,314.073395 381.796417,314.044556 
	C382.847809,313.503326 384.372314,313.240234 384.878845,312.378693 
	C391.332855,301.400970 394.199493,289.434784 394.257629,276.756866 
	C394.324768,262.106964 391.393341,248.113281 385.077545,234.313492 
	C385.396851,233.509262 385.636963,233.280624 385.877045,233.051971 
z"/>
<path fill="#F4F4F4" opacity="1.000000" stroke="none" 
	d="
M230.555984,169.883621 
	C229.540070,169.212723 228.392288,167.823273 227.528564,167.981766 
	C218.602783,169.619583 209.247589,170.303253 200.932770,173.585388 
	C185.398773,179.717178 172.580673,190.060928 162.018875,203.657196 
	C161.289917,203.401031 161.076202,203.076920 160.862488,202.752808 
	C169.862930,188.319214 182.179092,177.388657 196.828369,169.004898 
	C211.680710,160.504883 227.584839,157.983566 243.623764,161.450043 
	C245.844284,164.411987 247.943863,167.212631 251.078186,171.393524 
	C245.769989,170.767471 241.944626,170.276749 238.109406,169.881805 
	C236.365387,169.702209 234.601837,169.712189 232.059052,169.749802 
	C231.032623,169.870178 230.794296,169.876907 230.555984,169.883621 
z"/>
<path fill="#E1E1E1" opacity="1.000000" stroke="none" 
	d="
M935.784912,382.197693 
	C936.501221,379.126099 936.759155,376.090546 937.017090,373.055023 
	C937.338806,373.067383 937.660583,373.079712 937.982361,373.092072 
	C937.982361,378.201141 937.982361,383.310211 937.982361,389.892639 
	C935.060730,385.566498 932.852051,382.296021 929.994995,378.065430 
	C929.762024,382.354950 929.592407,385.478577 929.422791,388.602203 
	C929.036865,388.588257 928.651001,388.574310 928.265137,388.560394 
	C928.265137,383.460236 928.265137,378.360077 928.265137,371.835266 
	C931.040955,375.922913 933.183716,379.078308 935.784912,382.197693 
z"/>
<path fill="#E1E1E1" opacity="1.000000" stroke="none" 
	d="
M613.478027,380.628296 
	C612.820496,381.883789 611.984131,382.989319 612.203003,383.815338 
	C612.592285,385.284882 613.620361,386.585236 614.381287,387.956360 
	C614.001953,388.210327 613.622620,388.464325 613.243286,388.718323 
	C611.748962,386.624939 610.254578,384.531555 608.316956,381.817169 
	C608.048218,384.396606 607.835815,386.435089 607.623413,388.473572 
	C607.260498,388.460449 606.897522,388.447357 606.534546,388.434265 
	C606.534546,383.407532 606.534546,378.380798 606.534546,372.207977 
	C609.241150,373.167084 611.985291,373.616608 613.960388,375.094208 
	C614.761353,375.693481 613.886780,378.532562 613.478027,380.628296 
z"/>
<path fill="#CDCDCD" opacity="1.000000" stroke="none" 
	d="
M381.815613,313.670044 
	C381.583893,314.073395 381.371399,314.102203 380.839905,314.088226 
	C374.471191,295.696167 361.371613,284.335938 342.585693,277.220184 
	C357.024750,277.102844 376.573944,295.749908 381.815613,313.670044 
z"/>
<path fill="#CDCDCD" opacity="1.000000" stroke="none" 
	d="
M899.176147,384.716064 
	C897.061462,385.925446 895.366211,387.133667 892.230103,389.368805 
	C894.931091,383.010468 897.117188,377.864288 899.303223,372.718109 
	C899.757019,372.710876 900.210815,372.703613 900.664612,372.696381 
	C902.815125,377.832703 904.965637,382.969025 907.099304,388.065155 
	C904.319763,386.824158 901.957642,385.769562 899.176147,384.716064 
z"/>
<path fill="#E1E1E1" opacity="1.000000" stroke="none" 
	d="
M669.079285,388.914368 
	C667.656067,388.004456 665.862671,387.154114 665.789429,386.175110 
	C665.470642,381.913574 665.652527,377.614563 665.652527,373.380920 
	C674.059509,372.306763 677.869995,374.412628 678.313904,380.121277 
	C678.725708,385.416443 675.523682,388.611328 669.079285,388.914368 
M676.513062,381.317719 
	C675.506775,375.246979 674.437988,374.496338 667.785278,375.280487 
	C667.785278,379.097595 667.785278,382.923920 667.785278,386.702271 
	C672.247681,387.590973 675.284363,386.551117 676.513062,381.317719 
z"/>
<path fill="#D7D7D7" opacity="1.000000" stroke="none" 
	d="
M635.812439,378.262634 
	C635.812195,376.329254 635.812195,374.847870 635.812195,373.221954 
	C638.808777,373.221954 641.518616,373.221954 644.228516,373.221954 
	C644.277954,373.621857 644.327454,374.021759 644.376953,374.421661 
	C642.483337,374.677887 640.589783,374.934113 638.150513,375.264160 
	C638.057129,376.374878 637.942017,377.743683 637.808167,379.335907 
	C639.841187,379.599823 641.566895,379.823822 643.292603,380.047852 
	C643.335022,380.380188 643.377441,380.712555 643.419861,381.044922 
	C641.702026,381.379517 639.984253,381.714081 638.055054,382.089844 
	C638.055054,383.500549 638.055054,384.934143 638.055054,386.674988 
	C640.131775,386.848572 642.191956,387.020782 644.252136,387.192963 
	C644.272522,387.659729 644.292908,388.126465 644.313293,388.593201 
	C641.669800,388.729126 639.026306,388.865051 635.812683,389.030304 
	C635.812683,385.266632 635.812683,381.990631 635.812439,378.262634 
z"/>
<path fill="#E1E1E1" opacity="1.000000" stroke="none" 
	d="
M1070.729004,383.150848 
	C1070.327393,385.212646 1070.164551,386.934631 1070.001709,388.656647 
	C1069.672363,388.644287 1069.343018,388.631927 1069.013672,388.619568 
	C1069.013672,383.523163 1069.013672,378.426758 1069.013672,371.887360 
	C1072.003296,373.196259 1075.395752,373.668701 1076.637939,375.556213 
	C1077.576782,376.982910 1075.768188,380.217560 1074.000854,382.443359 
	C1074.902832,384.280579 1075.804810,386.117828 1076.706787,387.955048 
	C1076.432495,388.159271 1076.158081,388.363495 1075.883789,388.567688 
	C1074.245117,386.648804 1072.606323,384.729919 1070.729004,383.150848 
M1070.345337,378.249237 
	C1071.595093,378.711548 1072.839844,379.458405 1074.097534,379.481323 
	C1074.535889,379.489319 1075.525024,377.573090 1075.317261,376.784668 
	C1075.109131,375.994202 1073.536621,374.865051 1072.893921,375.048340 
	C1071.894409,375.333466 1071.176025,376.603516 1070.345337,378.249237 
z"/>
<path fill="#D7D7D7" opacity="1.000000" stroke="none" 
	d="
M1043.135132,379.711548 
	C1044.481567,379.843628 1045.416504,379.970978 1046.351318,380.098297 
	C1046.375977,380.451019 1046.400513,380.803741 1046.425171,381.156464 
	C1044.812866,381.405273 1043.200684,381.654053 1041.084717,381.980560 
	C1041.003784,383.386444 1040.916138,384.909332 1040.815918,386.649139 
	C1043.177856,386.852814 1045.208496,387.027893 1047.239136,387.203003 
	C1047.251221,387.672607 1047.263306,388.142212 1047.275269,388.611847 
	C1044.594971,388.733368 1041.914673,388.854889 1038.999023,388.987091 
	C1038.999023,383.519196 1038.999023,378.570984 1038.999023,373.345673 
	C1041.742554,373.345673 1044.458252,373.345673 1047.173950,373.345673 
	C1047.212891,373.755768 1047.251953,374.165863 1047.291016,374.575928 
	C1045.332153,374.760223 1043.373291,374.944489 1040.156860,375.247070 
	C1041.165283,376.999176 1041.944458,378.352966 1043.135132,379.711548 
z"/>
<path fill="#E1E1E1" opacity="1.000000" stroke="none" 
	d="
M1008.964722,383.693298 
	C1008.964600,379.965881 1008.964600,376.697418 1008.964600,373.234070 
	C1012.812500,372.825897 1016.798340,371.901550 1017.747009,376.544098 
	C1018.720825,381.309753 1014.580750,381.770050 1011.235229,382.236725 
	C1011.003296,384.474487 1010.795654,386.477905 1010.588074,388.481354 
	C1010.153076,388.494598 1009.718079,388.507874 1009.283081,388.521118 
	C1009.177002,387.064850 1009.070923,385.608551 1008.964722,383.693298 
z"/>
<path fill="#D7D7D7" opacity="1.000000" stroke="none" 
	d="
M577.172119,373.094421 
	C578.259766,372.938354 578.925415,372.954193 579.587280,372.912231 
	C582.698303,372.714905 584.986145,373.908905 585.070190,377.198853 
	C585.180847,381.531342 581.819824,381.950897 578.367798,382.135620 
	C578.196045,384.306000 578.029907,386.405975 577.863831,388.505951 
	C577.431458,388.520142 576.999084,388.534363 576.566772,388.548584 
	C575.907227,383.487518 575.597717,378.406097 577.172119,373.094421 
z"/>
<path fill="#E1E1E1" opacity="1.000000" stroke="none" 
	d="
M836.950989,386.355164 
	C836.948181,381.812561 836.948181,377.704987 836.948181,373.264526 
	C840.820679,372.788818 844.930359,371.825134 845.755127,376.826172 
	C846.473083,381.179993 842.700500,381.927124 839.125366,382.122467 
	C839.012512,384.099915 838.910400,385.888519 838.808289,387.677124 
	C838.190125,387.381439 837.571960,387.085785 836.950989,386.355164 
z"/>
<path fill="#CDCDCD" opacity="1.000000" stroke="none" 
	d="
M1127.311523,385.601868 
	C1127.308228,381.205872 1127.308228,377.266693 1127.308228,373.239502 
	C1130.579590,373.239502 1133.251831,373.239502 1135.924072,373.239502 
	C1135.976685,373.616180 1136.029297,373.992889 1136.081909,374.369568 
	C1134.023560,374.700409 1131.965332,375.031250 1129.900146,375.363159 
	C1127.569580,381.012878 1132.706299,379.136261 1135.089844,381.112305 
	C1133.407227,381.439240 1131.724731,381.766174 1129.668091,382.165771 
	C1129.552490,383.462921 1129.427490,384.866180 1129.280518,386.516388 
	C1131.651123,386.780945 1133.799683,387.020721 1136.425293,387.313721 
	C1131.857178,390.072510 1128.704834,389.493958 1127.311523,385.601868 
z"/>
<path fill="#D7D7D7" opacity="1.000000" stroke="none" 
	d="
M1165.642334,374.986877 
	C1163.203979,376.300476 1160.481079,377.244354 1159.322754,379.142853 
	C1158.555908,380.399475 1159.470825,384.273712 1160.617065,384.789642 
	C1163.390991,386.038177 1166.740967,386.006653 1170.203735,386.544647 
	C1169.116455,388.215424 1166.950317,389.276215 1164.024902,388.784668 
	C1159.984253,388.105713 1157.382080,385.795837 1156.903198,381.609558 
	C1156.474121,377.858307 1158.145630,374.993866 1161.575684,373.617920 
	C1164.962891,372.259186 1168.229980,372.572418 1170.232666,376.607300 
	C1168.829346,376.079163 1167.426025,375.550995 1165.642334,374.986877 
z"/>
<path fill="#D7D7D7" opacity="1.000000" stroke="none" 
	d="
M725.723389,375.622437 
	C728.666443,374.346161 731.371765,373.359497 734.077026,372.372864 
	C734.420349,372.968933 734.763672,373.565002 735.106934,374.161072 
	C729.903625,375.240448 723.696167,376.016388 726.353882,383.159576 
	C728.407898,388.680359 733.119629,386.891876 737.583191,384.748413 
	C735.016052,389.217896 731.554260,390.027100 727.480164,387.639252 
	C723.596313,385.362915 722.835144,380.887299 725.723389,375.622437 
z"/>
<path fill="#D7D7D7" opacity="1.000000" stroke="none" 
	d="
M160.565308,202.927063 
	C161.076202,203.076920 161.289917,203.401031 161.759735,203.866699 
	C157.219086,213.634491 152.422348,223.260742 147.137421,233.866699 
	C149.683197,222.079651 154.340744,212.326584 160.565308,202.927063 
z"/>
<path fill="#D7D7D7" opacity="1.000000" stroke="none" 
	d="
M1098.148438,382.742126 
	C1098.148560,379.348877 1098.148560,376.405853 1098.148560,373.193481 
	C1101.396118,373.193481 1104.112793,373.193481 1106.829590,373.193481 
	C1106.886230,373.588196 1106.942993,373.982910 1106.999634,374.377625 
	C1104.946411,374.658569 1102.893188,374.939514 1100.369629,375.284790 
	C1100.296997,376.576050 1100.218750,377.965881 1100.130127,379.541138 
	C1102.129639,379.798035 1103.996948,380.037994 1105.864258,380.277924 
	C1105.907227,380.661926 1105.950195,381.045929 1105.993164,381.429932 
	C1104.251343,381.682831 1102.509399,381.935730 1100.448975,382.234894 
	C1100.245728,384.307770 1100.032593,386.481201 1099.819458,388.654633 
	C1099.409546,388.661316 1098.999634,388.667969 1098.589844,388.674652 
	C1098.442627,386.847198 1098.295410,385.019775 1098.148438,382.742126 
z"/>
<path fill="#CDCDCD" opacity="1.000000" stroke="none" 
	d="
M381.112549,330.217682 
	C381.495392,329.538391 381.940002,329.290100 382.650452,329.003174 
	C382.196381,339.154480 379.168732,348.688538 374.430542,358.022400 
	C373.950439,357.920135 373.755707,357.613007 373.324585,357.169800 
	C375.783508,348.238708 378.478882,339.443665 381.112549,330.217682 
z"/>
<path fill="#CDCDCD" opacity="1.000000" stroke="none" 
	d="
M866.738403,375.695007 
	C866.904297,374.519165 867.068481,373.776794 867.232727,373.034393 
	C867.606140,373.031158 867.979492,373.027893 868.352905,373.024658 
	C868.352905,377.487976 868.352905,381.951324 868.352905,386.509979 
	C870.661560,386.829285 872.215393,387.044220 873.769226,387.259125 
	C873.796448,387.639709 873.823669,388.020264 873.850891,388.400848 
	C871.664490,388.627197 869.478088,388.853546 866.736694,389.137390 
	C866.736694,384.395203 866.736694,380.261841 866.738403,375.695007 
z"/>
<path fill="#131313" opacity="1.000000" stroke="none" 
	d="
M314.009766,364.836365 
	C313.618408,367.629547 313.227051,369.966370 312.835693,372.303162 
	C312.337341,372.221985 311.838989,372.140778 311.340637,372.059570 
	C311.340637,365.970428 311.340637,359.881317 311.340637,353.792175 
	C311.897339,353.724640 312.454010,353.657104 313.010712,353.589569 
	C313.343719,357.186371 313.676758,360.783203 314.009766,364.836365 
z"/>
<path fill="#CDCDCD" opacity="1.000000" stroke="none" 
	d="
M297.960938,400.971436 
	C301.930511,393.526154 305.905914,386.147552 310.248901,378.398285 
	C310.918335,378.279419 311.220184,378.531250 311.522034,378.783051 
	C309.021698,387.176636 305.690460,395.091766 298.432343,400.992157 
	C298.100281,401.047577 297.966766,401.038116 297.960938,400.971436 
z"/>
<path fill="#E1E1E1" opacity="1.000000" stroke="none" 
	d="
M758.202637,373.802795 
	C761.334656,373.220062 764.482300,373.082123 767.629883,372.944214 
	C767.680054,373.342896 767.730225,373.741547 767.780396,374.140228 
	C766.548706,374.587219 765.317017,375.034210 763.462769,375.707184 
	C763.462769,379.904083 763.462769,384.191193 763.462769,388.478333 
	C763.061157,388.466003 762.659607,388.453705 762.257996,388.441376 
	C762.257996,384.123047 762.257996,379.804718 762.257996,375.537292 
	C760.585571,375.003387 759.401855,374.625519 758.202637,373.802795 
z"/>
<path fill="#E1E1E1" opacity="1.000000" stroke="none" 
	d="
M1197.188721,375.576385 
	C1197.027954,380.136292 1197.027954,384.282318 1197.027954,388.428314 
	C1196.477783,388.430389 1195.927612,388.432434 1195.377441,388.434479 
	C1195.377441,384.149536 1195.377441,379.864563 1195.377441,375.600677 
	C1193.600830,375.023743 1192.356445,374.619659 1191.112183,374.215576 
	C1191.153564,373.929321 1191.194824,373.643036 1191.236206,373.356781 
	C1194.367920,373.356781 1197.499634,373.356781 1200.631226,373.356781 
	C1200.726196,373.632904 1200.821045,373.908997 1200.915894,374.185120 
	C1199.727051,374.510895 1198.538208,374.836700 1197.188721,375.576385 
z"/>
<path fill="#CDCDCD" opacity="1.000000" stroke="none" 
	d="
M144.171265,340.285828 
	C144.366806,339.717499 144.611557,339.492462 144.984283,339.046967 
	C149.391342,344.612061 153.670410,350.397644 157.906143,356.762390 
	C157.778595,357.532440 157.694397,357.723389 157.610184,357.914368 
	C153.146942,352.152649 148.683716,346.390900 144.171265,340.285828 
z"/>
<path fill="#B7B7B7" opacity="1.000000" stroke="none" 
	d="
M308.849640,203.849670 
	C315.444458,199.414185 322.845734,197.395401 331.404480,196.902786 
	C323.937103,199.465759 317.025665,201.837906 309.621826,204.168915 
	C309.129395,204.127777 308.849640,203.849670 308.849640,203.849670 
z"/>
<path fill="#D7D7D7" opacity="1.000000" stroke="none" 
	d="
M385.825439,232.705963 
	C385.636963,233.280624 385.396851,233.509262 385.027832,233.955612 
	C381.089417,228.451797 377.279968,222.730286 373.470490,217.008774 
	C379.233185,220.683563 382.324310,226.672302 385.825439,232.705963 
z"/>
<path fill="#CDCDCD" opacity="1.000000" stroke="none" 
	d="
M217.024475,194.989563 
	C218.573608,187.399612 221.429764,180.433029 227.059067,173.373199 
	C223.878143,181.290253 221.180023,188.005676 218.008698,194.900879 
	C217.365158,195.050293 217.194809,195.019928 217.024475,194.989563 
z"/>
<path fill="#CDCDCD" opacity="1.000000" stroke="none" 
	d="
M184.285385,373.844604 
	C183.928452,373.431854 183.900192,373.190369 183.909546,372.586121 
	C190.011505,372.243835 196.075867,372.264313 202.545456,372.547119 
	C202.960052,373.159485 202.969421,373.509521 202.978790,373.859558 
	C196.857224,373.911682 190.735641,373.963806 184.285385,373.844604 
z"/>
<path fill="#CDCDCD" opacity="1.000000" stroke="none" 
	d="
M147.124939,257.347321 
	C147.331940,256.950836 147.518280,256.935577 147.984619,256.936768 
	C150.784393,262.355225 153.304214,267.757233 155.824020,273.159210 
	C151.003738,269.121429 148.849503,263.542175 147.124939,257.347321 
z"/>
<path fill="#CDCDCD" opacity="1.000000" stroke="none" 
	d="
M224.711670,285.173157 
	C225.262802,285.345062 225.481491,285.602142 225.928329,285.979492 
	C221.209076,290.463165 215.467758,293.136108 208.043823,294.820770 
	C214.132248,291.256714 219.255737,288.257507 224.711670,285.173157 
z"/>
<path fill="#D7D7D7" opacity="1.000000" stroke="none" 
	d="
M257.996033,156.008728 
	C262.749481,155.380325 267.084351,154.813660 271.419220,154.246979 
	C271.482941,154.723526 271.546661,155.200073 271.610413,155.676620 
	C265.535034,156.593033 259.459656,157.509460 253.384277,158.425888 
	C253.304688,158.083572 253.225113,157.741241 253.145523,157.398926 
	C254.622849,156.956100 256.100159,156.513275 257.996033,156.008728 
z"/>
<path fill="#B7B7B7" opacity="1.000000" stroke="none" 
	d="
M300.474579,329.191315 
	C304.216949,334.411652 307.959290,339.631989 311.701660,344.852325 
	C311.243011,345.171326 310.784363,345.490326 310.325684,345.809296 
	C306.890350,340.831726 303.454987,335.854126 300.076477,330.310120 
	C300.247040,329.559570 300.360809,329.375427 300.474579,329.191315 
z"/>
<path fill="#B7B7B7" opacity="1.000000" stroke="none" 
	d="
M203.368973,373.900238 
	C202.969421,373.509521 202.960052,373.159485 202.956390,372.546753 
	C208.549164,370.514648 214.136230,368.745178 219.723312,366.975739 
	C219.883072,367.385925 220.042847,367.796143 220.202606,368.206360 
	C214.721451,370.117859 209.240311,372.029388 203.368973,373.900238 
z"/>
<path fill="#B7B7B7" opacity="1.000000" stroke="none" 
	d="
M223.074188,234.288773 
	C218.507324,229.508453 216.915283,223.619995 216.717056,217.212036 
	C218.918716,222.581375 221.120392,227.950729 223.226303,233.693207 
	C223.130554,234.066330 223.074188,234.288773 223.074188,234.288773 
z"/>
<path fill="#E1E1E1" opacity="1.000000" stroke="none" 
	d="
M700.041992,377.263824 
	C700.190735,375.603546 700.339539,374.402069 700.488281,373.200592 
	C700.822693,373.213593 701.157166,373.226562 701.491577,373.239563 
	C701.491577,378.291321 701.491577,383.343109 701.491577,388.394867 
	C701.008362,388.417542 700.525208,388.440216 700.041992,388.462860 
	C700.041992,384.882782 700.041992,381.302704 700.041992,377.263824 
z"/>
<path fill="#B7B7B7" opacity="1.000000" stroke="none" 
	d="
M340.018799,276.873688 
	C334.119751,276.873688 328.220703,276.873688 322.321655,276.873688 
	C322.296051,276.349121 322.270447,275.824554 322.244843,275.299988 
	C327.879456,275.221161 333.514069,275.142303 339.605103,275.471619 
	C340.020752,276.209961 340.006531,276.541260 340.018799,276.873688 
z"/>
<path fill="#131313" opacity="1.000000" stroke="none" 
	d="
M215.368134,212.897217 
	C215.149582,208.988159 215.149582,205.402939 215.149582,201.817719 
	C215.593658,201.820633 216.037735,201.823547 216.481796,201.826462 
	C216.791534,205.624481 218.415512,209.422089 215.368134,212.897217 
z"/>
<path fill="#131313" opacity="1.000000" stroke="none" 
	d="
M295.121399,215.142517 
	C292.668243,219.016418 290.215118,222.890305 287.761963,226.764191 
	C287.184204,226.350464 286.606445,225.936722 286.028687,225.522980 
	C288.773865,222.098511 291.519043,218.674042 294.627319,215.127258 
	C294.990417,215.004959 295.121399,215.142517 295.121399,215.142517 
z"/>
<path fill="#D7D7D7" opacity="1.000000" stroke="none" 
	d="
M257.402039,416.905640 
	C256.951385,416.489014 256.930481,416.147003 256.931824,415.548889 
	C260.214417,415.061249 263.474762,414.829681 266.735107,414.598145 
	C266.756195,415.081085 266.777252,415.564026 266.798340,416.046967 
	C263.809479,416.358063 260.820618,416.669159 257.402039,416.905640 
z"/>
<path fill="#131313" opacity="1.000000" stroke="none" 
	d="
M225.435150,362.516235 
	C226.838257,361.592529 227.990723,360.905457 229.143173,360.218414 
	C229.369843,360.581268 229.596512,360.944122 229.823181,361.306976 
	C227.451218,363.007812 225.079269,364.708649 222.707306,366.409485 
	C222.464539,366.122650 222.221771,365.835815 221.978989,365.549011 
	C223.047501,364.616974 224.115997,363.684937 225.435150,362.516235 
z"/>
<path fill="#131313" opacity="1.000000" stroke="none" 
	d="
M197.530914,297.009644 
	C194.710693,296.542389 192.271942,296.074402 189.833191,295.606415 
	C189.954315,295.037720 190.075439,294.469025 190.196564,293.900299 
	C193.396118,294.793762 196.595673,295.687225 200.405045,296.750946 
	C199.192810,296.876404 198.552597,296.942657 197.530914,297.009644 
z"/>
<path fill="#131313" opacity="1.000000" stroke="none" 
	d="
M243.061386,343.028351 
	C241.942459,345.313354 240.823532,347.598358 239.352448,349.941895 
	C239.000305,350.000427 238.980377,349.981628 238.980377,349.981628 
	C240.060028,347.681458 241.139664,345.381317 242.594940,343.022461 
	C242.970596,342.963745 243.061386,343.028351 243.061386,343.028351 
z"/>
<path fill="#131313" opacity="1.000000" stroke="none" 
	d="
M342.273193,196.407791 
	C342.508118,197.368820 342.456146,198.140244 342.404205,198.911682 
	C341.090759,198.446838 339.777313,197.982010 338.463898,197.517166 
	C338.573212,197.084183 338.682526,196.651184 338.791840,196.218201 
	C339.856659,196.218201 340.921509,196.218201 342.273193,196.407791 
z"/>
<path fill="#131313" opacity="1.000000" stroke="none" 
	d="
M286.047058,231.023376 
	C285.516235,232.839478 284.985443,234.655594 284.454651,236.471695 
	C283.928741,236.289230 283.402863,236.106750 282.876953,235.924286 
	C283.644745,234.316360 284.412506,232.708420 285.558838,231.028870 
	C285.937347,230.957230 286.047058,231.023376 286.047058,231.023376 
z"/>
<path fill="#CDCDCD" opacity="1.000000" stroke="none" 
	d="
M163.231491,280.771759 
	C164.705399,281.919373 166.179291,283.067017 167.653198,284.214630 
	C167.388992,284.577057 167.124786,284.939514 166.860580,285.301941 
	C165.500183,284.221130 164.139786,283.140289 162.791901,281.607849 
	C162.946777,281.028107 163.089142,280.899933 163.231491,280.771759 
z"/>
<path fill="#131313" opacity="1.000000" stroke="none" 
	d="
M223.244202,234.082245 
	C224.480545,235.321167 225.603256,236.544144 226.725967,237.767136 
	C226.368988,238.064651 226.011993,238.362152 225.654999,238.659668 
	C224.785538,237.426437 223.916061,236.193222 223.060394,234.624390 
	C223.074188,234.288773 223.130554,234.066330 223.244202,234.082245 
z"/>
<path fill="#D7D7D7" opacity="1.000000" stroke="none" 
	d="
M272.372253,155.036407 
	C274.428894,154.383179 276.502045,154.261078 278.575226,154.138977 
	C278.584900,154.615158 278.594604,155.091339 278.604279,155.567520 
	C276.532471,155.567520 274.460632,155.567520 272.372253,155.036407 
z"/>
<path fill="#CDCDCD" opacity="1.000000" stroke="none" 
	d="
M159.473511,278.622284 
	C158.176758,277.206085 156.879990,275.789886 155.583221,274.373718 
	C155.859131,274.076019 156.135056,273.778320 156.410965,273.480621 
	C157.583649,274.708557 158.756317,275.936523 159.871277,277.689331 
	C159.700195,278.350220 159.586853,278.486267 159.473511,278.622284 
z"/>
<path fill="#131313" opacity="1.000000" stroke="none" 
	d="
M311.711975,378.439575 
	C311.220184,378.531250 310.918335,378.279419 310.318298,378.041748 
	C310.471130,376.865509 310.922150,375.675171 311.373169,374.484802 
	C311.858276,374.636261 312.343414,374.787720 312.828522,374.939178 
	C312.519684,375.991486 312.210815,377.043762 311.711975,378.439575 
z"/>
<path fill="#131313" opacity="1.000000" stroke="none" 
	d="
M239.010101,350.010071 
	C238.534866,351.284088 238.049820,352.548462 237.564774,353.812805 
	C237.073990,353.554169 236.583221,353.295532 236.092438,353.036896 
	C236.837097,352.060028 237.581741,351.083130 238.653381,350.043945 
	C238.980377,349.981628 239.000305,350.000427 239.010101,350.010071 
z"/>
<path fill="#131313" opacity="1.000000" stroke="none" 
	d="
M235.941956,246.187912 
	C237.013855,246.891174 237.823471,247.530838 238.633087,248.170517 
	C238.426605,248.460815 238.220123,248.751114 238.013657,249.041412 
	C236.981216,248.223694 235.948242,247.406616 234.928802,246.572998 
	C234.922562,246.567886 235.080322,246.291122 235.206131,246.215378 
	C235.335403,246.137558 235.519562,246.150894 235.941956,246.187912 
z"/>
<path fill="#131313" opacity="1.000000" stroke="none" 
	d="
M294.919708,214.941559 
	C295.379822,213.985840 295.910645,213.093536 296.441467,212.201233 
	C296.806702,212.452835 297.171906,212.704437 297.537140,212.956055 
	C296.947357,213.628586 296.357574,214.301102 295.444580,215.058075 
	C295.121399,215.142517 294.990417,215.004959 294.919708,214.941559 
z"/>
<path fill="#CDCDCD" opacity="1.000000" stroke="none" 
	d="
M230.279510,169.982635 
	C230.794296,169.876907 231.032623,169.870178 231.623169,169.925507 
	C230.982178,171.116486 229.988968,172.245361 228.573303,173.318512 
	C228.027252,173.103500 227.903656,172.944229 227.780045,172.784973 
	C228.521042,171.883865 229.262039,170.982773 230.279510,169.982635 
z"/>
<path fill="#B7B7B7" opacity="1.000000" stroke="none" 
	d="
M298.740479,329.255066 
	C297.954712,328.565887 297.168945,327.876678 296.383179,327.187500 
	C296.555817,326.960358 296.728485,326.733246 296.901123,326.506104 
	C297.721313,327.012146 298.541473,327.518219 299.286926,328.441528 
	C299.054962,328.990875 298.897736,329.122955 298.740479,329.255066 
z"/>
<path fill="#131313" opacity="1.000000" stroke="none" 
	d="
M171.956985,287.978363 
	C173.162781,288.477142 174.368591,288.975891 175.574402,289.474670 
	C175.331543,289.937714 175.088699,290.400757 174.845840,290.863770 
	C173.924072,290.106232 173.002304,289.348694 172.039642,288.296204 
	C171.998749,288.001251 171.956985,287.978363 171.956985,287.978363 
z"/>
<path fill="#131313" opacity="1.000000" stroke="none" 
	d="
M148.065674,236.035156 
	C147.771210,237.143753 147.476730,238.252350 147.182266,239.360947 
	C146.754196,239.198425 146.326126,239.035919 145.898041,238.873413 
	C146.355896,237.945587 146.813736,237.017746 147.626831,236.032379 
	C147.982086,235.974838 148.065674,236.035156 148.065674,236.035156 
z"/>
<path fill="#131313" opacity="1.000000" stroke="none" 
	d="
M285.882202,230.924622 
	C285.722076,230.095596 285.617065,229.299179 285.512054,228.502747 
	C285.840332,228.481430 286.168640,228.460129 286.496918,228.438812 
	C286.496918,229.171326 286.496918,229.903824 286.271973,230.829865 
	C286.047058,231.023376 285.937347,230.957230 285.882202,230.924622 
z"/>
<path fill="#131313" opacity="1.000000" stroke="none" 
	d="
M277.178650,413.211792 
	C276.841248,412.636444 276.755493,412.113770 276.669739,411.591064 
	C276.946289,411.610474 277.461884,411.617523 277.463623,411.651215 
	C277.491364,412.186951 277.453339,412.726044 277.178650,413.211792 
z"/>
<path fill="#131313" opacity="1.000000" stroke="none" 
	d="
M243.707947,337.212219 
	C244.099579,337.055176 244.280121,337.081299 244.726654,337.043335 
	C244.713501,337.731567 244.434326,338.483887 244.155151,339.236176 
	C243.935699,338.622589 243.716263,338.008972 243.707947,337.212219 
z"/>
<path fill="#CDCDCD" opacity="1.000000" stroke="none" 
	d="
M340.410889,276.969788 
	C340.006531,276.541260 340.020752,276.209961 340.051361,275.631042 
	C341.095215,275.614197 342.149170,275.846100 343.203156,276.078003 
	C343.198090,276.346771 343.193024,276.615509 343.187958,276.884247 
	C342.392975,276.944794 341.597961,277.005310 340.410889,276.969788 
z"/>
<path fill="#131313" opacity="1.000000" stroke="none" 
	d="
M216.793243,195.159058 
	C217.194809,195.019928 217.365158,195.050293 217.769165,195.193619 
	C217.517715,195.968109 217.032608,196.629623 216.547501,197.291153 
	C216.552353,196.636948 216.557190,195.982742 216.793243,195.159058 
z"/>
<path fill="#131313" opacity="1.000000" stroke="none" 
	d="
M311.204956,279.661407 
	C311.487000,280.185669 311.517792,280.708679 311.548615,281.231720 
	C311.009491,281.078979 310.470337,280.926239 309.931213,280.773499 
	C310.272064,280.402374 310.612915,280.031281 311.204956,279.661407 
z"/>
<path fill="#CDCDCD" opacity="1.000000" stroke="none" 
	d="
M162.064438,360.878632 
	C162.281189,361.123016 162.497925,361.367371 162.714676,361.611755 
	C162.647461,361.359833 162.580261,361.107880 162.315598,360.840149 
	C162.118149,360.824341 162.064438,360.878632 162.064438,360.878632 
z"/>
<path fill="#131313" opacity="1.000000" stroke="none" 
	d="
M203.563599,295.368225 
	C203.674332,294.943390 203.944839,294.685883 204.215347,294.428345 
	C204.321732,294.540466 204.526825,294.744385 204.520279,294.751404 
	C204.266693,295.023987 203.993759,295.278564 203.563599,295.368225 
z"/>
<path fill="#131313" opacity="1.000000" stroke="none" 
	d="
M367.902496,211.096924 
	C367.434448,210.758408 366.966400,210.419907 366.498352,210.081406 
	C366.680664,209.885620 366.862946,209.689835 367.045258,209.494049 
	C367.348175,209.803345 367.651062,210.112625 367.966003,210.724670 
	C367.978027,211.027420 367.902496,211.096924 367.902496,211.096924 
z"/>
<path fill="#B7B7B7" opacity="1.000000" stroke="none" 
	d="
M301.544739,209.487579 
	C300.901520,209.655136 300.258270,209.822693 299.615051,209.990250 
	C299.841431,209.615341 300.067810,209.240433 300.725281,209.000229 
	C301.285828,209.252487 301.415283,209.370041 301.544739,209.487579 
z"/>
<path fill="#CDCDCD" opacity="1.000000" stroke="none" 
	d="
M169.817474,287.199493 
	C169.036148,286.688263 168.254807,286.177002 167.473480,285.665771 
	C167.585480,285.437683 167.697464,285.209595 167.809464,284.981506 
	C168.551926,285.292236 169.294388,285.602966 170.106247,286.359741 
	C170.056244,286.937012 169.936859,287.068237 169.817474,287.199493 
z"/>
<path fill="#131313" opacity="1.000000" stroke="none" 
	d="
M270.574646,414.044067 
	C270.202301,414.270630 269.832306,414.268402 269.464386,414.239563 
	C269.454254,414.238739 269.459869,413.818420 269.469269,413.817932 
	C269.837769,413.799530 270.207611,413.807281 270.574646,414.044067 
z"/>
<path fill="#B7B7B7" opacity="1.000000" stroke="none" 
	d="
M303.507446,206.578522 
	C304.255127,206.345398 304.680786,206.368530 305.106445,206.391663 
	C304.635406,206.916504 304.164337,207.441345 303.693268,207.966171 
	C303.524017,207.589035 303.354736,207.211899 303.507446,206.578522 
z"/>
<path fill="#131313" opacity="1.000000" stroke="none" 
	d="
M274.881378,413.438019 
	C274.610016,413.985321 274.321533,414.297821 274.033051,414.610321 
	C273.922852,414.355377 273.668182,413.921936 273.726257,413.874908 
	C274.064941,413.600769 274.476990,413.417297 274.881378,413.438019 
z"/>
<path fill="#131313" opacity="1.000000" stroke="none" 
	d="
M347.130157,197.855804 
	C346.905701,198.384552 346.598450,199.010941 346.291229,199.637329 
	C346.058960,199.489090 345.826691,199.340851 345.594452,199.192627 
	C345.947449,198.777573 346.300446,198.362518 346.947479,197.867050 
	C347.241547,197.786621 347.047394,197.953445 347.130157,197.855804 
z"/>
<path fill="#131313" opacity="1.000000" stroke="none" 
	d="
M231.957794,244.579605 
	C231.729294,244.203766 231.731445,243.830276 231.760620,243.458908 
	C231.761459,243.448456 232.050644,243.460632 232.205368,243.462265 
	C232.200989,243.835587 232.196625,244.208923 231.957794,244.579605 
z"/>
<path fill="#131313" opacity="1.000000" stroke="none" 
	d="
M291.328644,323.114746 
	C290.925842,323.124146 290.483917,322.928711 290.125885,322.631989 
	C290.060638,322.577942 290.338013,322.110535 290.457275,321.833954 
	C290.744293,322.181000 291.031281,322.528076 291.328644,323.114746 
z"/>
<path fill="#131313" opacity="1.000000" stroke="none" 
	d="
M246.135437,160.319305 
	C246.393661,160.153442 246.616074,160.193359 246.838501,160.233276 
	C246.764542,160.520325 246.690567,160.807373 246.616608,161.094421 
	C246.444290,160.904648 246.271973,160.714859 246.135437,160.319305 
z"/>
<path fill="#D7D7D7" opacity="1.000000" stroke="none" 
	d="
M736.432068,374.845520 
	C736.738464,374.988373 736.929932,375.270569 737.121399,375.552765 
	C736.853271,375.363464 736.585144,375.174164 736.432068,374.845520 
z"/>
<path fill="#131313" opacity="1.000000" stroke="none" 
	d="
M280.681335,410.966217 
	C280.660004,411.418945 280.488129,411.727142 280.316284,412.035339 
	C280.387756,411.630798 280.459290,411.226227 280.681335,410.966217 
z"/>
<path fill="#131313" opacity="1.000000" stroke="none" 
	d="
M315.371887,277.954346 
	C315.572968,278.246796 315.603180,278.656708 315.633362,279.066650 
	C315.489227,278.735046 315.345123,278.403473 315.371887,277.954346 
z"/>
<path fill="#131313" opacity="1.000000" stroke="none" 
	d="
M294.315369,325.249207 
	C294.015839,325.344879 293.685028,325.241638 293.354248,325.138397 
	C293.664185,325.109039 293.974152,325.079681 294.315369,325.249207 
z"/>
<path fill="#131313" opacity="1.000000" stroke="none" 
	d="
M313.866638,279.684998 
	C313.606781,279.851501 313.383148,279.811523 313.159546,279.771545 
	C313.233948,279.483643 313.308350,279.195740 313.382751,278.907837 
	C313.556122,279.098053 313.729492,279.288269 313.866638,279.684998 
z"/>
<path fill="#131313" opacity="1.000000" stroke="none" 
	d="
M249.140091,159.704285 
	C249.269302,159.300140 249.438736,159.103424 249.608154,158.906708 
	C249.687897,159.194427 249.767624,159.482132 249.847366,159.769852 
	C249.625015,159.817139 249.402664,159.864410 249.140091,159.704285 
z"/>
<path fill="#131313" opacity="1.000000" stroke="none" 
	d="
M368.018921,210.996368 
	C368.174683,211.394821 368.289581,211.824310 368.404480,212.253799 
	C368.265991,212.013748 368.127472,211.773697 367.945740,211.315277 
	C367.902496,211.096924 367.978027,211.027420 368.018921,210.996368 
z"/>
<path fill="#131313" opacity="1.000000" stroke="none" 
	d="
M283.036987,409.942383 
	C282.938354,410.322449 282.811493,410.747284 282.684631,411.172150 
	C282.687622,410.840118 282.690613,410.508118 282.893402,410.049774 
	C283.093201,409.923462 283.008759,409.987183 283.036987,409.942383 
z"/>
<path fill="#131313" opacity="1.000000" stroke="none" 
	d="
M242.971710,250.589874 
	C242.842484,250.871872 242.683090,250.923599 242.279877,251.036530 
	C242.139374,250.663956 242.242676,250.230194 242.345993,249.796448 
	C242.544510,249.984177 242.743027,250.171906 242.971710,250.589874 
z"/>
<path fill="#131313" opacity="1.000000" stroke="none" 
	d="
M229.589233,241.243286 
	C229.547714,241.269363 229.630722,241.217239 229.589233,241.243286 
z"/>
<path fill="#131313" opacity="1.000000" stroke="none" 
	d="
M180.884567,375.135895 
	C180.660553,374.719299 180.481155,373.916382 180.652359,373.155487 
	C180.978363,373.714874 180.953766,374.232208 180.884567,375.135895 
z"/>
<path fill="#131313" opacity="1.000000" stroke="none" 
	d="
M147.943817,235.940308 
	C148.068649,235.516724 148.231766,235.127655 148.394897,234.738602 
	C148.408478,235.082733 148.422043,235.426880 148.250641,235.903076 
	C148.065674,236.035156 147.982086,235.974838 147.943817,235.940308 
z"/>
<path fill="#CDCDCD" opacity="1.000000" stroke="none" 
	d="
M170.360138,286.613953 
	C171.012894,286.747467 171.481140,287.072815 171.953186,287.688263 
	C171.956985,287.978363 171.998749,288.001251 171.987869,287.979858 
	C171.368744,287.882416 170.760483,287.806335 169.984863,287.464905 
	C169.936859,287.068237 170.056244,286.937012 170.360138,286.613953 
z"/>
<path fill="#131313" opacity="1.000000" stroke="none" 
	d="
M242.929077,342.926575 
	C243.058456,342.504761 243.229340,342.120056 243.400223,341.735382 
	C243.411041,342.079651 243.421860,342.423920 243.247040,342.898254 
	C243.061386,343.028351 242.970596,342.963745 242.929077,342.926575 
z"/>
<path fill="#131313" opacity="1.000000" stroke="none" 
	d="
M311.632324,347.769287 
	C311.668884,347.803253 311.595734,347.735352 311.632324,347.769287 
z"/>
<path fill="#131313" opacity="1.000000" stroke="none" 
	d="
M233.976898,357.982605 
	C234.104736,357.581726 234.232574,357.180817 234.360413,356.779938 
	C234.370331,357.108734 234.380264,357.437561 234.194656,357.883179 
	C233.999115,358.000031 233.976898,357.982605 233.976898,357.982605 
z"/>
<path fill="#CDCDCD" opacity="1.000000" stroke="none" 
	d="
M228.316101,173.516052 
	C228.031342,173.933899 227.581375,174.098480 227.131393,174.263046 
	C227.134186,173.890045 227.136963,173.517059 227.459900,172.964508 
	C227.903656,172.944229 228.027252,173.103500 228.316101,173.516052 
z"/>
<path fill="#CDCDCD" opacity="1.000000" stroke="none" 
	d="
M162.580048,281.335693 
	C162.085526,281.315277 161.815384,281.115387 161.644913,280.543640 
	C161.894104,280.050079 162.043610,279.928375 162.193100,279.806671 
	C162.482193,279.968170 162.771271,280.129669 163.145935,280.531464 
	C163.089142,280.899933 162.946777,281.028107 162.580048,281.335693 
z"/>
<path fill="#131313" opacity="1.000000" stroke="none" 
	d="
M317.542236,278.473694 
	C317.569244,278.521545 317.515259,278.425842 317.542236,278.473694 
z"/>
<path fill="#CDCDCD" opacity="1.000000" stroke="none" 
	d="
M159.994431,278.019653 
	C160.458237,277.995819 160.741165,278.166443 160.920288,278.799561 
	C160.709366,279.417816 160.602234,279.573578 160.495087,279.729370 
	C160.248672,279.501068 160.002274,279.272736 159.614685,278.833374 
	C159.586853,278.486267 159.700195,278.350220 159.994431,278.019653 
z"/>
<path fill="#B7B7B7" opacity="1.000000" stroke="none" 
	d="
M299.937073,330.002380 
	C299.464569,330.083771 299.188324,329.906464 298.826263,329.492126 
	C298.897736,329.122955 299.054962,328.990875 299.460388,328.675995 
	C299.930176,328.584076 300.119293,328.720123 300.375244,329.046326 
	C300.360809,329.375427 300.247040,329.559570 299.937073,330.002380 
z"/>
<path fill="#131313" opacity="1.000000" stroke="none" 
	d="
M318.537903,276.476868 
	C318.562073,276.521118 318.513763,276.432648 318.537903,276.476868 
z"/>
<path fill="#B7B7B7" opacity="1.000000" stroke="none" 
	d="
M309.268677,204.267441 
	C309.027405,204.618500 308.646881,204.829895 308.266357,205.041290 
	C308.234863,204.688217 308.203369,204.335129 308.510742,203.915863 
	C308.849640,203.849670 309.129395,204.127777 309.268677,204.267441 
z"/>
<path fill="#B7B7B7" opacity="1.000000" stroke="none" 
	d="
M306.250000,205.750000 
	C306.299988,205.466660 306.600006,205.433334 306.899994,205.399994 
	C306.766663,205.599991 306.633331,205.799988 306.250000,205.750000 
z"/>
<path fill="#CDCDCD" opacity="1.000000" stroke="none" 
	d="
M158.028183,357.075745 
	C158.157272,357.353424 158.120972,357.896820 157.847427,358.177307 
	C157.694397,357.723389 157.778595,357.532440 158.028183,357.075745 
z"/>
<path fill="#D7D7D7" opacity="1.000000" stroke="none" 
	d="
M280.243225,154.567413 
	C280.725250,154.694046 280.824371,154.910126 280.975220,155.479034 
	C280.638123,155.440186 280.249207,155.048508 280.243225,154.567413 
z"/>
<path fill="#131313" opacity="1.000000" stroke="none" 
	d="
M234.007935,358.010986 
	C233.923904,358.047668 233.831085,358.073395 233.857574,358.040894 
	C233.976898,357.982605 233.999115,358.000031 234.007935,358.010986 
z"/>
<path fill="#131313" opacity="1.000000" stroke="none" 
	d="
M361.579376,206.614746 
	C361.817169,206.695084 362.039886,206.837311 362.262573,206.979523 
	C362.089203,207.000885 361.915863,207.022247 361.598602,206.892639 
	C361.454712,206.741653 361.564270,206.676620 361.579376,206.614746 
z"/>
<path fill="#B7B7B7" opacity="1.000000" stroke="none" 
	d="
M300.966522,208.953949 
	C301.123657,208.508789 301.470612,208.244598 301.817596,207.980423 
	C301.917267,208.348816 302.016937,208.717194 301.830688,209.286591 
	C301.415283,209.370041 301.285828,209.252487 300.966522,208.953949 
z"/>
<path fill="#CDCDCD" opacity="1.000000" stroke="none" 
	d="
M160.476318,360.632294 
	C160.229538,360.187195 159.982742,359.742126 159.735962,359.297028 
	C160.088089,359.268097 160.440231,359.239197 160.793381,359.726898 
	C160.688370,360.373108 160.582352,360.502686 160.476318,360.632294 
z"/>
<path fill="#CDCDCD" opacity="1.000000" stroke="none" 
	d="
M162.134430,360.789795 
	C161.766617,360.870728 161.382507,360.986176 160.737366,360.866943 
	C160.582352,360.502686 160.688370,360.373108 160.962860,360.057190 
	C161.432892,360.033905 161.734497,360.196930 162.050262,360.619293 
	C162.064438,360.878632 162.118149,360.824341 162.134430,360.789795 
z"/>
<path fill="#131313" opacity="1.000000" stroke="none" 
	d="
M252.460815,159.523163 
	C252.435867,159.477631 252.485764,159.568680 252.460815,159.523163 
z"/>
<path fill="#CDCDCD" opacity="1.000000" stroke="none" 
	d="
M160.996735,279.043091 
	C161.462189,278.990356 161.747375,279.156555 162.112839,279.564697 
	C162.043610,279.928375 161.894104,280.050079 161.504700,280.333496 
	C161.044083,280.380890 160.854919,280.227692 160.596191,279.882446 
	C160.602234,279.573578 160.709366,279.417816 160.996735,279.043091 
z"/>
<path fill="#D7D7D7" opacity="1.000000" stroke="none" 
	d="
M372.093414,215.234970 
	C372.093414,215.234970 371.987366,214.878540 371.987366,214.878540 
	C371.987366,214.878540 371.746887,215.110413 371.890442,215.144821 
	C372.033966,215.179230 372.093414,215.234970 372.093414,215.234970 
z"/>
<path fill="#D7D7D7" opacity="1.000000" stroke="none" 
	d="
M371.995789,215.165009 
	C371.957611,215.150772 372.120117,215.135162 372.120117,215.135162 
	C372.120117,215.135162 371.941956,215.084152 372.017700,215.159561 
	C372.093414,215.234970 372.033966,215.179230 371.995789,215.165009 
z"/>
<path fill="#131313" opacity="1.000000" stroke="none" 
	d="
M534.348755,249.545181 
	C536.042847,238.284027 539.333008,228.296997 548.922791,221.758469 
	C567.586792,209.032959 593.757629,218.382477 599.510498,240.068390 
	C603.639832,255.634216 603.789612,271.470978 598.928467,286.879547 
	C593.258057,304.853210 581.609558,309.778320 567.133850,309.629456 
	C550.508545,309.458405 539.778564,300.415161 535.977783,284.675049 
	C533.212708,273.224030 532.750610,261.645660 534.348755,249.545181 
z"/>
<path fill="#151515" opacity="1.000000" stroke="none" 
	d="
M1188.782959,220.985779 
	C1200.981934,223.389420 1203.964844,232.646484 1202.829102,245.109131 
	C1201.921509,255.069077 1195.996460,260.393585 1185.078857,261.027374 
	C1179.300903,261.362793 1173.487671,261.086731 1167.425537,261.086731 
	C1167.425537,247.571609 1167.425537,234.014603 1167.425537,219.620697 
	C1174.549072,220.062347 1181.459473,220.490784 1188.782959,220.985779 
z"/>
<path fill="#131313" opacity="1.000000" stroke="none" 
	d="
M294.166016,287.139343 
	C294.195160,289.163757 294.686218,291.302643 293.835083,292.407745 
	C288.673950,299.108734 283.088196,305.482117 277.906555,312.168213 
	C276.124481,314.467682 274.692474,314.999573 271.708191,314.371552 
	C263.926025,312.733887 256.011444,311.674622 248.113861,310.664520 
	C245.426071,310.320709 244.318604,309.329163 243.447159,306.694794 
	C240.540405,297.907776 237.183777,289.269592 233.894226,280.286774 
	C237.020767,276.708313 240.648987,272.817230 243.970139,268.679657 
	C247.183517,264.676361 250.080856,260.419373 252.865479,256.617249 
	C263.468567,258.287445 273.911774,259.932465 284.001038,261.521729 
	C287.326202,269.913605 290.666931,278.344788 294.166016,287.139343 
z"/>
<path fill="#222222" opacity="1.000000" stroke="none" 
	d="
M676.423706,381.680603 
	C675.284363,386.551117 672.247681,387.590973 667.785278,386.702271 
	C667.785278,382.923920 667.785278,379.097595 667.785278,375.280487 
	C674.437988,374.496338 675.506775,375.246979 676.423706,381.680603 
z"/>
<path fill="#222222" opacity="1.000000" stroke="none" 
	d="
M1070.341797,377.852661 
	C1071.176025,376.603516 1071.894409,375.333466 1072.893921,375.048340 
	C1073.536621,374.865051 1075.109131,375.994202 1075.317261,376.784668 
	C1075.525024,377.573090 1074.535889,379.489319 1074.097534,379.481323 
	C1072.839844,379.458405 1071.595093,378.711548 1070.341797,377.852661 
z"/>
</svg>