<svg width="60" height="131" viewBox="0 0 60 131" fill="none" xmlns="http://www.w3.org/2000/svg">
<g clip-path="url(#clip0_1228_3370)">
<path d="M60 0.297119H0V130.373H60V0.297119Z" fill="white"/>
<path d="M38.7023 16.9382H5.11454C3.97624 16.9382 3.05347 17.861 3.05347 18.9993C3.05347 20.1376 3.97624 21.0604 5.11454 21.0604H38.7023C39.8406 21.0604 40.7634 20.1376 40.7634 18.9993C40.7634 17.861 39.8406 16.9382 38.7023 16.9382Z" fill="#EBEBEB"/>
<path d="M15.4199 9.45752H6.1069C4.42054 9.45752 3.05347 10.8246 3.05347 12.511C3.05347 14.1973 4.42054 15.5644 6.1069 15.5644H15.4199C17.1062 15.5644 18.4733 14.1973 18.4733 12.511C18.4733 10.8246 17.1062 9.45752 15.4199 9.45752Z" fill="#EBEBEB"/>
<path d="M55.8779 15.946C55.8779 14.1332 54.4083 12.6636 52.5954 12.6636C50.7826 12.6636 49.313 14.1332 49.313 15.946C49.313 17.7589 50.7826 19.2285 52.5954 19.2285C54.4083 19.2285 55.8779 17.7589 55.8779 15.946Z" fill="#EBEBEB"/>
<path d="M53.8932 78.6177H6.1069C4.42054 78.6177 3.05347 79.9847 3.05347 81.6711V105.183C3.05347 106.869 4.42054 108.236 6.1069 108.236H53.8932C55.5795 108.236 56.9466 106.869 56.9466 105.183V81.6711C56.9466 79.9847 55.5795 78.6177 53.8932 78.6177Z" fill="#EBEBEB"/>
<path d="M54.8092 69.4575H5.19087C4.01042 69.4575 3.05347 70.4145 3.05347 71.5949V73.427C3.05347 74.6074 4.01042 75.5644 5.19087 75.5644H54.8092C55.9896 75.5644 56.9466 74.6074 56.9466 73.427V71.5949C56.9466 70.4145 55.9896 69.4575 54.8092 69.4575Z" fill="#EBEBEB"/>
<path d="M26.1069 60.4497H6.1069C4.42054 60.4497 3.05347 61.8168 3.05347 63.5031C3.05347 65.1895 4.42054 66.5566 6.1069 66.5566H26.1069C27.7933 66.5566 29.1603 65.1895 29.1603 63.5031C29.1603 61.8168 27.7933 60.4497 26.1069 60.4497Z" fill="#EBEBEB"/>
<path d="M54.3511 61.3657H41.832C40.3986 61.3657 39.2366 62.5277 39.2366 63.9611C39.2366 65.3946 40.3986 66.5566 41.832 66.5566H54.3511C55.7845 66.5566 56.9465 65.3946 56.9465 63.9611C56.9465 62.5277 55.7845 61.3657 54.3511 61.3657Z" fill="#EBEBEB"/>
<path d="M0 112.969H60V130.374H0V112.969Z" fill="white" fill-opacity="0.4"/>
<mask id="mask0_1228_3370" style="mask-type:luminance" maskUnits="userSpaceOnUse" x="0" y="112" width="60" height="19">
<path d="M60 112.664H0V130.373H60V112.664Z" fill="white"/>
<path d="M0 112.969H60V130.374H0V112.969Z" fill="black"/>
</mask>
<g mask="url(#mask0_1228_3370)">
<path d="M0 113.198H60V112.74H0V113.198Z" fill="#EBEBEB"/>
</g>
<path d="M9.05353 117.32C9.05353 116.308 8.23328 115.488 7.22147 115.488C6.20965 115.488 5.3894 116.308 5.3894 117.32C5.3894 118.332 6.20965 119.152 7.22147 119.152C8.23328 119.152 9.05353 118.332 9.05353 117.32Z" fill="#EBEBEB"/>
<path d="M10.7327 120.526H3.70982C3.11959 120.526 2.64111 121.005 2.64111 121.595C2.64111 122.185 3.11959 122.664 3.70982 122.664H10.7327C11.3229 122.664 11.8014 122.185 11.8014 121.595C11.8014 121.005 11.3229 120.526 10.7327 120.526Z" fill="#EBEBEB"/>
<path d="M20.4427 117.32C20.4427 116.308 19.6224 115.488 18.6106 115.488C17.5988 115.488 16.7786 116.308 16.7786 117.32C16.7786 118.332 17.5988 119.152 18.6106 119.152C19.6224 119.152 20.4427 118.332 20.4427 117.32Z" fill="#EBEBEB"/>
<path d="M22.1221 120.526H15.0992C14.509 120.526 14.0305 121.005 14.0305 121.595C14.0305 122.185 14.509 122.664 15.0992 122.664H22.1221C22.7123 122.664 23.1908 122.185 23.1908 121.595C23.1908 121.005 22.7123 120.526 22.1221 120.526Z" fill="#EBEBEB"/>
<path d="M31.8321 117.32C31.8321 116.308 31.0118 115.488 30 115.488C28.9882 115.488 28.168 116.308 28.168 117.32C28.168 118.332 28.9882 119.152 30 119.152C31.0118 119.152 31.8321 118.332 31.8321 117.32Z" fill="#EBEBEB"/>
<path d="M33.5115 120.526H26.4886C25.8984 120.526 25.4199 121.005 25.4199 121.595C25.4199 122.185 25.8984 122.664 26.4886 122.664H33.5115C34.1018 122.664 34.5802 122.185 34.5802 121.595C34.5802 121.005 34.1018 120.526 33.5115 120.526Z" fill="#EBEBEB"/>
<path d="M43.2213 117.32C43.2213 116.308 42.401 115.488 41.3892 115.488C40.3774 115.488 39.5571 116.308 39.5571 117.32C39.5571 118.332 40.3774 119.152 41.3892 119.152C42.401 119.152 43.2213 118.332 43.2213 117.32Z" fill="#EBEBEB"/>
<path d="M44.9007 120.526H37.8778C37.2876 120.526 36.8091 121.005 36.8091 121.595C36.8091 122.185 37.2876 122.664 37.8778 122.664H44.9007C45.4909 122.664 45.9694 122.185 45.9694 121.595C45.9694 121.005 45.4909 120.526 44.9007 120.526Z" fill="#EBEBEB"/>
<path d="M54.6107 117.32C54.6107 116.308 53.7904 115.488 52.7786 115.488C51.7668 115.488 50.9465 116.308 50.9465 117.32C50.9465 118.332 51.7668 119.152 52.7786 119.152C53.7904 119.152 54.6107 118.332 54.6107 117.32Z" fill="#EBEBEB"/>
<path d="M56.2901 120.526H49.2672C48.677 120.526 48.1985 121.005 48.1985 121.595C48.1985 122.185 48.677 122.664 49.2672 122.664H56.2901C56.8803 122.664 57.3588 122.185 57.3588 121.595C57.3588 121.005 56.8803 120.526 56.2901 120.526Z" fill="#EBEBEB"/>
<path d="M54.1985 24.4192H5.80156C4.28383 24.4192 3.05347 25.6496 3.05347 27.1673V38.7703C3.05347 40.2881 4.28383 41.5184 5.80156 41.5184H54.1985C55.7162 41.5184 56.9466 40.2881 56.9466 38.7703V27.1673C56.9466 25.6496 55.7162 24.4192 54.1985 24.4192Z" fill="#EBEBEB"/>
<path d="M26.4122 43.0452H5.80156C4.28383 43.0452 3.05347 44.2755 3.05347 45.7933V54.6482C3.05347 56.1659 4.28383 57.3963 5.80156 57.3963H26.4122C27.93 57.3963 29.1603 56.1659 29.1603 54.6482V45.7933C29.1603 44.2755 27.93 43.0452 26.4122 43.0452Z" fill="#EBEBEB"/>
<path d="M54.1984 43.0452H33.5877C32.07 43.0452 30.8396 44.2755 30.8396 45.7933V54.6482C30.8396 56.1659 32.07 57.3963 33.5877 57.3963H54.1984C55.7161 57.3963 56.9465 56.1659 56.9465 54.6482V45.7933C56.9465 44.2755 55.7161 43.0452 54.1984 43.0452Z" fill="#EBEBEB"/>
</g>
<defs>
<clipPath id="clip0_1228_3370">
<rect y="0.297119" width="60" height="130.076" rx="10" fill="white"/>
</clipPath>
</defs>
</svg>
