<svg width="1512" height="982" viewBox="0 0 1512 982" fill="none" xmlns="http://www.w3.org/2000/svg">
<g clip-path="url(#clip0_1062_3952)">
<rect width="1512" height="982" fill="#0A0A0A"/>
<mask id="path-1-outside-1_1062_3952" maskUnits="userSpaceOnUse" x="0" y="0" width="252" height="982" fill="black">
<rect fill="white" width="252" height="982"/>
<path d="M0 0H250V982H0V0Z"/>
</mask>
<path d="M248 0V982H252V0H248Z" fill="#252525" mask="url(#path-1-outside-1_1062_3952)"/>
<mask id="path-3-outside-2_1062_3952" maskUnits="userSpaceOnUse" x="0" y="920" width="250" height="62" fill="black">
<rect fill="white" y="920" width="250" height="62"/>
<path d="M0 922H250V982H0V922Z"/>
</mask>
<path d="M0 922H250V982H0V922Z" fill="#252525"/>
<path d="M0 924H250V920H0V924Z" fill="#252525" mask="url(#path-3-outside-2_1062_3952)"/>
<path d="M61.4352 226.882C66.4252 226.882 70.4705 222.837 70.4705 217.847H61.4352L61.4352 208.812C56.4452 208.812 52.3999 212.857 52.3999 217.847C52.3999 222.837 56.4451 226.882 61.4352 226.882Z" stroke="white" stroke-width="2" stroke-linecap="round" stroke-linejoin="round"/>
<path d="M65.3881 207.117V213.807H71.5999V213.329C71.5999 209.899 68.8188 207.117 65.3881 207.117Z" stroke="white" stroke-width="2" stroke-linecap="round" stroke-linejoin="round"/>
<path d="M85.9787 222H84.348L88.0121 211.818H89.7869L93.451 222H91.8203L88.9418 213.668H88.8622L85.9787 222ZM86.2521 218.013H91.5419V219.305H86.2521V218.013ZM96.2885 217.466V222H94.802V214.364H96.2289V215.607H96.3233C96.499 215.202 96.7741 214.877 97.1486 214.632C97.5265 214.387 98.0021 214.264 98.5755 214.264C99.0958 214.264 99.5516 214.374 99.9426 214.592C100.334 214.808 100.637 215.129 100.852 215.557C101.068 215.984 101.176 216.513 101.176 217.143V222H99.6891V217.322C99.6891 216.768 99.5449 216.336 99.2566 216.024C98.9682 215.709 98.5721 215.552 98.0684 215.552C97.7237 215.552 97.4171 215.626 97.1486 215.776C96.8835 215.925 96.673 216.143 96.5172 216.432C96.3648 216.717 96.2885 217.062 96.2885 217.466ZM105.392 222.169C104.908 222.169 104.47 222.08 104.079 221.901C103.688 221.718 103.378 221.455 103.149 221.11C102.924 220.765 102.811 220.343 102.811 219.842C102.811 219.411 102.894 219.057 103.06 218.778C103.226 218.5 103.449 218.28 103.731 218.117C104.013 217.955 104.328 217.832 104.676 217.749C105.024 217.666 105.378 217.603 105.74 217.56C106.197 217.507 106.568 217.464 106.853 217.431C107.138 217.395 107.345 217.337 107.475 217.257C107.604 217.178 107.669 217.048 107.669 216.869V216.835C107.669 216.4 107.546 216.064 107.301 215.825C107.059 215.587 106.697 215.467 106.217 215.467C105.716 215.467 105.322 215.578 105.034 215.8C104.749 216.019 104.551 216.263 104.442 216.531L103.045 216.213C103.211 215.749 103.453 215.375 103.771 215.089C104.092 214.801 104.462 214.592 104.879 214.463C105.297 214.33 105.736 214.264 106.197 214.264C106.502 214.264 106.825 214.301 107.166 214.374C107.511 214.443 107.833 214.572 108.131 214.761C108.432 214.95 108.679 215.22 108.872 215.572C109.064 215.92 109.16 216.372 109.16 216.929V222H107.708V220.956H107.649C107.552 221.148 107.408 221.337 107.216 221.523C107.024 221.708 106.777 221.862 106.475 221.985C106.174 222.108 105.812 222.169 105.392 222.169ZM105.715 220.976C106.126 220.976 106.477 220.895 106.769 220.732C107.064 220.57 107.287 220.358 107.44 220.096C107.596 219.831 107.673 219.547 107.673 219.246V218.261C107.62 218.314 107.518 218.364 107.365 218.411C107.216 218.454 107.045 218.492 106.853 218.525C106.661 218.555 106.474 218.583 106.291 218.609C106.109 218.633 105.957 218.652 105.834 218.669C105.546 218.705 105.282 218.767 105.044 218.853C104.808 218.939 104.619 219.063 104.477 219.226C104.338 219.385 104.268 219.597 104.268 219.862C104.268 220.23 104.404 220.509 104.676 220.697C104.947 220.883 105.294 220.976 105.715 220.976ZM112.626 211.818V222H111.14V211.818H112.626ZM115.566 224.864C115.344 224.864 115.142 224.845 114.959 224.809C114.777 224.776 114.641 224.739 114.552 224.7L114.91 223.482C115.181 223.554 115.423 223.586 115.635 223.576C115.848 223.566 116.035 223.487 116.197 223.337C116.363 223.188 116.509 222.945 116.635 222.607L116.819 222.099L114.025 214.364H115.616L117.55 220.29H117.629L119.563 214.364H121.159L118.012 223.019C117.866 223.417 117.68 223.753 117.455 224.028C117.23 224.307 116.961 224.516 116.65 224.655C116.338 224.794 115.977 224.864 115.566 224.864ZM128.278 216.228L126.931 216.467C126.875 216.294 126.785 216.13 126.662 215.974C126.543 215.819 126.381 215.691 126.175 215.592C125.97 215.492 125.713 215.442 125.405 215.442C124.984 215.442 124.632 215.537 124.351 215.726C124.069 215.911 123.928 216.152 123.928 216.447C123.928 216.702 124.023 216.907 124.211 217.063C124.4 217.219 124.705 217.347 125.126 217.446L126.339 217.724C127.042 217.887 127.566 218.137 127.91 218.475C128.255 218.813 128.427 219.252 128.427 219.793C128.427 220.25 128.295 220.658 128.03 221.016C127.768 221.37 127.402 221.649 126.931 221.851C126.464 222.053 125.922 222.154 125.305 222.154C124.45 222.154 123.752 221.972 123.212 221.607C122.672 221.239 122.34 220.717 122.218 220.041L123.655 219.822C123.744 220.197 123.928 220.48 124.206 220.673C124.485 220.862 124.848 220.956 125.295 220.956C125.782 220.956 126.172 220.855 126.464 220.653C126.755 220.447 126.901 220.197 126.901 219.902C126.901 219.663 126.812 219.463 126.633 219.3C126.457 219.138 126.187 219.015 125.822 218.933L124.53 218.649C123.817 218.487 123.29 218.228 122.949 217.874C122.611 217.519 122.442 217.07 122.442 216.526C122.442 216.076 122.568 215.681 122.819 215.343C123.071 215.005 123.419 214.741 123.863 214.553C124.308 214.36 124.816 214.264 125.39 214.264C126.215 214.264 126.865 214.443 127.339 214.801C127.813 215.156 128.126 215.631 128.278 216.228ZM130.062 222V214.364H131.548V222H130.062ZM130.812 213.185C130.554 213.185 130.332 213.099 130.146 212.927C129.964 212.751 129.873 212.542 129.873 212.3C129.873 212.055 129.964 211.846 130.146 211.674C130.332 211.498 130.554 211.411 130.812 211.411C131.071 211.411 131.291 211.498 131.474 211.674C131.659 211.846 131.752 212.055 131.752 212.3C131.752 212.542 131.659 212.751 131.474 212.927C131.291 213.099 131.071 213.185 130.812 213.185ZM139.27 216.228L137.923 216.467C137.867 216.294 137.777 216.13 137.655 215.974C137.535 215.819 137.373 215.691 137.167 215.592C136.962 215.492 136.705 215.442 136.397 215.442C135.976 215.442 135.625 215.537 135.343 215.726C135.061 215.911 134.92 216.152 134.92 216.447C134.92 216.702 135.015 216.907 135.204 217.063C135.393 217.219 135.698 217.347 136.118 217.446L137.331 217.724C138.034 217.887 138.558 218.137 138.903 218.475C139.247 218.813 139.42 219.252 139.42 219.793C139.42 220.25 139.287 220.658 139.022 221.016C138.76 221.37 138.394 221.649 137.923 221.851C137.456 222.053 136.914 222.154 136.297 222.154C135.442 222.154 134.745 221.972 134.204 221.607C133.664 221.239 133.333 220.717 133.21 220.041L134.647 219.822C134.736 220.197 134.92 220.48 135.199 220.673C135.477 220.862 135.84 220.956 136.287 220.956C136.775 220.956 137.164 220.855 137.456 220.653C137.747 220.447 137.893 220.197 137.893 219.902C137.893 219.663 137.804 219.463 137.625 219.3C137.449 219.138 137.179 219.015 136.814 218.933L135.522 218.649C134.809 218.487 134.282 218.228 133.941 217.874C133.603 217.519 133.434 217.07 133.434 216.526C133.434 216.076 133.56 215.681 133.812 215.343C134.064 215.005 134.412 214.741 134.856 214.553C135.3 214.36 135.809 214.264 136.382 214.264C137.207 214.264 137.857 214.443 138.331 214.801C138.805 215.156 139.118 215.631 139.27 216.228Z" fill="white"/>
<rect x="20" y="142" width="210" height="40" rx="10" fill="white"/>
<rect x="20" y="197" width="210" height="40" rx="10" fill="#252525"/>
<rect x="20" y="252" width="210" height="40" rx="10" fill="#252525"/>
<rect x="20" y="307" width="210" height="40" rx="10" fill="#252525"/>
<rect x="20" y="362" width="210" height="40" rx="10" fill="#252525"/>
<rect x="20" y="417" width="210" height="40" rx="10" fill="#252525"/>
<rect x="20" y="472" width="210" height="40" rx="10" fill="#252525"/>
<rect x="20" y="527" width="210" height="40" rx="10" fill="#252525"/>
<path d="M141.006 74.9018C138.482 76.7551 135.793 78.3289 132.788 78.1992C130.364 78.0945 128.226 78.8745 125.952 79.1392C119.756 79.8607 113.571 79.0317 109.555 73.9651C106.363 69.9389 102.333 66.3553 100.645 61.1919C99.3595 57.2611 99.1211 53.3651 100.331 49.3996C100.422 49.1014 100.47 48.749 100.662 48.5292C102.473 46.4512 102.674 43.7096 103.706 41.3188C106.314 35.2782 110.652 30.772 117.346 30.0334C121.058 29.6239 124.707 28.6097 128.507 28.7092C132.899 28.8243 136.769 30.1382 140.205 32.8195C140.696 33.2023 141.296 33.5656 141.572 34.0835C143.488 37.675 146.76 40.2427 148.804 43.7209C151.252 47.8862 151.916 52.3773 151.037 57.1096C150.961 57.5169 150.902 57.9624 150.695 58.3047C148.833 61.3747 148.018 64.8796 146.573 68.1152C145.369 70.8086 143.416 72.9977 141.006 74.9018ZM147.874 58.4991C148.599 58.6664 148.598 58.6661 148.975 57.7835C150.708 53.7253 150.388 49.6601 148.86 45.6582C147.906 43.1604 146.384 41.0175 144.265 39.439C143.605 39.6681 143.76 40.5101 143.034 40.5264C142.442 40.2145 142.28 39.5829 142.119 38.9993C141.857 38.0511 141.169 37.6348 140.31 37.5034C135.499 36.7671 128.983 40.7657 129.471 46.4444C129.608 48.0365 129.81 48.2771 131.344 48.0085C135.038 47.3616 138.361 46.0557 140.637 42.8527C141.145 42.1372 141.846 41.9742 142.53 42.4712C143.23 42.9788 142.976 43.6718 142.575 44.2728C142.375 44.573 142.117 44.8402 141.86 45.0962C139.133 47.8046 135.674 48.8033 132.003 49.2884C131.395 49.3688 130.745 49.2716 130.246 49.9018C130.594 51.3396 131.223 52.667 132.218 54.0027C134.923 52.0156 137.895 51.1871 141.065 52.2266C144.149 53.2379 146.527 55.2106 147.874 58.4991ZM118.346 33.3462C117.946 34.1326 117.426 34.8814 117.166 35.7116C115.755 40.2079 116.964 44.5939 120.84 46.7067C122.027 47.3537 122.711 47.2791 123.183 45.9016C124.372 42.427 125.036 38.9621 123.424 35.4339C123.009 34.5261 123.167 33.7187 124.1 33.357C125.02 33.0003 125.396 33.8186 125.664 34.4885C126.091 35.5532 126.291 36.6797 126.347 37.8311C126.492 40.8721 125.608 43.6878 124.494 46.4576C124.31 46.9153 123.862 47.5198 124.506 47.8375C125.713 48.4327 127.054 48.2176 128.337 48.1158C128.907 48.0706 128.973 47.508 128.855 47.0013C128.585 45.8397 128.885 44.718 129.181 43.6272C130.174 39.9721 134.132 36.9902 138.041 36.8947C139.008 36.871 139.976 36.8911 141.023 36.8911C138.973 31.2517 127.516 27.127 122.249 30.6726C122.22 31.1816 123.005 31.4719 122.554 32.2015C121.24 32.4215 119.461 31.2803 118.346 33.3462ZM117.168 69.0382C120.066 67.3398 121.51 64.8502 121.479 61.4527C121.467 60.1657 120.941 59.699 119.782 59.9572C116.188 60.7577 112.702 61.793 110.425 65.031C109.913 65.7596 109.246 66.1659 108.446 65.6267C107.555 65.0263 107.967 64.2761 108.445 63.597C109.053 62.7319 109.853 62.072 110.721 61.4861C112.56 60.245 114.611 59.5671 116.753 59.0409C118.04 58.725 119.46 59.095 120.726 58.2874C120.233 56.7725 119.836 55.2892 118.656 54.0448C115.838 56.2853 112.769 56.7909 109.483 55.6842C106.253 54.5964 104.222 52.1733 102.772 49.1365C99.103 53.7149 100.803 64.8105 106.851 68.5594C107.289 68.3029 107.153 67.5323 107.831 67.4592C108.337 67.6268 108.548 68.0779 108.629 68.5233C108.958 70.329 110.291 70.5984 111.767 70.6094C113.633 70.6233 115.339 70.0179 117.168 69.0382ZM110.316 71.2266C109.528 71.9548 110.428 72.3604 110.712 72.7227C113.284 75.9991 116.784 77.8077 120.81 78.3828C123.441 78.7585 126.184 78.8723 128.66 77.6091C128.821 76.9087 127.905 76.5915 128.286 75.9361C128.693 75.5776 129.164 75.638 129.607 75.8004C131.061 76.3334 131.947 75.6704 132.717 74.4979C134.036 72.4893 134.371 70.2947 134.287 67.9469C134.184 65.0667 132.007 61.9233 129.34 60.9347C128.673 60.6876 128.265 60.7886 127.996 61.4774C126.582 65.102 125.825 68.7606 127.477 72.517C127.881 73.4349 127.831 74.229 126.876 74.5889C125.897 74.9578 125.524 74.1422 125.219 73.3808C124.415 71.3801 124.482 69.3165 124.738 67.2326C125.033 64.8386 125.995 62.6497 126.95 60.3602C125.591 59.7226 124.218 59.807 122.909 59.663C122.023 59.5656 122.057 60.2181 122.103 60.9419C122.305 64.0712 121.39 66.7519 118.858 68.7951C116.405 70.7751 113.612 71.4438 110.316 71.2266ZM131.863 56.0975C130.205 56.796 129.744 58.3716 128.898 59.8078C132.079 61.4262 134.302 63.4891 134.892 67.0825C135.454 70.4998 134.426 73.3803 132.57 76.1599C139.128 76.75 147.355 69.2789 147.375 62.8611C146.959 62.5395 146.318 63.0099 145.963 62.4745C145.908 61.9943 146.159 61.6196 146.453 61.3588C147.822 60.1418 147.408 58.9025 146.606 57.603C145.213 55.3444 143.265 53.7665 140.785 52.8713C138.302 51.9751 135.996 52.4117 133.819 53.8742C132.84 54.5321 132.778 55.1251 133.549 55.9955C136.043 58.8134 138.728 61.2793 142.742 61.6084C143.575 61.6767 144.135 62.1903 144.036 63.0523C143.935 63.9219 143.196 64.0385 142.481 63.9531C141.022 63.7789 139.643 63.3598 138.388 62.555C135.807 60.8995 133.704 58.7707 131.863 56.0975ZM116.235 31.8389C109.271 33.6611 103.893 39.2605 103.464 45.1388C103.889 45.5518 104.493 45.0409 104.955 45.4344C105.133 46.2072 104.557 46.6625 104.139 47.1542C103.666 47.7101 103.458 48.2465 103.67 49.0002C105.186 54.4011 112.201 57.1983 116.925 54.2941C117.987 53.6409 118.333 53.0398 117.36 52.005C114.803 49.2843 112.181 46.7121 108.143 46.4502C107.353 46.399 106.893 45.8692 106.881 45.116C106.866 44.2028 107.555 44.0872 108.295 44.0801C109.419 44.0695 110.443 44.3973 111.432 44.8939C114.137 46.2524 116.327 48.2011 118.108 50.6375C118.461 51.1201 118.689 51.7536 119.493 51.9981C120.482 50.8772 121.475 49.7368 122.022 48.2695C114.448 44.2106 114.668 38.4213 118.239 31.8127C117.51 31.8127 116.998 31.8127 116.235 31.8389ZM120.528 54.8244C120.866 55.7502 121.188 56.6817 121.544 57.6004C121.956 58.6662 127.004 59.7314 127.823 58.9366C127.86 58.9006 127.888 58.8558 127.923 58.8174C131.108 55.3005 131.085 55.3083 129.574 50.8878C129.265 49.9848 128.76 49.556 127.847 49.3695C125.114 48.8114 122.443 48.3213 121.09 51.7109C121.054 51.8016 120.969 51.8857 120.885 51.9427C119.811 52.6795 119.811 53.5905 120.528 54.8244Z" fill="white"/>
<rect x="292" y="150" width="471" height="259" rx="20" fill="#252525"/>
<rect x="885" y="506" width="587" height="441" rx="20" fill="#252525"/>
<rect x="292" y="506" width="556" height="441" rx="20" fill="#252525"/>
<rect x="813" y="150" width="471" height="259" rx="20" fill="#252525"/>
<rect x="1334" y="150" width="471" height="259" rx="20" fill="#252525"/>
<g filter="url(#filter0_b_1062_3952)">
<mask id="path-22-outside-3_1062_3952" maskUnits="userSpaceOnUse" x="252" y="0" width="1260" height="112" fill="black">
<rect fill="white" x="252" width="1260" height="112"/>
<path d="M252 110V0L1512 0V110L252 110Z"/>
</mask>
<path d="M252 110V0L1512 0V110L252 110Z" fill="#0A0A0A" fill-opacity="0.4"/>
<path d="M1512 108L252 108V112L1512 112V108Z" fill="#252525" mask="url(#path-22-outside-3_1062_3952)"/>
</g>
<rect x="1052" y="30" width="430" height="50" rx="15" fill="#252525"/>
<rect x="300" y="32" width="187" height="42" rx="15" fill="#252525"/>
</g>
<defs>
<filter id="filter0_b_1062_3952" x="212" y="-40" width="1340" height="192" filterUnits="userSpaceOnUse" color-interpolation-filters="sRGB">
<feFlood flood-opacity="0" result="BackgroundImageFix"/>
<feGaussianBlur in="BackgroundImageFix" stdDeviation="20"/>
<feComposite in2="SourceAlpha" operator="in" result="effect1_backgroundBlur_1062_3952"/>
<feBlend mode="normal" in="SourceGraphic" in2="effect1_backgroundBlur_1062_3952" result="shape"/>
</filter>
<clipPath id="clip0_1062_3952">
<rect width="1512" height="982" fill="white"/>
</clipPath>
</defs>
</svg>
