<svg width="146" height="149" viewBox="0 0 146 149" fill="none" xmlns="http://www.w3.org/2000/svg">
<path d="M132.291 30.125C137.586 37.3368 142.083 45.0204 141.712 53.6041C141.413 60.5312 143.642 66.6385 144.398 73.1361C146.46 90.841 144.091 108.513 129.615 119.987C118.112 129.105 107.873 140.62 93.1202 145.443C81.8892 149.115 70.7578 149.797 59.4278 146.341C58.5758 146.081 57.5691 145.941 56.9411 145.394C51.0038 140.218 43.1708 139.647 36.3397 136.697C19.081 129.244 6.20627 116.852 4.09592 97.7251C2.92575 87.1192 0.0280189 76.6929 0.312506 65.8364C0.641344 53.2875 4.39535 42.2311 12.0561 32.4128C13.1499 31.0109 14.1878 29.2972 15.6676 28.5077C25.9291 23.0332 33.2652 13.6855 43.2029 7.84503C55.1038 0.850754 67.9357 -1.04677 81.4564 1.46539C82.6202 1.68161 83.8929 1.85014 84.8709 2.44333C93.6424 7.76335 103.656 10.0899 112.901 14.2205C120.596 17.659 126.851 23.2389 132.291 30.125ZM85.4264 10.5025C85.9045 8.4313 85.9036 8.4334 83.3817 7.3566C71.7868 2.40591 60.1722 3.32019 48.738 7.68604C41.6016 10.4109 35.4789 14.7595 30.969 20.8134C31.6235 22.6986 34.0294 22.2555 34.0758 24.3324C33.1847 26.0234 31.3801 26.4862 29.7127 26.9459C27.0036 27.6928 25.8142 29.6607 25.4388 32.1139C23.3351 45.8608 34.7597 64.476 50.9844 63.0817C55.5332 62.6908 56.2206 62.1147 55.4534 57.7325C53.6051 47.1757 49.8739 37.6816 40.7225 31.1807C38.6781 29.7284 38.2125 27.7259 39.6325 25.7699C41.0827 23.7723 43.0627 24.4977 44.7797 25.6422C45.6377 26.2141 46.401 26.9503 47.1323 27.6865C54.8706 35.4767 57.7241 45.36 59.1102 55.8495C59.3398 57.5865 59.0621 59.4428 60.8626 60.8681C64.9707 59.8742 68.7633 58.0776 72.5797 55.233C66.9021 47.5041 64.5351 39.015 67.5049 29.9578C70.3944 21.1455 76.0306 14.35 85.4264 10.5025ZM13.561 94.8674C15.8078 96.0106 17.9473 97.4959 20.3194 98.2402C33.1659 102.272 45.6973 98.8162 51.7337 87.7434C53.5824 84.3524 53.3691 82.3961 49.4337 81.0493C39.506 77.652 29.6064 75.7529 19.5257 80.3591C16.932 81.5443 14.6252 81.0938 13.5919 78.4277C12.5728 75.7985 14.9107 74.7254 16.8248 73.9586C19.8666 72.7402 23.0852 72.1673 26.3749 72.0096C35.0635 71.5932 43.1085 74.1191 51.0223 77.3035C52.3298 77.8296 54.0569 79.1085 54.9647 77.2682C56.6652 73.8208 56.0508 69.9892 55.76 66.3236C55.6306 64.6937 54.0234 64.5043 52.5757 64.8414C49.2566 65.6142 46.0517 64.7568 42.9352 63.9101C32.4922 61.0731 23.9725 49.7656 23.6995 38.5965C23.632 35.8338 23.6894 33.0681 23.6894 30.0777C7.57674 35.9338 -4.20806 68.6684 5.92227 83.7183C7.37647 83.8003 8.20579 81.5558 10.2903 82.8444C10.9189 86.599 7.65847 91.6828 13.561 94.8674ZM115.538 98.2341C110.686 89.9549 103.572 85.8272 93.8652 85.9163C90.1883 85.95 88.8548 87.4538 89.5923 90.765C91.8797 101.035 94.8374 110.993 104.089 117.5C106.171 118.964 107.332 120.867 105.791 123.154C104.076 125.7 101.932 124.523 99.9918 123.158C97.5201 121.419 95.6347 119.134 93.9606 116.653C90.4148 111.399 88.4778 105.541 86.9745 99.4187C86.0718 95.7428 87.1291 91.6843 84.8215 88.0685C80.4932 89.4761 76.2552 90.6123 72.6998 93.9838C79.1012 102.033 80.5457 110.802 77.3837 120.191C74.2757 129.419 67.3528 135.223 58.6762 139.366C71.7573 149.848 103.459 144.992 114.17 127.71C113.437 126.459 111.236 126.847 111.027 124.911C111.506 123.466 112.794 122.863 114.067 122.632C119.226 121.692 119.996 117.882 120.027 113.664C120.067 108.334 118.337 103.458 115.538 98.2341ZM121.791 117.812C123.871 120.062 125.03 117.491 126.065 116.679C135.426 109.332 140.594 99.3311 142.237 87.8294C143.311 80.3125 143.636 72.4726 140.026 65.3999C138.025 64.9393 137.119 67.5561 135.246 66.4672C134.222 65.3062 134.395 63.9596 134.859 62.6936C136.382 58.5398 134.487 56.0082 131.137 53.808C125.398 50.0385 119.128 49.0825 112.42 49.3228C104.191 49.6176 95.2098 55.8378 92.3852 63.457C91.6792 65.3613 91.9678 66.5296 93.936 67.2972C104.292 71.3362 114.745 73.5012 125.477 68.7785C128.1 67.6244 130.369 67.7687 131.397 70.4964C132.451 73.2927 130.121 74.3589 127.946 75.2326C122.229 77.5283 116.333 77.3365 110.379 76.6044C103.539 75.7635 97.2853 73.0149 90.7437 70.2855C88.922 74.1688 89.1632 78.0899 88.7519 81.8321C88.4737 84.3634 90.3377 84.2664 92.4058 84.1331C101.347 83.557 109.006 86.1709 114.843 93.4042C120.501 100.414 122.411 108.393 121.791 117.812ZM78.5648 56.2478C80.5603 60.9853 85.0622 62.3036 89.1655 64.7188C93.7895 55.6302 99.6836 49.2807 109.95 47.5928C119.714 45.9875 127.944 48.9265 135.886 54.2284C137.572 35.4922 116.226 11.9865 97.8894 11.9295C96.9705 13.1169 98.3143 14.9483 96.7847 15.9627C95.4128 16.1212 94.3421 15.4026 93.5969 14.5637C90.1198 10.6501 86.5791 11.8343 82.8661 14.1245C76.4131 18.1049 71.9047 23.6713 69.347 30.7576C66.7865 37.8517 68.0337 44.4385 72.2124 50.6597C74.0921 53.4582 75.7865 53.6331 78.2733 51.4319C86.3243 44.3054 93.37 36.6346 94.3101 25.1642C94.5051 22.7843 95.9726 21.1843 98.4355 21.4695C100.92 21.7572 101.253 23.8677 101.009 25.9114C100.512 30.0798 99.3141 34.0206 97.0146 37.6058C92.2848 44.98 86.2023 50.9887 78.5648 56.2478ZM9.25428 100.899C14.4607 120.797 30.4589 136.163 47.2542 137.389C48.4341 136.174 46.9743 134.447 48.0988 133.129C50.3067 132.621 51.6075 134.266 53.0123 135.46C54.6007 136.811 56.1331 137.405 58.2867 136.801C73.7179 132.469 81.7099 112.425 73.4121 98.9285C71.5459 95.8931 69.8283 94.9054 66.8718 97.6847C59.0983 104.992 51.7493 112.484 51.001 124.021C50.8548 126.276 49.341 127.59 47.1889 127.625C44.5799 127.667 44.2494 125.701 44.2293 123.585C44.1989 120.375 45.1355 117.448 46.5543 114.623C50.436 106.895 56.0037 100.638 62.9646 95.5485C64.3437 94.5402 66.1535 93.8876 66.8522 91.5902C63.6496 88.7646 60.3913 85.9296 56.199 84.3655C44.602 106.004 28.0612 105.376 9.17957 95.1743C9.17957 97.2578 9.17957 98.7192 9.25428 100.899ZM74.9273 88.6327C77.5725 87.6692 80.2339 86.7473 82.8588 85.7314C85.9039 84.553 88.9473 70.1315 86.6763 67.7916C86.5737 67.6859 86.4456 67.6053 86.3359 67.506C76.2874 58.4065 76.3097 58.4715 63.68 62.7893C61.1 63.6714 59.8747 65.1129 59.3417 67.7233C57.7474 75.5311 56.3469 83.1638 66.0315 87.0282C66.2907 87.1315 66.531 87.3752 66.6938 87.6127C68.799 90.6826 71.4018 90.6821 74.9273 88.6327Z" fill="url(#paint0_linear_436_1194)"/>
<defs>
<linearGradient id="paint0_linear_436_1194" x1="356.376" y1="131.386" x2="342.051" y2="-41.2755" gradientUnits="userSpaceOnUse">
<stop offset="0.0152779" stop-color="#614DC8"/>
<stop offset="0.315" stop-color="#86EBCC"/>
<stop offset="0.669907" stop-color="#B2FC3A"/>
<stop offset="0.97" stop-color="#EEF060"/>
</linearGradient>
</defs>
</svg>
